<?xml version="1.0" encoding="UTF-8"?><svg id="Calque_2" xmlns="http://www.w3.org/2000/svg" viewBox="0 0 1853.7826 1401.3013"><g id="Artwork"><path d="m1002.1376,759.7182l-947.4723,2.2293c-29.2724.0688-53.0581-23.6052-53.127-52.8776L.0001,55.3564C-.0687,26.0841,23.6053,2.2984,52.8777,2.2295L1000.35.0002c29.2724-.0689,53.0581,23.6052,53.127,52.8776l1.5381,653.7135c.0689,29.2723-23.6052,53.058-52.8775,53.1269Z" style="stroke-width:0px;"/><path d="m997.4552,732.3845l-938.2362,2.2075c-14.8005.0348-26.8269-11.9351-26.8617-26.7356l-1.5328-651.4314c-.0348-14.8005,11.9352-26.827,26.7357-26.8618l938.2361-2.2075c14.8005-.0348,26.8269,11.9351,26.8618,26.7356l1.5327,651.4314c.0348,14.8005-11.9351,26.8269-26.7356,26.8618Z" style="fill:#fff; stroke-width:0px;"/><path d="m1173.7398,554.2232s-8.7537-3.095-20.96-7.6433l2.5643,15.1492c-.102-2.1242-50.7982-26.4785-100.4267-51.8326l.3519,78.3311c45.6049,22.3468,89.8882,43.9684,89.8882,43.9684l28.5823-77.9728Z" style="fill:#db7d79; stroke-width:0px;"/><path d="m1054.6363,447.3159l.2811,62.5806c49.6285,25.3541,100.3247,49.7084,100.4267,51.8326l-2.5643-15.1492-13.1345-77.5941s-10.4959-5.719-25.9933-14.066l6.3523,12.8946-65.368-20.4985Z" style="fill:#e58a83; stroke-width:0px;"/><polygon points="1054.6363 447.3159 1120.0043 467.8144 1113.652 454.9198 1063.4274 352.9681 1054.2259 355.9679 1054.6363 447.3159" style="fill:#f7978d; stroke-width:0px;"/><polygon points="1097.867 531.567 1082.6937 523.9572 1082.3886 456.0186 1067.3872 451.3144 1067.1389 396.0388 1054.3635 386.5978 1055.1609 564.1007 1060.5092 590.7948 1101.2762 610.7491 1097.867 531.567" style="fill:#351c1c; opacity:.13; stroke-width:0px;"/><path d="m1188.0648,447.3385s-10.3304-61.2993-37.9171-80.712-96.5042-75.1362-96.5042-75.1362l.72,95.1075s-4.2256-2.761,19.3918,14.2448c23.6175,17.0058,29.9863,116.1724,61.9381,132.8628,31.9518,16.6903,52.3714-86.3669,52.3714-86.3669Z" style="fill:#ffa799; stroke-width:0px;"/><path d="m1286.6999,995.9343l161.332-153.4178s31.7522-28.0114,31.2572,9.5073c-.495,37.5188-186.4066,184.146-186.4066,184.146,0,0-36.4744-11.4296-6.1826-40.2355Z" style="fill:#1a1a3d; stroke-width:0px;"/><path d="m964.696,553.6476s-1.6767,111.6851,23.6628,198.222l14.9287-1.5399-38.5915-196.6821Z" style="fill:#351c1c; opacity:.15; stroke-width:0px;"/><polygon points="1260.0125 969.8728 1572.5707 1386.4784 1796.6818 1158.0133 1417.4054 820.1041 1260.0125 969.8728" style="fill:#ffa799; stroke-width:0px;"/><path d="m1294.4837,1015.8191s153.893-116.8846,157.7433-164.6913l26.425,23.5427-170.2952,161.4298-13.8731-20.2812Z" style="fill:#351c1c; opacity:.09; stroke-width:0px;"/><path d="m1369.8956,619.7826c-16.7906-79.5563-5.9166-113.1344-49.0339-117.7122-43.1172-4.5778-101.8584-25.2488-110.6347-35.5509-8.7763-10.3021-52.4889-124.3219-72.9032-147.9786-13.9578-16.1746-55.5606-66.235-83.7147-99.8836,0,0,.5068,112.817.5163,112.852,5.2016,19.1458,19.4285,37.1638,25.0957,57.0736,11.5155,40.4563,15.9472,82.4452,23.1126,123.7621,4.9507,28.5466,9.8163,57.2276,12.7303,86.0686,2.1004,20.7923,1.6172,56.0237-4.1138,76.2448-7.4706,26.3598-32.7188-2.2668-37.4577-13.6904-7.0942-17.1011-7.7328-36.3147-10.3707-54.4057-3.0965-21.2357-24.3631-145.1859-57.9039-137.5637-24.9332,5.6662-33.7431,28.5844-37.2766,53.2468-10.2104,71.2653,5.4031,143.2911,29.4093,210.8838,12.9928,36.5832,30.4505,98.7269,66.8395,118.7073,42.7361,23.4654,186.6648,119.5628,195.8224,118.0363,9.1575-1.5265,102.4497-41.784,157.3929-149.7687,0,0-30.7189-120.7651-47.5098-200.3215Z" style="fill:#ffa799; stroke-width:0px;"/><polyline points="1053.6091 218.6573 1054.3635 386.5978 1063.8359 393.6156 1063.101 230.0118 1053.6091 218.6573" style="fill:#351c1c; opacity:.13; stroke-width:0px;"/><path d="m982.8897,482.4287c-.8782,1.2399-2.8075,34.1939-.4361,55.846,0,0,41.8001,15.3323,58.3363-6.4046,0,0-4.1507-24.0911-11.163-44.8057-7.0123-20.7146-28.624-30.2077-46.7372-4.6357Z" style="fill:#ffd0ca; stroke-width:0px;"/><path d="m1282.6803,1000.0866s-13.4858,14.9289-.5396,25.538c12.9462,10.6092,100.0773-63.162,131.9943-96.3128,31.917-33.1508,73.2451-98.3107,55.4947-94.7151-17.0335,3.4504-24.2439,10.436-24.2439,10.436,0,0,24.7558-28.0708,36.9225-12.2402,12.1667,15.8305,371.4743,312.7274,371.4743,312.7274l-278.3464,255.7814-299.2563-372.0313s-11.8858-17.3336,6.5004-29.1834Z" style="fill:#3f3d82; stroke-width:0px;"/><path d="m1339.3069,1065.4407c2.6369,2.5804,6.4645-.685,4.3465-3.6985-2.2842-3.2498-5.2404-6.1258-7.8827-9.0905-2.4614-2.7617-4.8961-5.6954-7.7614-8.044-1.6026-1.3137-4.1205.8536-3.0883,2.6372,1.8541,3.2034,4.3594,6.0801,6.685,8.9506,2.5015,3.0876,4.861,6.4663,7.7009,9.2452Z" style="fill:#6262af; stroke-width:0px;"/><path d="m1356.9921,1075.4502c2.0168,4.6875,3.6611,9.7939,6.8569,13.8527,1.8415,2.3388,4.9221-.1974,4.0609-2.6421-1.6921-4.8042-5.1988-8.9262-8.0334-13.0874-1.1512-1.6899-3.6282.1481-2.8844,1.8768Z" style="fill:#6262af; stroke-width:0px;"/><path d="m1394.5032,1121.0959c-1.5179-5.5164-4.9624-11.3544-9.8565-14.5342-1.7521-1.1384-3.6149,1.024-2.4006,2.6513,3.0786,4.1253,5.4953,7.9002,6.8791,12.9291.9291,3.3764,6.3164,2.3642,5.378-1.0462Z" style="fill:#6262af; stroke-width:0px;"/><path d="m1425.4487,1156.1191c-3.096-3.685-6.5283-6.9346-10.0932-10.1609-1.7169-1.5538-3.8037,1.1966-2.5828,2.8526,2.7486,3.7285,5.5473,7.3019,8.7814,10.6222,2.2786,2.3392,6.0318-.7699,3.8946-3.3139Z" style="fill:#6262af; stroke-width:0px;"/><path d="m1451.8022,1189.8018c-2.959-4.0477-6.4042-7.7093-9.3925-11.7297-1.4291-1.9225-4.1924.4829-2.8166,2.3966,2.9426,4.0933,5.4067,8.5148,8.3841,12.5877,1.9118,2.6153,5.722-.6595,3.825-3.2546Z" style="fill:#6262af; stroke-width:0px;"/><path d="m1375.4836,1058.8352c-3.1027-5.5161-6.8486-10.9497-10.7321-15.9446-1.7506-2.2516-5.3585.1737-4.1369,2.6915,2.7711,5.7111,6.0081,11.4468,9.5935,16.6854,2.028,2.9631,7.0336-.3062,5.2755-3.4323Z" style="fill:#6262af; stroke-width:0px;"/><path d="m1391.9778,1082.0992c5.3639,4.0034,9.4515,9.2312,14.2247,13.8545,1.7024,1.6491,5.268-.0901,3.7952-2.4693-3.8914-6.2862-9.7025-10.5563-15.6799-14.7634-2.1712-1.5282-4.4526,1.8015-2.34,3.3782Z" style="fill:#6262af; stroke-width:0px;"/><path d="m1452.0397,1142.0185c-4.986-10.1551-12.4623-18.6224-21.0576-25.9027-1.8573-1.5733-4.6722,1.4991-2.8866,3.1883,7.7241,7.3076,13.8633,15.8507,19.3372,24.9317,1.6689,2.7685,6.0845.792,4.607-2.2173Z" style="fill:#6262af; stroke-width:0px;"/><path d="m1465.8477,1169.6635c6.6765,4.4714,11.2744,10.3731,15.8498,16.8617,1.659,2.3527,5.213-.1995,4.0989-2.6668-3.4782-7.7032-10.1549-13.7153-17.3226-17.986-2.5258-1.5049-5.1143,2.1247-2.6261,3.7911Z" style="fill:#6262af; stroke-width:0px;"/><path d="m1477.7427,1224.1556c4.7196,6.4514,9.2733,13.0174,13.9716,19.484,1.7627,2.4261,5.3178-.6136,3.5469-3.0179-4.7341-6.4268-9.6065-12.7458-14.3195-19.1882-1.5998-2.1867-4.7865.5521-3.199,2.7221Z" style="fill:#6262af; stroke-width:0px;"/><path d="m1522.0496,1268.4166c-2.1909-3.1972-4.6726-6.1728-7.0878-9.2029-1.7778-2.2303-4.8344.5572-3.3035,2.8109,2.1839,3.2148,4.295,6.4784,6.7055,9.5284,1.9693,2.4916,5.4076-.6237,3.6858-3.1364Z" style="fill:#6262af; stroke-width:0px;"/><path d="m1500.9959,1207.7162c4.7508,3.6053,7.9453,8.8534,10.786,14.0025,1.6135,2.9252,5.8671.8463,4.648-2.2371-2.5862-6.5405-7.5087-11.1103-13.068-15.181-2.1665-1.5865-4.4873,1.8059-2.366,3.4156Z" style="fill:#6262af; stroke-width:0px;"/><path d="m1537.9681,1249.4887c4.1668,5.1412,8.163,10.5205,12.9722,15.0847,2.3172,2.1993,5.6649-.5875,3.7902-3.225-3.8416-5.4044-8.6073-10.1176-13.1113-14.9664-2.098-2.2586-5.6004.7016-3.6511,3.1067Z" style="fill:#6262af; stroke-width:0px;"/><path d="m1545.1247,1302.499c.5045,1.0482,1.0091,2.0965,1.5136,3.1447.5185,1.0773,1.9592,1.6486,3.0465,1.0668,1.0905-.5836,1.6201-1.8969,1.0668-3.0465-.5046-1.0483-1.009-2.0966-1.5136-3.1448-.5185-1.0773-1.9593-1.6485-3.0465-1.0668-1.0906.5836-1.6201,1.8969-1.0668,3.0466Z" style="fill:#6262af; stroke-width:0px;"/><path d="m1568.091,1287.1905c4.8828,6.9086,9.1517,14.6965,14.7711,21.0164,1.649,1.8546,5.0489-.1315,3.7573-2.4446-4.2224-7.5614-10.2593-14.2797-15.2945-21.3235-1.5946-2.2306-4.7972.5398-3.2339,2.7517Z" style="fill:#6262af; stroke-width:0px;"/><path d="m1569.1231,1324.5838c3.057,3.7024,6.0562,7.4396,9.0251,11.2131,2.1996,2.7956,6.5591-.9016,4.2075-3.5801-3.1666-3.6069-6.292-7.2369-9.3728-10.9173-2.0988-2.5074-5.9353.7703-3.8598,3.2843Z" style="fill:#6262af; stroke-width:0px;"/><path d="m1389.6111,1032.6434c-3.4714-6.0196-8.3574-11.5962-13.2076-16.5496-1.578-1.6115-4.8328.0935-3.5298,2.2964,3.507,5.928,7.5683,12.167,12.4487,17.0435,1.9313,1.9297,5.8508-.0815,4.2887-2.7903Z" style="fill:#6262af; stroke-width:0px;"/><path d="m1415.5939,1058.0407c-2.7926-3.2481-6.2117-5.8811-9.484-8.6261-2.1882-1.8356-5.382,1.6842-3.373,3.7253,2.9998,3.0478,5.898,6.2312,9.3624,8.7604,2.4127,1.7614,5.4288-1.6097,3.4946-3.8596Z" style="fill:#6262af; stroke-width:0px;"/><path d="m1456.8652,1100.2724c-5.0717-6.8139-11.4768-12.4713-17.1069-18.799-1.9345-2.174-5.3575.7334-3.4426,2.9292,5.564,6.3803,10.3662,13.4422,16.4812,19.3315,2.459,2.3683,6.1476-.6683,4.0683-3.4617Z" style="fill:#6262af; stroke-width:0px;"/><path d="m1489.1395,1138.9322c-4.9121-5.7427-10.0956-11.2374-15.2482-16.7629-2.0192-2.1652-5.4178.6956-3.5121,2.9884,4.8268,5.807,9.6192,11.6403,14.6919,17.2362,2.3071,2.5451,6.3091-.8421,4.0684-3.4617Z" style="fill:#6262af; stroke-width:0px;"/><path d="m1518.4609,1179.7376c-3.3126-5.801-7.9317-10.8529-12.0882-16.0638-1.8784-2.3548-5.2006.6061-3.5121,2.9884,3.7303,5.2629,7.1878,10.9837,11.6912,15.6187,1.7525,1.8038,5.3099-.0905,3.9091-2.5433Z" style="fill:#6262af; stroke-width:0px;"/><path d="m1531.8229,1200.3632c3.6436,5.7229,8.4163,10.7212,13.6053,15.0634,2.1301,1.7825,4.7749-1.4655,3.1601-3.4904-4.0646-5.0971-8.9426-9.9768-14.3821-13.6084-1.2399-.8278-3.3005.5946-2.3833,2.0354Z" style="fill:#6262af; stroke-width:0px;"/><path d="m1566.9348,1246.8364c3.7358,2.1088,6.6778,5.2305,8.5692,9.0854,1.5068,3.0707,6.1431.8197,4.7716-2.2966-2.2609-5.1364-6.0703-8.7841-11.0604-11.2631-2.5379-1.2609-4.7627,3.073-2.2804,4.4743Z" style="fill:#6262af; stroke-width:0px;"/><path d="m1606.5522,1289.5549c-1.0001.8504-1.2556,2.6094-.2903,3.6041,1.2808,1.3202,2.5617,2.6402,3.8426,3.9603.961.9904,2.5047,1.2253,3.6041.2903,1.0002-.8504,1.2557-2.6094.2906-3.6041-1.2811-1.3201-2.562-2.6402-3.8429-3.9603-.961-.9904-2.5047-1.2253-3.6041-.2903Z" style="fill:#6262af; stroke-width:0px;"/><path d="m1401.5743,1004.783c-2.5053-3.3949-5.199-6.558-8.2085-9.5211-.9333-.9191-1.8755-2.2412-3.2652-2.4074-.375-.045-1.7281.0057-1.9193.4805-1.1772,2.9221.9075,4.7841,2.6523,7.0826,2.0891,2.7521,4.325,5.3005,6.7418,7.768,2.3712,2.4209,6.0096-.6779,3.9989-3.4026Z" style="fill:#6262af; stroke-width:0px;"/><path d="m1428.4521,1031.6844c-3.9272-4.4362-8.1491-8.4291-12.4858-12.4611-2.2138-2.0581-5.859.8944-3.6512,3.1067,4.3268,4.3355,8.6128,8.5442,13.3413,12.442,1.853,1.5275,4.3504-1.3313,2.7957-3.0876Z" style="fill:#6262af; stroke-width:0px;"/><path d="m1439.0407,1050.238c8.1525,7.9266,16.042,16.5029,25.0635,23.4505,2.1818,1.6802,5.0271-1.5178,3.221-3.5575-7.5427-8.5184-16.664-15.7978-25.1242-23.3834-1.9869-1.7815-5.0855,1.6186-3.1603,3.4904Z" style="fill:#6262af; stroke-width:0px;"/><path d="m1482.0561,1084.2623c-2.028-1.9757-5.3593.7197-3.4078,2.8996,6.1347,6.8531,12.2271,13.7114,18.6776,20.2703,2.4938,2.5356,6.7063-.9736,4.2422-3.6098-6.2963-6.736-12.9086-13.1271-19.512-19.5601Z" style="fill:#6262af; stroke-width:0px;"/><path d="m1532.2846,1139.3762c-5.3393-5.8496-10.8589-11.5248-16.3479-17.2337-2.0432-2.1251-5.4706.7274-3.512,2.9884,5.1783,5.9782,10.3202,11.9836,15.6525,17.8255,2.3963,2.6254,6.6073-.9509,4.2074-3.5802Z" style="fill:#6262af; stroke-width:0px;"/><path d="m1563.4369,1181.3634c-3.124-8.6533-9.6839-15.3178-17.5612-19.899-2.5602-1.4889-5.1966,2.1873-2.6522,3.8286,6.9755,4.4993,12.1294,10.8454,16.3057,17.9512,1.4285,2.4307,4.8532.7385,3.9077-1.8808Z" style="fill:#6262af; stroke-width:0px;"/><path d="m1583.2053,1217.93c1.5506,1.8295,3.1011,3.6589,4.6515,5.4883,1.639,1.9336,4.5859-.588,2.9906-2.5445l-4.5474-5.577c-1.6551-2.0301-4.7868.6369-3.0947,2.6332Z" style="fill:#6262af; stroke-width:0px;"/><path d="m1617.8645,1264.2456c2.0666,2.8678,4.1333,5.7355,6.1999,8.6033,1.6114,2.2361,4.7608-.5342,3.2337-2.7516-2.0086-2.9171-4.0173-5.8342-6.026-8.7514-1.6241-2.3587-5.0905.5644-3.4076,2.8997Z" style="fill:#6262af; stroke-width:0px;"/><path d="m1436.1569,988.1788c-5.9904-5.6208-12.1318-10.9299-18.5529-16.0552-2.1667-1.7295-5.2398,1.627-3.2817,3.6246,5.7504,5.8667,11.6541,11.4389,17.8539,16.8271,2.5344,2.2026,6.4504-2.0792,3.9807-4.3965Z" style="fill:#6262af; stroke-width:0px;"/><path d="m1467.7572,1020.5016c-4.93-4.7596-10.455-8.8351-15.6518-13.2946-2.1101-1.8106-4.4714,1.7262-2.4442,3.5283,4.9757,4.4233,9.6138,9.231,14.8447,13.3575,2.1446,1.6917,5.2532-1.6584,3.2513-3.5912Z" style="fill:#6262af; stroke-width:0px;"/><path d="m1482.3765,1042.7946c3.9365,4.1601,7.4019,8.7645,11.7713,12.4914,2.1459,1.8304,4.787-1.4778,3.1905-3.5239-3.3993-4.3568-7.752-7.8788-11.5889-11.8375-1.9738-2.0366-5.3391.7922-3.3729,2.87Z" style="fill:#6262af; stroke-width:0px;"/><path d="m1528.493,1082.262c-5.2393-5.9053-11.4686-10.8822-17.361-16.111-1.4352-1.2737-3.534,1.0952-2.2487,2.4834,5.3717,5.8023,10.5036,11.8841,16.5407,17.0173,2.0093,1.7084,4.7746-1.4674,3.069-3.3897Z" style="fill:#6262af; stroke-width:0px;"/><path d="m1536.603,1097.065c6.13,5.9248,11.0377,12.8307,16.9364,18.9414,1.4911,1.5446,4.5556-.0908,3.3399-2.173-4.3561-7.4604-10.903-13.5386-17.1121-19.4609-1.9158-1.8273-5.0907.8306-3.1642,2.6925Z" style="fill:#6262af; stroke-width:0px;"/><path d="m1589.1879,1151.6199c-5.351-8.5918-12.6554-15.8149-19.3825-23.3308-2.0205-2.2573-5.5088.7089-3.5816,3.0476,6.4161,7.7853,12.4558,16.1048,20.1445,22.6911,1.425,1.2207,3.8148-.8103,2.8196-2.4079Z" style="fill:#6262af; stroke-width:0px;"/><path d="m1596.8993,1171.6119c5.3475,7.4135,10.3895,15.5204,16.7647,22.0927,1.7079,1.7609,5.2586-.1151,3.8331-2.494-4.8148-8.035-11.4146-15.1397-17.3292-22.3799-1.7713-2.1683-4.8623.5718-3.2686,2.7812Z" style="fill:#6262af; stroke-width:0px;"/><path d="m1639.2434,1226.1818c-3.5338-5.4564-7.8977-10.1769-12.1865-15.0463-1.7639-2.0028-4.7043.5609-3.1294,2.663,3.7757,5.0396,7.3763,10.1923,11.8623,14.6304,1.5395,1.5231,4.8278-.1252,3.4536-2.2471Z" style="fill:#6262af; stroke-width:0px;"/><path d="m1648.8273,1242.6464c4.9112,4.5733,8.9991,9.8013,12.3713,15.6015,1.5772,2.713,5.9546.6881,4.4423-2.1382-3.4921-6.5267-8.0815-12.0985-13.5621-17.0544-2.0336-1.8387-5.2755,1.7062-3.2515,3.5911Z" style="fill:#6262af; stroke-width:0px;"/><path d="m1457.8305,968.5645c-4.0198-3.6104-7.9764-7.0462-11.1218-11.4811-1.6766-2.3639-5.017.5581-3.4078,2.8996,3.2646,4.7497,7.0219,9.2461,12.0335,12.1848,2.4863,1.458,4.5632-1.7468,2.4961-3.6033Z" style="fill:#6262af; stroke-width:0px;"/><path d="m1484.8466,998.8909c2.2868,2.1337,4.546,4.2846,6.7702,6.4834,2.1723,2.1475,5.1821-1.1189,2.8259-3.1212-2.3825-2.0247-4.7204-4.0887-7.0436-6.1813-1.5993-1.4407-4.1399,1.3379-2.5525,2.8191Z" style="fill:#6262af; stroke-width:0px;"/><path d="m1515.5445,1032.0395c4.0837,3.222,7.9222,6.8019,12.2005,9.7582,2.1505,1.4859,4.1533-1.6329,2.2622-3.2657-3.9307-3.3934-8.3492-6.2054-12.4867-9.3452-1.7888-1.3575-3.7168,1.4793-1.976,2.8527Z" style="fill:#6262af; stroke-width:0px;"/><path d="m1562.952,1073.4511c-4.1068-4.2338-8.4394-8.2356-12.7195-12.2936-2.0066-1.9025-5.3155.7678-3.3381,2.8405,4.0606,4.2565,8.0663,8.5655,12.3021,12.6486,2.2508,2.1695,5.9883-.8937,3.7555-3.1955Z" style="fill:#6262af; stroke-width:0px;"/><path d="m1593.0136,1109.5547c-2.9847-2.7466-5.9695-5.4931-8.9542-8.2396-1.3379-1.231-3.5352.5701-2.1908,1.864,2.9152,2.8057,5.8305,5.6114,8.7456,8.4171,1.4611,1.4062,3.8763-.6825,2.3994-2.0415Z" style="fill:#6262af; stroke-width:0px;"/><path d="m1629.7028,1151.7093c-4.1201-6.1916-8.8284-11.9087-13.504-17.6854-1.865-2.3039-5.2227.6258-3.4773,2.9589,4.4482,5.9457,8.8282,11.9116,13.8171,17.419,1.8431,2.0346,4.6112-.5182,3.1642-2.6925Z" style="fill:#6262af; stroke-width:0px;"/><path d="m1646.4989,1182.6532c4.4218,4.501,8.0112,9.6622,12.0729,14.469,1.4675,1.7366,4.2419-.1031,3.3021-2.1482-2.8424-6.1844-7.522-10.9499-12.5795-15.4085-1.7771-1.5667-4.4554,1.3981-2.7955,3.0877Z" style="fill:#6262af; stroke-width:0px;"/><path d="m1672.764,1218.7814c4.512,8.0249,8.6282,16.525,13.8645,24.1028,1.7452,2.5256,5.8889-.2369,4.4783-2.9137-4.2823-8.1276-9.9527-15.6936-14.965-23.3867-1.2543-1.9252-4.5024.1976-3.3778,2.1976Z" style="fill:#6262af; stroke-width:0px;"/><path d="m1481.7424,946.9485c-3.7143-3.4097-7.6966-6.4132-11.7047-9.4673-2.3862-1.8183-4.7525,1.8662-2.6,3.7536,3.6318,3.1843,7.2027,6.3973,11.1141,9.2377,2.141,1.5547,5.2247-1.6567,3.1906-3.524Z" style="fill:#6262af; stroke-width:0px;"/><path d="m1505.9675,982.3798c4.1572,1.8993,7.4914,4.8841,10.8907,7.8673,2.3788,2.0874,5.0061-1.6002,3.4641-3.826-3.0146-4.3519-7.7957-7.016-12.7707-8.5651-2.9867-.93-4.3576,3.2569-1.5841,4.5238Z" style="fill:#6262af; stroke-width:0px;"/><path d="m1548.6107,1017.4054c-3.0609-3.5804-6.5513-6.5272-10.1148-9.5942-2.2077-1.9002-5.461,1.707-3.4336,3.7924,3.2798,3.3737,6.4437,6.6534,10.2059,9.4936,2.2923,1.7305,5.1743-1.5492,3.3425-3.6918Z" style="fill:#6262af; stroke-width:0px;"/><path d="m1571.8712,1041.7294c-3.2422-5.7708-7.9115-10.1932-13.2616-14.0125-2.0387-1.4553-4.2197,1.7158-2.2101,3.1905,4.8414,3.5527,8.5246,8.2246,11.8662,13.1678,1.3744,2.0334,4.8056-.2097,3.6055-2.3458Z" style="fill:#6262af; stroke-width:0px;"/><path d="m1595.3073,1063.5802c-3.668-3.4504-7.6334-6.568-11.5171-9.771-2.5451-2.0991-5.2874,2.0573-2.8861,4.1663,3.6146,3.1749,7.1542,6.4647,10.9695,9.3971,2.2779,1.7509,5.5813-1.7723,3.4337-3.7924Z" style="fill:#6262af; stroke-width:0px;"/><path d="m1616.5548,1087.5206c-2.6645-4.0352-6.9248-7.3248-10.3765-10.686-1.9083-1.8582-5.0791.7359-3.1991,2.7221,3.4347,3.6286,6.7782,8.065,10.932,10.8837,1.9885,1.3495,3.8226-1.1344,2.6436-2.9198Z" style="fill:#6262af; stroke-width:0px;"/><path d="m1634.7108,1109.8335c.9535-.8846,1.0487-2.2285.2619-3.2502-.9044-1.1744-1.8086-2.3486-2.7129-3.523-.7449-.9672-2.2887-1.0197-3.1859-.2567-.9854.8382-.9832,2.2012-.2566,3.186.8811,1.1939,1.7622,2.388,2.6434,3.582.7179.9729,2.3807,1.0685,3.2501.2619Z" style="fill:#6262af; stroke-width:0px;"/><path d="m1657.3387,1137.4674c-.9375.7974-1.177,2.4465-.2721,3.379,1.2808,1.3202,2.5618,2.6402,3.8426,3.9603.9009.9285,2.3483,1.1487,3.379.2722.9375-.7973,1.177-2.4464.2721-3.3789-1.2808-1.3202-2.5617-2.6402-3.8427-3.9603-.9009-.9285-2.3481-1.1488-3.3789-.2723Z" style="fill:#6262af; stroke-width:0px;"/><path d="m1673.9225,1156.8229c4.6004,5.632,8.6219,12.257,14.1093,17.0578,1.6019,1.4014,4.216-.9052,3.1552-2.6947-3.7128-6.2642-9.5121-11.4245-14.2044-16.9667-1.6759-1.9794-4.6944.6028-3.0601,2.6036Z" style="fill:#6262af; stroke-width:0px;"/><path d="m1699.2708,1189.1244c3.3108,3.382,6.3807,7.202,10.0419,10.1971,1.8186,1.4877,4.0416-1.2355,2.674-2.9535-2.8301-3.555-6.5154-6.5629-9.7255-9.7882-1.7714-1.78-4.7633.7335-2.9904,2.5446Z" style="fill:#6262af; stroke-width:0px;"/><path d="m1722.7314,1214.6328c-.8533,1.2343-.3779,2.5836.6344,3.4945,1.7799,1.6017,3.3938,3.64,5.674,4.4682,1.8222.6618,3.7296-1.3822,2.8109-3.1441-1.2105-2.3219-3.6564-3.7747-5.6248-5.453-1.0322-.8799-2.7784-.4011-3.4945.6344Z" style="fill:#6262af; stroke-width:0px;"/><path d="m1509.5551,930.712c-5.5065-7.9126-13.2956-14.0457-21.0136-19.7068-2.5738-1.8879-5.1536,2.0348-2.7821,4.0162,7.2236,6.0353,13.5698,12.9875,20.7571,19.0467,2.1196,1.7868,4.4037-1.3946,3.0386-3.3561Z" style="fill:#6262af; stroke-width:0px;"/><path d="m1535.1308,957.4411c.8909-.7416,1.2133-2.4817.2696-3.3467-2.4588-2.254-5.0129-4.3791-7.4871-6.613-1.8256-1.6485-4.7336,1.5313-2.9171,3.2219,2.291,2.1322,4.48,4.3526,6.788,6.4683.9518.8726,2.2759,1.161,3.3466.2695Z" style="fill:#6262af; stroke-width:0px;"/><path d="m1567.716,985.0078c-4.4935-5.4322-9.7438-10.0363-14.4728-15.2164-1.5239-1.6692-4.1402.5428-2.6775,2.2783,4.515,5.3567,8.3903,11.1542,13.1861,16.3111,2.2769,2.4482,6.1084-.7808,3.9642-3.373Z" style="fill:#6262af; stroke-width:0px;"/><path d="m1603.4538,1024.913c-4.5063-5.8077-10.1586-10.6711-15.3357-15.8711-2.1569-2.1664-5.7859.8489-3.651,3.1068,5.1898,5.489,10.0202,11.4006,15.8568,16.2211,2.135,1.7632,4.6932-1.4419,3.1299-3.4568Z" style="fill:#6262af; stroke-width:0px;"/><path d="m1619.836,1042.455c5.1751,5.8848,10.0784,12.3547,15.8822,17.6224,2.1241,1.9278,5.3298-.5694,3.4773-2.9588-4.8071-6.2002-10.8931-11.5897-16.369-17.2081-1.7489-1.7944-4.6746.6295-2.9905,2.5445Z" style="fill:#6262af; stroke-width:0px;"/><path d="m1661.6915,1090.2337c1.9818,2.7149,6.1189-.748,3.9989-3.4026-4.5124-5.6505-9.5749-10.7583-15.1401-15.372-2.1847-1.8111-4.4846,1.7436-2.4702,3.5658,5.0701,4.5865,9.5829,9.6897,13.6114,15.2088Z" style="fill:#6262af; stroke-width:0px;"/><path d="m1684.4032,1107.8401c-4.7961-4.8442-9.8308-9.4257-14.7431-14.1513-2.2017-2.118-5.8619.9418-3.6512,3.1067,4.8647,4.7639,9.5901,9.6545,14.5693,14.2993,2.3155,2.1599,6.1302-.9264,3.825-3.2547Z" style="fill:#6262af; stroke-width:0px;"/><path d="m1695.385,1125.7717c.5843-.5421.9329-1.5515.485-2.2919-.3028-.5006-.5744-1.0619-.9914-1.4735-.3518-.3472-.7146-.6835-1.0717-1.025-.7834-.7493-2.0489-1.0519-2.9284-.2359-.8091.7504-1.009,2.0629-.2359,2.9283.3275.3667.6496.739.9829,1.1005.4246.4606.9069.7765,1.4248,1.1135.688.4477,1.7048.4684,2.3347-.116Z" style="fill:#6262af; stroke-width:0px;"/><path d="m1726.1802,1150.9269c-5.9978-5.0464-11.2751-10.4635-14.9279-17.4691-1.5347-2.9433-6.0322-.7919-4.6481,2.2372,3.6011,7.8806,8.9756,15.2007,16.4039,19.8113,3.0883,1.9168,5.8871-2.295,3.1721-4.5794Z" style="fill:#6262af; stroke-width:0px;"/><path d="m1738.284,1173.5c3.1262,2.9323,5.5912,6.3322,7.6969,10.0551,1.6812,2.9722,6.2494.844,4.8127-2.3162-1.9651-4.3225-4.8918-8.0447-8.3718-11.2599-2.535-2.3421-6.6926,1.1249-4.1378,3.521Z" style="fill:#6262af; stroke-width:0px;"/><path d="m1500.303,887.006c2.9326,2.7909,5.8652,5.5818,8.7977,8.3727,2.0557,1.9563,5.4479-.9392,3.373-2.87-2.9674-2.7613-5.9348-5.5227-8.9022-8.284-1.9947-1.8562-5.2762.8706-3.2685,2.7813Z" style="fill:#6262af; stroke-width:0px;"/><path d="m1540.0847,923.4166c3.2513,5.5444,6.8275,10.943,12.429,14.2961,1.4687.8791,3.5836-1.0588,2.1575-2.3829-4.4082-4.0931-9.1396-7.8375-12.4064-12.9625-.8189-1.2847-2.9791-.3135-2.1801,1.0493Z" style="fill:#6262af; stroke-width:0px;"/><path d="m1529.8048,909.4723c-1.1706-1.7623-2.2758-3.5564-3.5281-5.2656-1.2568-1.7153-2.3852-3.3283-4.6904-3.12-.6702.0606-1.34.6995-1.5292,1.3231-.6558,2.1602.8557,3.6772,2.2351,5.1873,1.4237,1.5586,2.9602,2.9899,4.4526,4.479,1.863,1.859,4.4765-.4712,3.06-2.6038Z" style="fill:#6262af; stroke-width:0px;"/><path d="m1568.5654,950.7859c4.9216,6.4827,9.4803,13.182,14.6664,19.4645,2.2516,2.7274,6.3926-.8164,4.1727-3.5506-5.1265-6.3145-10.7866-12.0975-16.1616-18.1922-1.508-1.7099-4.0384.4858-2.6775,2.2783Z" style="fill:#6262af; stroke-width:0px;"/><path d="m1591.666,976.7271c5.5848,6.1048,11.1791,12.1852,16.9909,18.0762,2.398,2.4307,6.4561-.9663,4.0683-3.4618-5.7333-5.9921-11.6632-11.772-17.6167-17.5436-2.0526-1.99-5.4364.7496-3.4425,2.9292Z" style="fill:#6262af; stroke-width:0px;"/><path d="m1646.028,1029.6882c-6.381-8.6408-13.1702-16.9123-19.827-25.3345-1.6853-2.1323-4.8311.5848-3.199,2.7221,6.5173,8.5348,12.8554,17.1612,19.6531,25.4823,1.8223,2.2308,5.0486-.6007,3.3729-2.8699Z" style="fill:#6262af; stroke-width:0px;"/><path d="m1652.1019,1039.5726c6.5992,9.1726,13.2834,18.297,20.8447,26.7063,1.8546,2.0624,4.6676-.5268,3.1991-2.7221-6.289-9.4018-13.4772-18.1353-20.7405-26.7951-1.8203-2.1703-4.9108.5766-3.3033,2.8109Z" style="fill:#6262af; stroke-width:0px;"/><path d="m1686.6065,1079.1479c4.6329,6.2071,8.9914,12.7586,14.6501,18.0826,1.6726,1.5737,5.0445-.0252,3.6815-2.3952-3.9793-6.9186-9.4343-12.8142-14.5414-18.9124-2.077-2.4802-5.6889.6812-3.7902,3.225Z" style="fill:#6262af; stroke-width:0px;"/><path d="m1723.4425,1119.4689c3.8274,3.7072,7.7477,8.5239,12.4467,11.1035,2.4592,1.35,4.9421-1.2808,3.2818-3.6246-3.1033-4.381-8.3214-7.7214-12.4467-11.1036-2.139-1.7536-5.2919,1.6777-3.2818,3.6247Z" style="fill:#6262af; stroke-width:0px;"/><path d="m1752.847,1147.0837c5.4595,5.9786,9.7224,12.7893,13.829,19.7339,1.4015,2.3703,4.6376.7159,3.7841-1.8214-2.7456-8.1632-7.7809-15.0842-13.7534-21.1968-2.2612-2.3142-6.0759.8574-3.8597,3.2843Z" style="fill:#6262af; stroke-width:0px;"/><path d="m1508.3465,874.5503c4.6096,5.2547,9.2542,10.4722,13.9357,15.6629,2.5057,2.7783,6.9695-1.045,4.4161-3.7576-4.7977-5.0968-9.6249-10.1591-14.4921-15.1896-2.2508-2.3264-6.0286.8118-3.8597,3.2843Z" style="fill:#6262af; stroke-width:0px;"/><path d="m1555.3756,912.761c4.1983,5.9673,8.5612,11.6251,14.5329,15.9164,2.0248,1.4551,4.9023-1.5282,3.0083-3.3226-5.0868-4.8193-10.3674-9.4893-14.4812-15.1975-1.5199-2.1089-4.5322.5113-3.06,2.6037Z" style="fill:#6262af; stroke-width:0px;"/><path d="m1595.332,949.375c6.2396,7.0885,11.7427,14.6417,17.6328,21.9994,1.6927,2.1144,5.5894-.2803,4.061-2.6421-5.2714-8.1465-12.2527-15.3715-19.4452-21.8408-1.4378-1.2932-3.4881,1.0755-2.2486,2.4835Z" style="fill:#6262af; stroke-width:0px;"/><path d="m1630.7656,986.4508c6.865,6.0518,12.1265,13.2332,18.3731,19.822,2.4556,2.5902,6.0647-.668,4.138-3.5209-5.136-7.6046-13.0895-13.9465-20.1971-19.6417-2.0743-1.6622-4.2291,1.6524-2.314,3.3406Z" style="fill:#6262af; stroke-width:0px;"/><path d="m1660.7115,1015.0795c4.9392,6.7258,9.8166,13.46,15.1381,19.8905,1.9739,2.3853,5.3893-.636,3.6164-3.0772-4.901-6.7481-10.2043-13.1428-15.4859-19.5946-1.7695-2.1615-4.8854.5796-3.2686,2.7813Z" style="fill:#6262af; stroke-width:0px;"/><path d="m1685.0859,1044.3882c4.4461,3.6374,8.4464,7.7635,12.194,12.1117,1.6751,1.9435,4.6242-.5844,3.0254-2.574-3.8338-4.7702-8.2796-8.8247-13.1913-12.4654-1.8626-1.3807-3.7784,1.4958-2.0281,2.9277Z" style="fill:#6262af; stroke-width:0px;"/><path d="m1704.1043,1064.4711c3.0798,2.4164,5.9474,5.0765,9.0628,7.4453,2.5394,1.9308,5.2845-2.1038,2.8081-4.0538-3.0655-2.4139-6.3503-4.5147-9.4527-6.8823-2.1823-1.6653-4.555,1.8142-2.4182,3.4908Z" style="fill:#6262af; stroke-width:0px;"/><path d="m1728.3035,1084.8599c1.412.9488,2.7861,1.9249,4.1434,2.9504,2.4203,1.8283,5.235-2.3534,2.6522-3.8286-1.4796-.8451-2.9208-1.7248-4.3515-2.6501-2.3159-1.4977-4.7419,1.9843-2.4441,3.5283Z" style="fill:#6262af; stroke-width:0px;"/><path d="m1744.3362,1098.5377c2.5122,2.9303,4.9202,5.8689,7.8505,8.3916,1.6177,1.3926,3.7803-1.161,2.4613-2.7185-2.4793-2.9275-5.4497-5.3388-8.3367-7.8547-1.2881-1.1224-3.0431.9358-1.9751,2.1816Z" style="fill:#6262af; stroke-width:0px;"/><path d="m1766.4655,1123.9079c4.6837,5.5001,9.3445,10.9172,14.7033,15.7718,1.9837,1.797,4.5663-1.4164,3.0387-3.3562-4.3476-5.5203-9.3498-10.3804-14.369-15.2856-2.0062-1.9606-5.2524.663-3.373,2.87Z" style="fill:#6262af; stroke-width:0px;"/><path d="m1806.2081,1159.5008c-.9999,2.8555,3.4362,4.4142,4.4377,1.554.9998-2.8555-3.4362-4.4141-4.4377-1.554Z" style="fill:#6262af; stroke-width:0px;"/><path d="m1333.2669,1074.2753c-5.137-9.6673-12.7531-17.986-20.4428-25.6979-2.2147-2.2211-5.9024.8104-3.7554,3.1954,7.2184,8.0185,13.1484,16.9166,19.8337,25.3421,1.8401,2.3191,5.7702-.1942,4.3645-2.8396Z" style="fill:#6262af; stroke-width:0px;"/><path d="m1343.8642,1090.7309c-2.0346-2.9016-4.4698-5.4415-6.8471-8.0624-1.2745-1.4052-3.8782.0913-2.8844,1.8765,1.8177,3.2654,3.5531,6.5408,5.7675,9.559,1.9979,2.7232,5.8621-.666,3.964-3.3731Z" style="fill:#6262af; stroke-width:0px;"/><path d="m1370.1545,1121.3834c-2.5671-5.7107-6.967-10.799-10.662-15.8149-1.4289-1.9396-4.826.2235-3.5676,2.3212,3.2008,5.3356,6.1969,11.3729,10.4722,15.9383,1.7409,1.859,4.8316-.0547,3.7574-2.4446Z" style="fill:#6262af; stroke-width:0px;"/><path d="m1386.0168,1142.771c-2.7763-4.3083-6.2332-7.6044-9.8185-11.1955-1.2912-1.2934-3.0968.3264-2.1211,1.8049,2.7016,4.0931,5.0932,8.0655,8.6377,11.5389,1.4741,1.4446,4.6149-.1104,3.3019-2.1483Z" style="fill:#6262af; stroke-width:0px;"/><path d="m1409.8431,1171.0465c-2.5207-5.4799-6.0369-10.3746-9.3305-15.4135-1.2109-1.8526-4.3906.2058-3.2639,2.1236,3.0489,5.1901,5.8836,10.4972,9.6721,15.1913,1.2719,1.576,3.7471-.1084,2.9223-1.9014Z" style="fill:#6262af; stroke-width:0px;"/><path d="m1438.6893,1208.4877c-3.7172-8.2753-10.1524-15.233-16.4804-21.6076-1.5575-1.5688-4.0901.5125-2.6427,2.2488,5.7178,6.8595,10.2666,14.552,15.8591,21.4823,1.427,1.7684,4.1636-.1207,3.264-2.1235Z" style="fill:#6262af; stroke-width:0px;"/><path d="m1445.3929,1224.0791c3.4249,4.5463,6.722,9.3039,10.6853,13.4048,1.9101,1.9765,4.7072-.514,3.1991-2.7221-3.2155-4.7076-7.2044-8.8968-10.9635-13.1681-1.6446-1.8688-4.3968.5262-2.9209,2.4854Z" style="fill:#6262af; stroke-width:0px;"/><path d="m1480.3173,1264.3251c-3.157-4.3768-7.1646-7.9354-10.523-12.1268-.8771-1.0948-2.4174.2815-1.6343,1.3905,3.1251,4.426,5.4578,9.2933,8.8192,13.5767,1.7612,2.2444,4.9675-.5816,3.3381-2.8404Z" style="fill:#6262af; stroke-width:0px;"/><path d="m1491.6519,1286.0947c2.1062,3.0609,4.2125,6.1217,6.3186,9.1824,2.0561,2.988,3.9253,6.4806,6.6192,8.9266,1.6947,1.539,4.5893.0649,3.5295-2.2964-1.482-3.3022-4.1405-6.1137-6.3311-8.9687-2.3935-3.1197-4.7869-6.2393-7.1804-9.3588-1.5454-2.0141-4.3432.4985-2.9558,2.5149Z" style="fill:#6262af; stroke-width:0px;"/><path d="m1524.0959,1323.7535c2.4401,2.7437,4.8801,5.4875,7.3203,8.2312,1.9085,2.1461,5.3503-.9384,3.3382-2.8405-2.6836-2.5366-5.3671-5.0733-8.0506-7.6098-1.5649-1.4793-4.1044.5364-2.6079,2.2191Z" style="fill:#6262af; stroke-width:0px;"/><path d="m1551.6106,1350.1249c-.8348,2.3842,2.8691,3.6855,3.7053,1.2975.8348-2.3842-2.8691-3.6856-3.7053-1.2975Z" style="fill:#6262af; stroke-width:0px;"/></g></svg>