<?xml version="1.0" encoding="UTF-8"?><svg xmlns="http://www.w3.org/2000/svg" viewBox="0 0 2323.9072 175.3744"><g style="isolation:isolate;"><g id="Calque_2"><g id="Layer_1"><path d="m592.9468,56.8731v93.868c0,3.0568-1.626,4.8088-4.7135,4.8088H166.2373v-.2478c0-.1356,0-.2878-.0126-.4262-.2126-7.0048-5.4504-12.6438-11.8501-12.6438h-74.1492c-6.3751,0-11.6255,5.639-11.8368,12.6438-.0126.1384-.0126.2907-.0126.4262v.2478l-41.5747.224c-9.6125,0-20.0745-3.119-24.5376-13.0174-.7628-1.6951-1.3381-3.5577-1.7258-5.5283-.9872-5.199-.6247-11.2227,1.1625-17.4554.0384-.1105.0627-.2338.1002-.3445,2.0877-7.0588,6.0383-14.3792,11.9004-21.0824,1.237-1.406,2.5631-2.7843,3.9878-4.1363,7.5619-7.2373,15.8371-14.2974,24.5125-20.2673,5.1613-3.5701,10.5616-6.8788,16.1739-9.8431,4.2004-2.2056,8.5506-4.2205,13.013-5.9848,12.6869-4.9914,55.9873-8.0248,71.0127-8.0248h443.6845c4.4488,0,6.8613,3.4858,6.8613,6.7835Z" style="fill:#e8e8e8; stroke-width:0px;"/><path d="m130.5752,119.4282v17.7999H.5379c-.9872-5.199-.6247-11.2227,1.1625-17.4554.0384-.1105.0627-.2338.1002-.3445h128.7746Z" style="fill:#ff3f05; stroke-width:0px;"/><rect x="160.8156" y="119.4325" width="398.0156" height="20.7418" style="fill:#ff3f05; stroke-width:0px;"/><rect x="160.8156" y="76.4346" width="398.0156" height="20.7406" style="fill:#ff3f05; stroke-width:0px;"/><g style="mix-blend-mode:multiply;"><rect x="166.2221" y="79.0887" width="389.4864" height="1.1847" style="fill:#c7d0c5; stroke-width:0px;"/><rect x="166.2221" y="82.648" width="389.4864" height="1.1873" style="fill:#c7d0c5; stroke-width:0px;"/><rect x="166.2221" y="86.2099" width="389.4864" height="1.186" style="fill:#c7d0c5; stroke-width:0px;"/><rect x="166.2221" y="89.7704" width="389.4864" height="1.1831" style="fill:#c7d0c5; stroke-width:0px;"/><rect x="166.2221" y="93.3309" width="389.4864" height="1.1873" style="fill:#c7d0c5; stroke-width:0px;"/><rect x="166.2221" y="96.8914" width="389.4864" height="1.1847" style="fill:#c7d0c5; stroke-width:0px;"/><rect x="166.2221" y="100.4466" width="389.4864" height="1.1887" style="fill:#c7d0c5; stroke-width:0px;"/><rect x="166.2221" y="104.0071" width="389.4864" height="1.19" style="fill:#c7d0c5; stroke-width:0px;"/><rect x="166.2221" y="107.5716" width="389.4864" height="1.1847" style="fill:#c7d0c5; stroke-width:0px;"/><rect x="166.2221" y="111.1296" width="389.4864" height="1.1872" style="fill:#c7d0c5; stroke-width:0px;"/><rect x="166.2221" y="121.8098" width="389.4864" height="1.1873" style="fill:#c7d0c5; stroke-width:0px;"/><rect x="166.2221" y="125.3688" width="389.4864" height="1.1889" style="fill:#c7d0c5; stroke-width:0px;"/><rect x="166.2221" y="128.9295" width="389.4864" height="1.1887" style="fill:#c7d0c5; stroke-width:0px;"/><rect x="166.2221" y="132.4914" width="389.4864" height="1.1845" style="fill:#c7d0c5; stroke-width:0px;"/><rect x="166.2221" y="136.0506" width="389.4864" height="1.1858" style="fill:#c7d0c5; stroke-width:0px;"/></g><rect x="163.7568" y="87.6463" width="396.2373" height="26.2079" style="fill:#2b354e; stroke-width:0px;"/><g style="mix-blend-mode:multiply;"><path d="m155.8738,140.1742h-20.3611c-2.9276,0-5.31-2.6334-5.31-5.8646v-52.961c0-3.2298,2.3824-5.8632,5.31-5.8632h20.3611c2.9282,0,5.3112,2.6334,5.3112,5.8632v52.961c0,3.2312-2.3829,5.8646-5.3112,5.8646Zm-20.3611-63.8683c-2.5187,0-4.5679,2.2638-4.5679,5.0427v52.961c0,2.7816,2.0492,5.0427,4.5679,5.0427h20.3611c2.5192,0,4.5704-2.2612,4.5704-5.0427v-52.961c0-2.7789-2.0512-5.0427-4.5704-5.0427h-20.3611Z" style="fill:#c7d0c5; stroke-width:0px;"/></g><path d="m151.2507,103.6513c0,1.1984-.889,2.1836-1.9767,2.1836h-7.1611c-1.0876,0-1.9772-.9852-1.9772-2.1836v-15.3117c0-1.1971.8896-2.1796,1.9772-2.1796h7.1611c1.0878,0,1.9767.9825,1.9767,2.1796v15.3117Z" style="fill:#0a0d17; stroke-width:0px;"/><rect x="128.2404" y="87.6463" width="2.3311" height="53.4843" style="fill:#a1a1a1; stroke-width:0px;"/><rect x="160.8156" y="87.6463" width="2.3284" height="53.4843" style="fill:#a1a1a1; stroke-width:0px;"/><g style="mix-blend-mode:multiply;"><path d="m585.295,140.1742h-20.3611c-2.9288,0-5.308-2.6334-5.308-5.8646v-52.961c0-3.2298,2.3792-5.8632,5.308-5.8632h20.3611c2.9314,0,5.3113,2.6334,5.3113,5.8632v52.961c0,3.2312-2.3799,5.8646-5.3113,5.8646Zm-20.3611-63.8683c-2.5185,0-4.5672,2.2638-4.5672,5.0427v52.961c0,2.7816,2.0487,5.0427,4.5672,5.0427h20.3611c2.5217,0,4.5718-2.2612,4.5718-5.0427v-52.961c0-2.7789-2.0501-5.0427-4.5718-5.0427h-20.3611Z" style="fill:#c7d0c5; stroke-width:0px;"/></g><path d="m580.6738,103.6513c0,1.1984-.89,2.1836-1.9747,2.1836h-7.1636c-1.0864,0-1.9772-.9852-1.9772-2.1836v-15.3117c0-1.1971.8908-2.1796,1.9772-2.1796h7.1636c1.0847,0,1.9747.9825,1.9747,2.1796v15.3117Z" style="fill:#0a0d17; stroke-width:0px;"/><rect x="557.6694" y="87.6463" width="2.3247" height="53.4843" style="fill:#a1a1a1; stroke-width:0px;"/><rect x="590.2401" y="87.6463" width="2.3234" height="53.4843" style="fill:#a1a1a1; stroke-width:0px;"/><path d="m24.2024,107.8222l4.9048,11.1147s36.224-4.547,48.2069-4.547h50.9308v-26.7436h-39.2205c-25.6003,0-46.1081,7.1722-64.822,20.1759Z" style="fill:#2b354e; stroke-width:0px;"/><path d="m106.4731,158.6952c0,9.2133-6.7717,16.6792-15.1228,16.6792s-15.125-7.4659-15.125-16.6792,6.7708-16.6832,15.125-16.6832,15.1228,7.4712,15.1228,16.6832Z" style="fill:#444034; stroke-width:0px;"/><path d="m102.4754,158.6952c0,6.7766-4.9815,12.2744-11.1251,12.2744-6.1473,0-11.1273-5.4979-11.1273-12.2744s4.98-12.2731,11.1273-12.2731c6.1436,0,11.1251,5.4952,11.1251,12.2731Z" style="fill:#655d43; stroke-width:0px;"/><path d="m97.4495,158.6952c0,3.7154-2.7313,6.7281-6.0992,6.7281s-6.1022-3.0127-6.1022-6.7281c0-3.7183,2.735-6.7322,6.1022-6.7322s6.0992,3.0139,6.0992,6.7322Z" style="fill:#a1a1a1; stroke-width:0px;"/><path d="m93.9919,158.6952c0,1.6094-1.1831,2.9143-2.6416,2.9143-1.4629,0-2.644-1.3049-2.644-2.9143,0-1.6109,1.1811-2.9158,2.644-2.9158,1.4585,0,2.6416,1.3049,2.6416,2.9158Z" style="stroke-width:0px;"/><path d="m165.1332,158.6923c0,9.2162-6.7697,16.682-15.1208,16.682s-15.1233-7.4659-15.1233-16.682,6.7703-16.6819,15.1233-16.6819,15.1208,7.4685,15.1208,16.6819Z" style="fill:#444034; stroke-width:0px;"/><path d="m161.1387,158.6923c0,6.7794-4.982,12.276-11.1263,12.276s-11.1281-5.4965-11.1281-12.276,4.9832-12.2702,11.1281-12.2702,11.1263,5.491,11.1263,12.2702Z" style="fill:#655d43; stroke-width:0px;"/><path d="m156.1128,158.6923c0,3.7171-2.7331,6.731-6.1004,6.731s-6.0992-3.0139-6.0992-6.731c0-3.7196,2.732-6.7293,6.0992-6.7293s6.1004,3.0097,6.1004,6.7293Z" style="fill:#a1a1a1; stroke-width:0px;"/><path d="m152.6557,158.6923c0,1.6122-1.1848,2.9143-2.6433,2.9143-1.4617,0-2.6421-1.3021-2.6421-2.9143,0-1.608,1.1804-2.9129,2.6421-2.9129,1.4585,0,2.6433,1.3049,2.6433,2.9129Z" style="stroke-width:0px;"/><path d="m166.2322,155.5567h-25.7589l-7.7464,7.5279h-24.0189l-8.0041-7.5279h-32.3086c0-8.033,5.4538-13.3302,11.8364-13.3302h74.1453c6.3926,0,11.8551,5.1768,11.8551,13.3302Z" style="fill:#0b0b0f; stroke-width:0px;"/><path d="m495.9569,158.6952c0,9.2133-6.768,16.6792-15.1208,16.6792s-15.1233-7.4659-15.1233-16.6792,6.7708-16.6832,15.1233-16.6832,15.1208,7.4712,15.1208,16.6832Z" style="fill:#444034; stroke-width:0px;"/><path d="m491.9623,158.6952c0,6.7766-4.9818,12.2744-11.1261,12.2744s-11.1275-5.4979-11.1275-12.2744,4.9807-12.2731,11.1275-12.2731,11.1261,5.4952,11.1261,12.2731Z" style="fill:#655d43; stroke-width:0px;"/><path d="m486.9345,158.6952c0,3.7154-2.7304,6.7281-6.0984,6.7281-3.3699,0-6.101-3.0127-6.101-6.7281,0-3.7183,2.7311-6.7322,6.101-6.7322,3.3679,0,6.0984,3.0139,6.0984,6.7322Z" style="fill:#a1a1a1; stroke-width:0px;"/><path d="m483.4765,158.6952c0,1.6094-1.1813,2.9143-2.6403,2.9143-1.4629,0-2.644-1.3049-2.644-2.9143,0-1.6109,1.1811-2.9158,2.644-2.9158,1.459,0,2.6403,1.3049,2.6403,2.9158Z" style="stroke-width:0px;"/><path d="m554.6175,158.6923c0,9.2162-6.7676,16.682-15.1181,16.682s-15.1253-7.4659-15.1253-16.682,6.771-16.6819,15.1253-16.6819,15.1181,7.4685,15.1181,16.6819Z" style="fill:#444034; stroke-width:0px;"/><path d="m550.6249,158.6923c0,6.7794-4.9825,12.276-11.1255,12.276-6.1461,0-11.1286-5.4965-11.1286-12.276s4.9825-12.2702,11.1286-12.2702c6.1429,0,11.1255,5.491,11.1255,12.2702Z" style="fill:#655d43; stroke-width:0px;"/><path d="m545.5992,158.6923c0,3.7171-2.732,6.731-6.0997,6.731-3.3704,0-6.1005-3.0139-6.1005-6.731,0-3.7196,2.7301-6.7293,6.1005-6.7293,3.3678,0,6.0997,3.0097,6.0997,6.7293Z" style="fill:#a1a1a1; stroke-width:0px;"/><path d="m542.1409,158.6923c0,1.6122-1.1838,2.9143-2.6415,2.9143-1.4622,0-2.6423-1.3021-2.6423-2.9143,0-1.608,1.1801-2.9129,2.6423-2.9129,1.4576,0,2.6415,1.3049,2.6415,2.9129Z" style="stroke-width:0px;"/><path d="m555.7085,155.5567h-25.7589l-7.7363,7.5279h-24.0188l-8.0142-7.5279h-32.3098c.2071-6.9966,5.4649-13.3302,11.8457-13.3302h74.1448c6.3957,0,11.6418,6.3337,11.8475,13.3302Z" style="fill:#0b0b0f; stroke-width:0px;"/><path d="m223.5807,94.0754v15.1182c0,1.1969-.889,2.1796-1.9772,2.1796h-26.2809c-1.0871,0-1.9766-.9826-1.9766-2.1796v-15.1182c0-1.1969.8895-2.1781,1.9766-2.1781h26.2809c1.0883,0,1.9772.9811,1.9772,2.1781Z" style="fill:#0f1321; stroke-width:0px;"/><path d="m198.91,91.8973v19.4759h-3.5874c-1.0871,0-1.9766-.9826-1.9766-2.1796v-15.1182c0-1.1969.8895-2.1781,1.9766-2.1781h3.5874Z" style="fill:#0a0d17; mix-blend-mode:multiply; stroke-width:0px;"/><path d="m275.3557,94.0754v15.1182c0,1.1969-.8858,2.1796-1.974,2.1796h-26.282c-1.0891,0-1.9767-.9826-1.9767-2.1796v-15.1182c0-1.1969.8876-2.1781,1.9767-2.1781h26.282c1.0883,0,1.974.9811,1.974,2.1781Z" style="fill:#0f1321; stroke-width:0px;"/><path d="m250.6857,91.8973v19.4759h-3.5861c-1.0891,0-1.9767-.9826-1.9767-2.1796v-15.1182c0-1.1969.8876-2.1781,1.9767-2.1781h3.5861Z" style="fill:#0a0d17; mix-blend-mode:multiply; stroke-width:0px;"/><path d="m327.1344,94.0754v15.1182c0,1.1969-.8874,2.1796-1.9752,2.1796h-26.2815c-1.0878,0-1.9779-.9826-1.9779-2.1796v-15.1182c0-1.1969.8901-2.1781,1.9779-2.1781h26.2815c1.0878,0,1.9752.9811,1.9752,2.1781Z" style="fill:#0f1321; stroke-width:0px;"/><path d="m302.4626,91.8973v19.4759h-3.5849c-1.0878,0-1.9779-.9826-1.9779-2.1796v-15.1182c0-1.1969.8901-2.1781,1.9779-2.1781h3.5849Z" style="fill:#0a0d17; mix-blend-mode:multiply; stroke-width:0px;"/><path d="m378.9113,94.0754v15.1182c0,1.1969-.8881,2.1796-1.9752,2.1796h-26.2827c-1.0891,0-1.9747-.9826-1.9747-2.1796v-15.1182c0-1.1969.8856-2.1781,1.9747-2.1781h26.2827c1.0871,0,1.9752.9811,1.9752,2.1781Z" style="fill:#0f1321; stroke-width:0px;"/><path d="m354.2401,91.8973v19.4759h-3.5868c-1.0891,0-1.9747-.9826-1.9747-2.1796v-15.1182c0-1.1969.8856-2.1781,1.9747-2.1781h3.5868Z" style="fill:#0a0d17; mix-blend-mode:multiply; stroke-width:0px;"/><path d="m430.6877,94.0754v15.1182c0,1.1969-.8864,2.1796-1.9735,2.1796h-26.2827c-1.0883,0-1.9777-.9826-1.9777-2.1796v-15.1182c0-1.1969.8895-2.1781,1.9777-2.1781h26.2827c1.0871,0,1.9735.9811,1.9735,2.1781Z" style="fill:#0f1321; stroke-width:0px;"/><path d="m406.0177,91.8973v19.4759h-3.5862c-1.0883,0-1.9777-.9826-1.9777-2.1796v-15.1182c0-1.1969.8895-2.1781,1.9777-2.1781h3.5862Z" style="fill:#0a0d17; mix-blend-mode:multiply; stroke-width:0px;"/><path d="m482.4657,94.0754v15.1182c0,1.1969-.8883,2.1796-1.9764,2.1796h-26.2817c-1.0869,0-1.9764-.9826-1.9764-2.1796v-15.1182c0-1.1969.8894-2.1781,1.9764-2.1781h26.2817c1.0881,0,1.9764.9811,1.9764,2.1781Z" style="fill:#0f1321; stroke-width:0px;"/><path d="m457.7934,91.8973v19.4759h-3.5857c-1.0869,0-1.9764-.9826-1.9764-2.1796v-15.1182c0-1.1969.8894-2.1781,1.9764-2.1781h3.5857Z" style="fill:#0a0d17; mix-blend-mode:multiply; stroke-width:0px;"/><path d="m534.2439,94.0754v15.1182c0,1.1969-.889,2.1796-1.976,2.1796h-26.2864c-1.0851,0-1.9727-.9826-1.9727-2.1796v-15.1182c0-1.1969.8876-2.1781,1.9727-2.1781h26.2864c1.0871,0,1.976.9811,1.976,2.1781Z" style="fill:#0f1321; stroke-width:0px;"/><path d="m509.5716,91.8973v19.4759h-3.5901c-1.0851,0-1.9727-.9826-1.9727-2.1796v-15.1182c0-1.1969.8876-2.1781,1.9727-2.1781h3.5901Z" style="fill:#0a0d17; mix-blend-mode:multiply; stroke-width:0px;"/><path d="m22.0597,101.8095s-13.6165,17.6187-20.3542,17.9605c2.0607-7.1681,6.0282-14.6172,11.9988-21.4215l8.3555,3.4609Z" style="fill:#c7d0c5; mix-blend-mode:multiply; stroke-width:0px;"/><path d="m95.4503,95.4509v14.1551c0,1.1359-.4045,1.7491-1.1147,1.7241-3.4939-.1189-14.3938-.4483-21.1465-.0816-.6353.0331-1.6886-.5633-1.5355-1.6329.4599-3.2118,1.41-9.8458,1.604-11.2102.5226-3.6823,5.2748-4.5694,9.6237-4.5694,2.9006,0,8.7652.2229,11.3258.328.7704.0304,1.2432.5134,1.2432,1.2869Z" style="fill:#0a0d17; stroke-width:0px;"/><path d="m592.9518,56.8704v7.2289H58.3784c4.2022-2.2056,8.5437-4.2232,13.0167-5.9793,12.6744-4.9943,55.9804-8.0303,71.0095-8.0303h443.6758c4.4594,0,6.8714,3.4845,6.8714,6.7808Z" style="fill:#fbfaff; stroke-width:0px;"/><path d="m71.3988,58.12c.0503,2.2694-.3662,4.6897-1.7787,6.7819-4.0103,5.9823-31.2698,23.7724-41.3182,28.429-3.6164,1.6745-9.7946.9646-10.6156.876,7.5701-7.2346,15.8397-14.2976,24.5151-20.2728,9.0216-6.2217,18.7333-11.6931,29.1975-15.8141Z" style="fill:#0a0d17; stroke-width:0px;"/><path d="m1159.5815,50.0896v105.4602h-557.5473c-2.8216,0-4.3063-1.7533-4.3063-4.8101V56.6753c0-3.2409,2.3167-6.5856,6.6354-6.5856h555.2182Z" style="fill:#e8e8e8; stroke-width:0px;"/><rect x="631.8462" y="120.6169" width="493.6246" height="19.5532" style="fill:#ff3f05; stroke-width:0px;"/><rect x="630.6856" y="76.5841" width="493.6211" height="19.5462" style="fill:#ff3f05; stroke-width:0px;"/><g style="mix-blend-mode:multiply;"><rect x="634.9743" y="79.086" width="487.3703" height="1.1873" style="fill:#c7d0c5; stroke-width:0px;"/><rect x="634.9743" y="82.648" width="487.3703" height="1.19" style="fill:#c7d0c5; stroke-width:0px;"/><rect x="634.9743" y="86.2043" width="487.3703" height="1.1873" style="fill:#c7d0c5; stroke-width:0px;"/><rect x="634.9743" y="89.7677" width="243.6842" height="1.1858" style="fill:#c7d0c5; stroke-width:0px;"/><rect x="634.9743" y="93.3351" width="243.6842" height="1.186" style="fill:#c7d0c5; stroke-width:0px;"/><rect x="634.9743" y="96.8859" width="243.6842" height="1.1833" style="fill:#c7d0c5; stroke-width:0px;"/><rect x="634.9743" y="100.4466" width="243.6842" height="1.1887" style="fill:#c7d0c5; stroke-width:0px;"/><rect x="634.9743" y="104.0111" width="243.6842" height="1.1887" style="fill:#c7d0c5; stroke-width:0px;"/><rect x="634.9743" y="107.5661" width="243.6842" height="1.1833" style="fill:#c7d0c5; stroke-width:0px;"/><rect x="634.9743" y="111.1296" width="243.6842" height="1.1872" style="fill:#c7d0c5; stroke-width:0px;"/><rect x="634.9743" y="121.807" width="487.3703" height="1.1915" style="fill:#c7d0c5; stroke-width:0px;"/><rect x="634.9743" y="125.3717" width="487.3703" height="1.1887" style="fill:#c7d0c5; stroke-width:0px;"/><rect x="634.9743" y="128.9267" width="487.3703" height="1.186" style="fill:#c7d0c5; stroke-width:0px;"/><rect x="634.9743" y="132.4885" width="487.3703" height="1.1873" style="fill:#c7d0c5; stroke-width:0px;"/><rect x="634.9743" y="136.0546" width="487.3703" height="1.1764" style="fill:#c7d0c5; stroke-width:0px;"/></g><rect x="630.6856" y="87.6392" width="495.9495" height="26.2122" style="fill:#2b354e; stroke-width:0px;"/><g style="mix-blend-mode:multiply;"><path d="m600.0733,134.307v-52.9583c0-3.2327,2.3811-5.8632,5.31-5.8632h20.3616c2.9282,0,5.3088,2.6305,5.3088,5.8632v52.9583c0,3.2325-2.3806,5.8632-5.3088,5.8632h-20.3616c-2.9289,0-5.31-2.6307-5.31-5.8632Zm5.31-58.0024c-2.5167,0-4.5679,2.2625-4.5679,5.0441v52.9583c0,2.7843,2.0512,5.0412,4.5679,5.0412h20.3616c2.5207,0,4.5706-2.2569,4.5706-5.0412v-52.9583c0-2.7816-2.0499-5.0441-4.5706-5.0441h-20.3616Z" style="fill:#c7d0c5; stroke-width:0px;"/></g><path d="m610.0071,103.6513c0,1.1984.8908,2.1809,1.9759,2.1809h7.1617c1.0884,0,1.9799-.9825,1.9799-2.1809v-15.3117c0-1.1984-.8915-2.1809-1.9799-2.1809h-7.1617c-1.0851,0-1.9759.9825-1.9759,2.1809v15.3117Z" style="fill:#0a0d17; stroke-width:0px;"/><rect x="630.6856" y="87.6463" width="2.3254" height="53.4828" style="fill:#a1a1a1; stroke-width:0px;"/><rect x="598.1156" y="87.6463" width="2.3261" height="53.4828" style="fill:#a1a1a1; stroke-width:0px;"/><g style="mix-blend-mode:multiply;"><path d="m1151.936,140.1702h-20.363c-2.9293,0-5.3105-2.6307-5.3105-5.8632v-52.9583c0-3.2327,2.3812-5.8632,5.3105-5.8632h20.363c2.9271,0,5.3095,2.6305,5.3095,5.8632v52.9583c0,3.2325-2.3824,5.8632-5.3095,5.8632Zm-20.363-63.8656c-2.5215,0-4.5704,2.2625-4.5704,5.0441v52.9583c0,2.7843,2.0489,5.0412,4.5704,5.0412h20.363c2.518,0,4.5694-2.2569,4.5694-5.0412v-52.9583c0-2.7816-2.0514-5.0441-4.5694-5.0441h-20.363Z" style="fill:#c7d0c5; stroke-width:0px;"/></g><path d="m1147.3093,103.6513c0,1.1984-.8881,2.1809-1.9697,2.1809h-7.1663c-1.0915,0-1.977-.9825-1.977-2.1809v-15.3117c0-1.1984.8856-2.1809,1.977-2.1809h7.1663c1.0815,0,1.9697.9825,1.9697,2.1809v15.3117Z" style="fill:#0a0d17; stroke-width:0px;"/><rect x="1124.3079" y="87.6463" width="2.3273" height="53.4828" style="fill:#a1a1a1; stroke-width:0px;"/><rect x="1156.8741" y="87.6463" width="2.3298" height="53.4828" style="fill:#a1a1a1; stroke-width:0px;"/><path d="m1062.5954,158.6923c0,9.2135-6.7708,16.682-15.124,16.682s-15.1162-7.4685-15.1162-16.682,6.7671-16.6819,15.1162-16.6819,15.124,7.4672,15.124,16.6819Z" style="fill:#444034; stroke-width:0px;"/><path d="m1058.5982,158.6923c0,6.7808-4.9832,12.276-11.1268,12.276s-11.1268-5.4952-11.1268-12.276,4.982-12.2743,11.1268-12.2743,11.1268,5.495,11.1268,12.2743Z" style="fill:#655d43; stroke-width:0px;"/><path d="m1053.5711,158.6923c0,3.7183-2.726,6.7283-6.0997,6.7283-3.3647,0-6.1009-3.01-6.1009-6.7283s2.7362-6.7293,6.1009-6.7293c3.3737,0,6.0997,3.0097,6.0997,6.7293Z" style="fill:#a1a1a1; stroke-width:0px;"/><path d="m1050.1136,158.6923c0,1.6067-1.1841,2.9171-2.6421,2.9171-1.4615,0-2.6408-1.3105-2.6408-2.9171,0-1.608,1.1793-2.9156,2.6408-2.9156,1.458,0,2.6421,1.3076,2.6421,2.9156Z" style="stroke-width:0px;"/><path d="m1121.2543,158.6897c0,9.2148-6.7696,16.6819-15.1164,16.6819-8.3555,0-15.1238-7.467-15.1238-16.6819s6.7683-16.6792,15.1238-16.6792c8.3468,0,15.1164,7.4672,15.1164,16.6792Z" style="fill:#444034; stroke-width:0px;"/><path d="m1117.2597,158.6897c0,6.7835-4.9793,12.2786-11.1217,12.2786-6.1473,0-11.1305-5.4952-11.1305-12.2786,0-6.7766,4.9832-12.2716,11.1305-12.2716,6.1424,0,11.1217,5.495,11.1217,12.2716Z" style="fill:#655d43; stroke-width:0px;"/><path d="m1112.2376,158.6897c0,3.7141-2.7325,6.731-6.0997,6.731-3.3723,0-6.1011-3.0169-6.1011-6.731,0-3.7169,2.7288-6.7266,6.1011-6.7266,3.3673,0,6.0997,3.0097,6.0997,6.7266Z" style="fill:#a1a1a1; stroke-width:0px;"/><path d="m1108.7812,158.6897c0,1.6094-1.1892,2.9198-2.6433,2.9198-1.4603,0-2.6421-1.3105-2.6421-2.9198,0-1.6053,1.1818-2.9129,2.6421-2.9129,1.4541,0,2.6433,1.3076,2.6433,2.9129Z" style="stroke-width:0px;"/><path d="m1122.3446,155.5498h-25.7577l-7.737,7.5348h-24.0175l-8.0142-7.5348h-32.3091c.2045-6.9966,5.4624-13.3247,11.8443-13.3247h74.1442c6.3983,0,11.64,6.3281,11.847,13.3247Z" style="fill:#0b0b0f; stroke-width:0px;"/><path d="m694.7214,158.6923c0,9.2135,6.7692,16.682,15.1241,16.682s15.1238-7.4685,15.1238-16.682-6.7722-16.6819-15.1238-16.6819-15.1241,7.4672-15.1241,16.6819Z" style="fill:#444034; stroke-width:0px;"/><path d="m698.7149,158.6923c0,6.7808,4.9837,12.276,11.1307,12.276s11.1254-5.4952,11.1254-12.276-4.9781-12.2743-11.1254-12.2743-11.1307,5.495-11.1307,12.2743Z" style="fill:#655d43; stroke-width:0px;"/><path d="m703.7445,158.6923c0,3.7183,2.7313,6.7283,6.1011,6.7283,3.3678,0,6.1022-3.01,6.1022-6.7283s-2.7345-6.7293-6.1022-6.7293c-3.3698,0-6.1011,3.0097-6.1011,6.7293Z" style="fill:#a1a1a1; stroke-width:0px;"/><path d="m707.2034,158.6923c0,1.6067,1.1841,2.9171,2.6421,2.9171,1.4595,0,2.6458-1.3105,2.6458-2.9171,0-1.608-1.1863-2.9156-2.6458-2.9156-1.458,0-2.6421,1.3076-2.6421,2.9156Z" style="stroke-width:0px;"/><path d="m636.0608,158.6897c0,9.2148,6.7692,16.6819,15.1182,16.6819,8.3535,0,15.1283-7.467,15.1283-16.6819s-6.7749-16.6792-15.1283-16.6792c-8.3491,0-15.1182,7.4672-15.1182,16.6792Z" style="fill:#444034; stroke-width:0px;"/><path d="m640.0585,158.6897c0,6.7835,4.98,12.2786,11.1206,12.2786,6.148,0,11.1318-5.4952,11.1318-12.2786,0-6.7766-4.9839-12.2716-11.1318-12.2716-6.1406,0-11.1206,5.495-11.1206,12.2716Z" style="fill:#655d43; stroke-width:0px;"/><path d="m645.0838,158.6897c0,3.7141,2.7306,6.731,6.0953,6.731,3.3723,0,6.1029-3.0169,6.1029-6.731,0-3.7169-2.7306-6.7266-6.1029-6.7266-3.3647,0-6.0953,3.0097-6.0953,6.7266Z" style="fill:#a1a1a1; stroke-width:0px;"/><path d="m648.537,158.6897c0,1.6094,1.1875,2.9198,2.6421,2.9198,1.4629,0,2.6465-1.3105,2.6465-2.9198,0-1.6053-1.1836-2.9129-2.6465-2.9129-1.4546,0-2.6421,1.3076-2.6421,2.9129Z" style="stroke-width:0px;"/><path d="m634.9743,155.5498h25.7566l7.7388,7.5348h24.0175l8.0116-7.5348h32.3129c-.2082-6.9966-5.4662-13.3247-11.8484-13.3247h-74.1428c-6.3944,0-11.6398,6.3281-11.8464,13.3247Z" style="fill:#0b0b0f; stroke-width:0px;"/><path d="m893.7749,94.0713v15.1181c0,.8482-.4429,1.59-1.0965,1.9402-.2635.1521-.5633.2392-.8782.2392h-26.2809c-.3187,0-.6173-.0871-.8795-.2392-.656-.3502-1.0977-1.092-1.0977-1.9402v-15.1181c0-.2602.0363-.5107.1179-.7362.276-.8429,1.0099-1.4405,1.8593-1.4405h26.2809c.8493,0,1.5782.5976,1.8593,1.4405.0763.2256.1154.476.1154.7362Z" style="fill:#0f1321; stroke-width:0px;"/><path d="m811.7683,94.074v15.1196c0,1.1969.8883,2.1767,1.9774,2.1767h26.2795c1.0952,0,1.9784-.9798,1.9784-2.1767v-15.1196c0-1.1984-.8832-2.1767-1.9784-2.1767h-26.2795c-1.0891,0-1.9774.9783-1.9774,2.1767Z" style="fill:#0f1321; stroke-width:0px;"/><path d="m817.3338,91.8973v19.473h-3.5881c-1.0891,0-1.9774-.9798-1.9774-2.1767v-15.1196c0-1.1984.8883-2.1767,1.9774-2.1767h3.5881Z" style="fill:#0a0d17; mix-blend-mode:multiply; stroke-width:0px;"/><path d="m869.1024,91.8973v19.4759h-3.5831c-1.0915,0-1.9772-.9826-1.9772-2.1796v-15.1182c0-1.1969.8858-2.1781,1.9772-2.1781h3.5831Z" style="fill:#0a0d17; mix-blend-mode:multiply; stroke-width:0px;"/><path d="m759.9921,94.074v15.1196c0,1.1969.8894,2.1767,1.9747,2.1767h26.2834c1.0877,0,1.9759-.9798,1.9759-2.1767v-15.1196c0-1.1984-.8881-2.1767-1.9759-2.1767h-26.2834c-1.0853,0-1.9747.9783-1.9747,2.1767Z" style="fill:#0f1321; stroke-width:0px;"/><path d="m765.5574,91.8973v19.473h-3.5906c-1.0853,0-1.9747-.9798-1.9747-2.1767v-15.1196c0-1.1984.8894-2.1767,1.9747-2.1767h3.5906Z" style="fill:#0a0d17; mix-blend-mode:multiply; stroke-width:0px;"/><path d="m708.217,94.074v15.1196c0,1.1969.8844,2.1767,1.9742,2.1767h26.2814c1.0864,0,1.9761-.9798,1.9761-2.1767v-15.1196c0-1.1984-.8897-2.1767-1.9761-2.1767h-26.2814c-1.0898,0-1.9742.9783-1.9742,2.1767Z" style="fill:#0f1321; stroke-width:0px;"/><path d="m713.7755,91.8973v19.473h-3.5842c-1.0898,0-1.9742-.9798-1.9742-2.1767v-15.1196c0-1.1984.8844-2.1767,1.9742-2.1767h3.5842Z" style="fill:#0a0d17; mix-blend-mode:multiply; stroke-width:0px;"/><path d="m656.4388,94.074v15.1196c0,1.1969.8883,2.1767,1.9767,2.1767h26.28c1.0884,0,1.9742-.9798,1.9742-2.1767v-15.1196c0-1.1984-.8858-2.1767-1.9742-2.1767h-26.28c-1.0884,0-1.9767.9783-1.9767,2.1767Z" style="fill:#0f1321; stroke-width:0px;"/><path d="m662.0009,91.8973v19.473h-3.5854c-1.0884,0-1.9767-.9798-1.9767-2.1767v-15.1196c0-1.1984.8883-2.1767,1.9767-2.1767h3.5854Z" style="fill:#0a0d17; mix-blend-mode:multiply; stroke-width:0px;"/><path d="m945.5499,94.074v15.1196c0,1.1969-.8895,2.1767-1.976,2.1767h-26.282c-1.0852,0-1.9797-.9798-1.9797-2.1767v-15.1196c0-1.1984.8945-2.1767,1.9797-2.1767h26.282c1.0866,0,1.976.9783,1.976,2.1767Z" style="fill:#0f1321; stroke-width:0px;"/><path d="m920.8774,91.8973v19.473h-3.5856c-1.0852,0-1.9797-.9798-1.9797-2.1767v-15.1196c0-1.1984.8945-2.1767,1.9797-2.1767h3.5856Z" style="fill:#0a0d17; mix-blend-mode:multiply; stroke-width:0px;"/><path d="m997.325,94.074v15.1196c0,1.1969-.8883,2.1767-1.9735,2.1767h-26.2857c-1.0815,0-1.9749-.9798-1.9749-2.1767v-15.1196c0-1.1984.8933-2.1767,1.9749-2.1767h26.2857c1.0852,0,1.9735.9783,1.9735,2.1767Z" style="fill:#0f1321; stroke-width:0px;"/><path d="m972.6536,91.8973v19.473h-3.5879c-1.0815,0-1.9749-.9798-1.9749-2.1767v-15.1196c0-1.1984.8933-2.1767,1.9749-2.1767h3.5879Z" style="fill:#0a0d17; mix-blend-mode:multiply; stroke-width:0px;"/><path d="m1049.1,94.074v15.1196c0,1.1969-.8858,2.1767-1.976,2.1767h-26.2795c-1.0839,0-1.9736-.9798-1.9736-2.1767v-15.1196c0-1.1984.8896-2.1767,1.9736-2.1767h26.2795c1.0903,0,1.976.9783,1.976,2.1767Z" style="fill:#0a0d17; stroke-width:0px;"/><path d="m1024.4325,91.8973v19.473h-3.5881c-1.0839,0-1.9736-.9798-1.9736-2.1767v-15.1196c0-1.1984.8896-2.1767,1.9736-2.1767h3.5881Z" style="fill:#0a0d17; mix-blend-mode:multiply; stroke-width:0px;"/><path d="m1100.8812,94.074v15.1196c0,1.1969-.8846,2.1767-1.976,2.1767h-26.2832c-1.0852,0-1.9747-.9798-1.9747-2.1767v-15.1196c0-1.1984.8895-2.1767,1.9747-2.1767h26.2832c1.0915,0,1.976.9783,1.976,2.1767Z" style="fill:#0a0d17; stroke-width:0px;"/><path d="m1076.2101,91.8973v19.473h-3.5881c-1.0852,0-1.9747-.9798-1.9747-2.1767v-15.1196c0-1.1984.8895-2.1767,1.9747-2.1767h3.5881Z" style="fill:#0a0d17; mix-blend-mode:multiply; stroke-width:0px;"/><polygon points="681.898 50.0856 722.5393 28.9714 723.3835 29.5899 688.963 50.0856 681.898 50.0856" style="fill:#f0f0f0; stroke-width:0px;"/><polygon points="699.5637 50.0856 722.5393 28.9714 723.3835 29.5899 705.0624 50.0856 699.5637 50.0856" style="fill:#f0f0f0; stroke-width:0px;"/><polygon points="723.3835 29.5899 721.207 31.1702 686.3806 3.6048 687.7895 3.6048 723.3835 29.5899" style="fill:#f0f0f0; stroke-width:0px;"/><rect x="679.9352" width="11.9096" height="8.3706" style="fill:#f0f0f0; stroke-width:0px;"/><path d="m1159.5815,50.0896v14.0096h-561.8536v-7.424c0-3.2409,2.3167-6.5856,6.6354-6.5856h555.2182Z" style="fill:#fbfaff; stroke-width:0px;"/><rect x="592.9493" y="65.4708" width="4.7825" height="64.4703" style="fill:#0b0b0f; stroke-width:0px;"/><path d="m1730.9604,56.8731v93.868c0,3.0568,1.626,4.8088,4.7135,4.8088h421.9959s0-.2478,0-.2478c0-.1356,0-.2878.0126-.4262.2126-7.0048,5.4504-12.6438,11.8501-12.6438h74.1492c6.3751,0,11.6255,5.639,11.8368,12.6438.0126.1384.0126.2907.0126.4262v.2478s41.5747.224,41.5747.224c9.6125,0,20.0745-3.119,24.5376-13.0174.7628-1.6951,1.3381-3.5577,1.7258-5.5283.9872-5.199.6247-11.2227-1.1625-17.4554-.0384-.1105-.0627-.2338-.1002-.3445-2.0877-7.0588-6.0383-14.3792-11.9004-21.0824-1.237-1.406-2.5631-2.7843-3.9878-4.1363-7.5619-7.2373-15.8371-14.2974-24.5125-20.2673-5.1613-3.5701-10.5616-6.8788-16.1739-9.8431-4.2004-2.2056-8.5506-4.2205-13.013-5.9848-12.6869-4.9914-55.9873-8.0248-71.0127-8.0248h-443.6845c-4.4488,0-6.8613,3.4858-6.8613,6.7835Z" style="fill:#e8e8e8; stroke-width:0px;"/><path d="m2193.3319,119.4282v17.7999s130.0373,0,130.0373,0c.9872-5.199.6247-11.2227-1.1625-17.4554-.0384-.1105-.0627-.2338-.1002-.3445h-128.7746Z" style="fill:#ff3f05; stroke-width:0px;"/><rect x="1765.076" y="119.4325" width="398.0156" height="20.7418" style="fill:#ff3f05; stroke-width:0px;"/><rect x="1765.076" y="76.4346" width="398.0156" height="20.7406" style="fill:#ff3f05; stroke-width:0px;"/><g style="mix-blend-mode:multiply;"><rect x="1768.1987" y="79.0887" width="389.4864" height="1.1847" style="fill:#c7d0c5; stroke-width:0px;"/><rect x="1768.1987" y="82.648" width="389.4864" height="1.1873" style="fill:#c7d0c5; stroke-width:0px;"/><rect x="1768.1987" y="86.2099" width="389.4864" height="1.186" style="fill:#c7d0c5; stroke-width:0px;"/><rect x="1768.1987" y="89.7704" width="389.4864" height="1.1831" style="fill:#c7d0c5; stroke-width:0px;"/><rect x="1768.1987" y="93.3309" width="389.4864" height="1.1873" style="fill:#c7d0c5; stroke-width:0px;"/><rect x="1768.1987" y="96.8914" width="389.4864" height="1.1847" style="fill:#c7d0c5; stroke-width:0px;"/><rect x="1768.1987" y="100.4466" width="389.4864" height="1.1887" style="fill:#c7d0c5; stroke-width:0px;"/><rect x="1768.1987" y="104.0071" width="389.4864" height="1.19" style="fill:#c7d0c5; stroke-width:0px;"/><rect x="1768.1987" y="107.5716" width="389.4864" height="1.1847" style="fill:#c7d0c5; stroke-width:0px;"/><rect x="1768.1987" y="111.1296" width="389.4864" height="1.1872" style="fill:#c7d0c5; stroke-width:0px;"/><rect x="1768.1987" y="121.8098" width="389.4864" height="1.1873" style="fill:#c7d0c5; stroke-width:0px;"/><rect x="1768.1987" y="125.3688" width="389.4864" height="1.1889" style="fill:#c7d0c5; stroke-width:0px;"/><rect x="1768.1987" y="128.9295" width="389.4864" height="1.1887" style="fill:#c7d0c5; stroke-width:0px;"/><rect x="1768.1987" y="132.4914" width="389.4864" height="1.1845" style="fill:#c7d0c5; stroke-width:0px;"/><rect x="1768.1987" y="136.0506" width="389.4864" height="1.1858" style="fill:#c7d0c5; stroke-width:0px;"/></g><rect x="1763.9131" y="87.6463" width="396.2373" height="26.2079" style="fill:#2b354e; stroke-width:0px;"/><g style="mix-blend-mode:multiply;"><path d="m2162.7222,134.3097v-52.961c0-3.2298,2.3829-5.8632,5.3112-5.8632h20.3611c2.9276,0,5.31,2.6334,5.31,5.8632v52.961c0,3.2312-2.3824,5.8646-5.31,5.8646h-20.3611c-2.9282,0-5.3112-2.6334-5.3112-5.8646Zm5.3112-58.0038c-2.5192,0-4.5704,2.2638-4.5704,5.0427v52.961c0,2.7816,2.0512,5.0427,4.5704,5.0427h20.3611c2.5187,0,4.5679-2.2612,4.5679-5.0427v-52.961c0-2.7789-2.0492-5.0427-4.5679-5.0427h-20.3611Z" style="fill:#c7d0c5; stroke-width:0px;"/></g><path d="m2172.6564,103.6513c0,1.1984.889,2.1836,1.9767,2.1836h7.1611c1.0876,0,1.9772-.9852,1.9772-2.1836v-15.3117c0-1.1971-.8896-2.1796-1.9772-2.1796h-7.1611c-1.0878,0-1.9767.9825-1.9767,2.1796v15.3117Z" style="fill:#0a0d17; stroke-width:0px;"/><rect x="2193.3357" y="87.6463" width="2.3311" height="53.4843" style="fill:#a1a1a1; stroke-width:0px;"/><rect x="2160.7632" y="87.6463" width="2.3284" height="53.4843" style="fill:#a1a1a1; stroke-width:0px;"/><g style="mix-blend-mode:multiply;"><path d="m1733.3008,134.3097v-52.961c0-3.2298,2.3799-5.8632,5.3113-5.8632h20.3611c2.9288,0,5.308,2.6334,5.308,5.8632v52.961c0,3.2312-2.3792,5.8646-5.308,5.8646h-20.3611c-2.9314,0-5.3113-2.6334-5.3113-5.8646Zm5.3113-58.0038c-2.5217,0-4.5718,2.2638-4.5718,5.0427v52.961c0,2.7816,2.0501,5.0427,4.5718,5.0427h20.3611c2.5185,0,4.5672-2.2612,4.5672-5.0427v-52.961c0-2.7789-2.0487-5.0427-4.5672-5.0427h-20.3611Z" style="fill:#c7d0c5; stroke-width:0px;"/></g><path d="m1743.2334,103.6513c0,1.1984.89,2.1836,1.9747,2.1836h7.1636c1.0864,0,1.9772-.9852,1.9772-2.1836v-15.3117c0-1.1971-.8908-2.1796-1.9772-2.1796h-7.1636c-1.0847,0-1.9747.9825-1.9747,2.1796v15.3117Z" style="fill:#0a0d17; stroke-width:0px;"/><rect x="1763.9131" y="87.6463" width="2.3247" height="53.4843" style="fill:#a1a1a1; stroke-width:0px;"/><rect x="1731.3438" y="87.6463" width="2.3234" height="53.4843" style="fill:#a1a1a1; stroke-width:0px;"/><path d="m2299.7048,107.8222l-4.9048,11.1147s-36.224-4.547-48.2069-4.547c-11.9838,0-50.9308,0-50.9308,0v-26.7436s27.2356,0,39.2205,0c25.6003,0,46.1081,7.1722,64.822,20.1759Z" style="fill:#2b354e; stroke-width:0px;"/><path d="m2217.4341,158.6952c0,9.2133,6.7717,16.6792,15.1228,16.6792s15.125-7.4659,15.125-16.6792-6.7708-16.6832-15.125-16.6832-15.1228,7.4712-15.1228,16.6832Z" style="fill:#444034; stroke-width:0px;"/><path d="m2221.4318,158.6952c0,6.7766,4.9815,12.2744,11.1251,12.2744,6.1473,0,11.1273-5.4979,11.1273-12.2744s-4.98-12.2731-11.1273-12.2731c-6.1436,0-11.1251,5.4952-11.1251,12.2731Z" style="fill:#655d43; stroke-width:0px;"/><path d="m2226.4577,158.6952c0,3.7154,2.7313,6.7281,6.0992,6.7281s6.1022-3.0127,6.1022-6.7281-2.735-6.7322-6.1022-6.7322-6.0992,3.0139-6.0992,6.7322Z" style="fill:#a1a1a1; stroke-width:0px;"/><path d="m2229.9152,158.6952c0,1.6094,1.1831,2.9143,2.6416,2.9143,1.4629,0,2.644-1.3049,2.644-2.9143s-1.1811-2.9158-2.644-2.9158c-1.4585,0-2.6416,1.3049-2.6416,2.9158Z" style="stroke-width:0px;"/><path d="m2158.774,158.6923c0,9.2162,6.7697,16.682,15.1208,16.682s15.1233-7.4659,15.1233-16.682c0-9.2133-6.7703-16.6819-15.1233-16.6819s-15.1208,7.4685-15.1208,16.6819Z" style="fill:#444034; stroke-width:0px;"/><path d="m2162.7685,158.6923c0,6.7794,4.982,12.276,11.1263,12.276s11.1281-5.4965,11.1281-12.276-4.9832-12.2702-11.1281-12.2702-11.1263,5.491-11.1263,12.2702Z" style="fill:#655d43; stroke-width:0px;"/><path d="m2167.7944,158.6923c0,3.7171,2.7331,6.731,6.1004,6.731s6.0992-3.0139,6.0992-6.731-2.732-6.7293-6.0992-6.7293-6.1004,3.0097-6.1004,6.7293Z" style="fill:#a1a1a1; stroke-width:0px;"/><path d="m2171.2515,158.6923c0,1.6122,1.1848,2.9143,2.6433,2.9143,1.4617,0,2.6421-1.3021,2.6421-2.9143s-1.1804-2.9129-2.6421-2.9129c-1.4585,0-2.6433,1.3049-2.6433,2.9129Z" style="stroke-width:0px;"/><path d="m2157.675,155.5567h25.7589s7.7464,7.5279,7.7464,7.5279h24.0189s8.0041-7.5279,8.0041-7.5279h32.3086c0-8.033-5.4538-13.3302-11.8364-13.3302h-74.1453c-6.3926,0-11.8551,5.1768-11.8551,13.3302Z" style="fill:#0b0b0f; stroke-width:0px;"/><path d="m1827.9502,158.6952c0,9.2133,6.768,16.6792,15.1208,16.6792,8.3524,0,15.1233-7.4659,15.1233-16.6792s-6.7708-16.6832-15.1233-16.6832c-8.3528,0-15.1208,7.4712-15.1208,16.6832Z" style="fill:#444034; stroke-width:0px;"/><path d="m1831.9449,158.6952c0,6.7766,4.9818,12.2744,11.1261,12.2744,6.1468,0,11.1275-5.4979,11.1275-12.2744s-4.9807-12.2731-11.1275-12.2731c-6.1443,0-11.1261,5.4952-11.1261,12.2731Z" style="fill:#655d43; stroke-width:0px;"/><path d="m1836.9726,158.6952c0,3.7154,2.7304,6.7281,6.0984,6.7281,3.3699,0,6.101-3.0127,6.101-6.7281s-2.7311-6.7322-6.101-6.7322c-3.3679,0-6.0984,3.0139-6.0984,6.7322Z" style="fill:#a1a1a1; stroke-width:0px;"/><path d="m1840.4307,158.6952c0,1.6094,1.1813,2.9143,2.6403,2.9143,1.4629,0,2.644-1.3049,2.644-2.9143s-1.1811-2.9158-2.644-2.9158c-1.459,0-2.6403,1.3049-2.6403,2.9158Z" style="stroke-width:0px;"/><path d="m1769.2897,158.6923c0,9.2162,6.7676,16.682,15.1181,16.682,8.3543,0,15.1253-7.4659,15.1253-16.682,0-9.2133-6.771-16.6819-15.1253-16.6819-8.3504,0-15.1181,7.4685-15.1181,16.6819Z" style="fill:#444034; stroke-width:0px;"/><path d="m1773.2823,158.6923c0,6.7794,4.9825,12.276,11.1255,12.276,6.1461,0,11.1286-5.4965,11.1286-12.276s-4.9825-12.2702-11.1286-12.2702c-6.1429,0-11.1255,5.491-11.1255,12.2702Z" style="fill:#655d43; stroke-width:0px;"/><path d="m1778.308,158.6923c0,3.7171,2.732,6.731,6.0997,6.731,3.3704,0,6.1005-3.0139,6.1005-6.731s-2.7301-6.7293-6.1005-6.7293c-3.3678,0-6.0997,3.0097-6.0997,6.7293Z" style="fill:#a1a1a1; stroke-width:0px;"/><path d="m1781.7663,158.6923c0,1.6122,1.1838,2.9143,2.6415,2.9143,1.4622,0,2.6423-1.3021,2.6423-2.9143s-1.1801-2.9129-2.6423-2.9129c-1.4576,0-2.6415,1.3049-2.6415,2.9129Z" style="stroke-width:0px;"/><path d="m1768.1987,155.5567h25.7589s7.7363,7.5279,7.7363,7.5279h24.0188s8.0142-7.5279,8.0142-7.5279h32.3098c-.2071-6.9966-5.4649-13.3302-11.8457-13.3302h-74.1448c-6.3957,0-11.6418,6.3337-11.8475,13.3302Z" style="fill:#0b0b0f; stroke-width:0px;"/><path d="m2100.3265,94.0754v15.1182c0,1.1969.889,2.1796,1.9772,2.1796h26.2809c1.0871,0,1.9766-.9826,1.9766-2.1796v-15.1182c0-1.1969-.8895-2.1781-1.9766-2.1781h-26.2809c-1.0883,0-1.9772.9811-1.9772,2.1781Z" style="fill:#0f1321; stroke-width:0px;"/><path d="m2124.9972,91.8973v19.4759s3.5874,0,3.5874,0c1.0871,0,1.9766-.9826,1.9766-2.1796v-15.1182c0-1.1969-.8895-2.1781-1.9766-2.1781h-3.5874Z" style="fill:#0a0d17; mix-blend-mode:multiply; stroke-width:0px;"/><path d="m2048.5515,94.0754v15.1182c0,1.1969.8858,2.1796,1.974,2.1796h26.282c1.0891,0,1.9767-.9826,1.9767-2.1796v-15.1182c0-1.1969-.8876-2.1781-1.9767-2.1781h-26.282c-1.0883,0-1.974.9811-1.974,2.1781Z" style="fill:#0f1321; stroke-width:0px;"/><path d="m2073.2215,91.8973v19.4759s3.5861,0,3.5861,0c1.0891,0,1.9767-.9826,1.9767-2.1796v-15.1182c0-1.1969-.8876-2.1781-1.9767-2.1781h-3.5861Z" style="fill:#0a0d17; mix-blend-mode:multiply; stroke-width:0px;"/><path d="m1996.7728,94.0754v15.1182c0,1.1969.8874,2.1796,1.9752,2.1796h26.2815c1.0878,0,1.9779-.9826,1.9779-2.1796v-15.1182c0-1.1969-.8901-2.1781-1.9779-2.1781h-26.2815c-1.0878,0-1.9752.9811-1.9752,2.1781Z" style="fill:#0f1321; stroke-width:0px;"/><path d="m2021.4446,91.8973v19.4759s3.5849,0,3.5849,0c1.0878,0,1.9779-.9826,1.9779-2.1796v-15.1182c0-1.1969-.8901-2.1781-1.9779-2.1781h-3.5849Z" style="fill:#0a0d17; mix-blend-mode:multiply; stroke-width:0px;"/><path d="m1944.9959,94.0754v15.1182c0,1.1969.8881,2.1796,1.9752,2.1796h26.2827c1.0891,0,1.9747-.9826,1.9747-2.1796v-15.1182c0-1.1969-.8856-2.1781-1.9747-2.1781h-26.2827c-1.0871,0-1.9752.9811-1.9752,2.1781Z" style="fill:#0f1321; stroke-width:0px;"/><path d="m1969.667,91.8973v19.4759s3.5868,0,3.5868,0c1.0891,0,1.9747-.9826,1.9747-2.1796v-15.1182c0-1.1969-.8856-2.1781-1.9747-2.1781h-3.5868Z" style="fill:#0a0d17; mix-blend-mode:multiply; stroke-width:0px;"/><path d="m1893.2195,94.0754v15.1182c0,1.1969.8864,2.1796,1.9735,2.1796h26.2827c1.0883,0,1.9777-.9826,1.9777-2.1796v-15.1182c0-1.1969-.8895-2.1781-1.9777-2.1781h-26.2827c-1.0871,0-1.9735.9811-1.9735,2.1781Z" style="fill:#0f1321; stroke-width:0px;"/><path d="m1917.8895,91.8973v19.4759s3.5862,0,3.5862,0c1.0883,0,1.9777-.9826,1.9777-2.1796v-15.1182c0-1.1969-.8895-2.1781-1.9777-2.1781h-3.5862Z" style="fill:#0a0d17; mix-blend-mode:multiply; stroke-width:0px;"/><path d="m1841.4414,94.0754v15.1182c0,1.1969.8883,2.1796,1.9764,2.1796h26.2817c1.0869,0,1.9764-.9826,1.9764-2.1796v-15.1182c0-1.1969-.8894-2.1781-1.9764-2.1781h-26.2817c-1.0881,0-1.9764.9811-1.9764,2.1781Z" style="fill:#0f1321; stroke-width:0px;"/><path d="m1866.1138,91.8973v19.4759s3.5857,0,3.5857,0c1.0869,0,1.9764-.9826,1.9764-2.1796v-15.1182c0-1.1969-.8894-2.1781-1.9764-2.1781h-3.5857Z" style="fill:#0a0d17; mix-blend-mode:multiply; stroke-width:0px;"/><path d="m1789.6632,94.0754v15.1182c0,1.1969.889,2.1796,1.976,2.1796h26.2864c1.0851,0,1.9727-.9826,1.9727-2.1796v-15.1182c0-1.1969-.8876-2.1781-1.9727-2.1781h-26.2864c-1.0871,0-1.976.9811-1.976,2.1781Z" style="fill:#0f1321; stroke-width:0px;"/><path d="m1814.3355,91.8973v19.4759s3.5901,0,3.5901,0c1.0851,0,1.9727-.9826,1.9727-2.1796v-15.1182c0-1.1969-.8876-2.1781-1.9727-2.1781h-3.5901Z" style="fill:#0a0d17; mix-blend-mode:multiply; stroke-width:0px;"/><path d="m2301.8475,101.8095s13.6165,17.6187,20.3542,17.9605c-2.0607-7.1681-6.0282-14.6172-11.9988-21.4215l-8.3555,3.4609Z" style="fill:#c7d0c5; mix-blend-mode:multiply; stroke-width:0px;"/><path d="m2228.4569,95.4509v14.1551c0,1.1359.4045,1.7491,1.1147,1.7241,3.4939-.1189,14.3938-.4483,21.1465-.0816.6353.0331,1.6886-.5633,1.5355-1.6329-.4599-3.2118-1.41-9.8458-1.604-11.2102-.5226-3.6823-5.2748-4.5694-9.6237-4.5694-2.9006,0-8.7652.2229-11.3258.328-.7704.0304-1.2432.5134-1.2432,1.2869Z" style="fill:#0a0d17; stroke-width:0px;"/><path d="m1730.9554,56.8704v7.2289s534.5734,0,534.5734,0c-4.2022-2.2056-8.5437-4.2232-13.0167-5.9793-12.6744-4.9943-55.9804-8.0303-71.0095-8.0303h-443.6758c-4.4594,0-6.8714,3.4845-6.8714,6.7808Z" style="fill:#fbfaff; stroke-width:0px;"/><path d="m2252.5084,58.12c-.0503,2.2694.3662,4.6897,1.7787,6.7819,4.0103,5.9823,31.2698,23.7724,41.3182,28.429,3.6164,1.6745,9.7946.9646,10.6156.876-7.5701-7.2346-15.8397-14.2976-24.5151-20.2728-9.0216-6.2217-18.7333-11.6931-29.1975-15.8141Z" style="fill:#0a0d17; stroke-width:0px;"/><rect x="1726.1754" y="65.4708" width="4.7825" height="64.4703" style="fill:#0b0b0f; stroke-width:0px;"/><path d="m1726.2151,50.0896v105.4602h-557.5493c-2.8189,0-4.3068-1.7533-4.3068-4.8101V56.6753c0-3.2409,2.316-6.5856,6.6366-6.5856h555.2196Z" style="fill:#e8e8e8; stroke-width:0px;"/><rect x="1198.4796" y="120.6169" width="493.6223" height="19.5532" style="fill:#ff3f05; stroke-width:0px;"/><rect x="1197.3166" y="76.5841" width="493.621" height="19.5462" style="fill:#ff3f05; stroke-width:0px;"/><g style="mix-blend-mode:multiply;"><rect x="1201.6046" y="79.086" width="487.3734" height="1.1873" style="fill:#c7d0c5; stroke-width:0px;"/><rect x="1201.6046" y="82.648" width="487.3734" height="1.19" style="fill:#c7d0c5; stroke-width:0px;"/><rect x="1201.6046" y="86.2043" width="487.3734" height="1.1873" style="fill:#c7d0c5; stroke-width:0px;"/><rect x="1201.6046" y="89.7677" width="243.6811" height="1.1858" style="fill:#c7d0c5; stroke-width:0px;"/><rect x="1201.6046" y="93.3351" width="243.6811" height="1.186" style="fill:#c7d0c5; stroke-width:0px;"/><rect x="1201.6046" y="96.8859" width="243.6811" height="1.1833" style="fill:#c7d0c5; stroke-width:0px;"/><rect x="1201.6046" y="100.4466" width="243.6811" height="1.1887" style="fill:#c7d0c5; stroke-width:0px;"/><rect x="1201.6046" y="104.0111" width="243.6811" height="1.1887" style="fill:#c7d0c5; stroke-width:0px;"/><rect x="1201.6046" y="107.5661" width="243.6811" height="1.1833" style="fill:#c7d0c5; stroke-width:0px;"/><rect x="1201.6046" y="111.1296" width="243.6811" height="1.1872" style="fill:#c7d0c5; stroke-width:0px;"/><rect x="1201.6046" y="121.807" width="487.3734" height="1.1915" style="fill:#c7d0c5; stroke-width:0px;"/><rect x="1201.6046" y="125.3717" width="487.3734" height="1.1887" style="fill:#c7d0c5; stroke-width:0px;"/><rect x="1201.6046" y="128.9267" width="487.3734" height="1.186" style="fill:#c7d0c5; stroke-width:0px;"/><rect x="1201.6046" y="132.4885" width="487.3734" height="1.1873" style="fill:#c7d0c5; stroke-width:0px;"/><rect x="1201.6046" y="136.0546" width="487.3734" height="1.1764" style="fill:#c7d0c5; stroke-width:0px;"/></g><rect x="1197.3166" y="87.6392" width="495.9496" height="26.2122" style="fill:#2b354e; stroke-width:0px;"/><g style="mix-blend-mode:multiply;"><path d="m1166.7049,134.307v-52.9583c0-3.2327,2.3837-5.8632,5.312-5.8632h20.3591c2.9307,0,5.3095,2.6305,5.3095,5.8632v52.9583c0,3.2325-2.3787,5.8632-5.3095,5.8632h-20.3591c-2.9282,0-5.312-2.6307-5.312-5.8632Zm5.312-58.0024c-2.5205,0-4.5692,2.2625-4.5692,5.0441v52.9583c0,2.7843,2.0487,5.0412,4.5692,5.0412h20.3591c2.5205,0,4.5729-2.2569,4.5729-5.0412v-52.9583c0-2.7816-2.0524-5.0441-4.5729-5.0441h-20.3591Z" style="fill:#c7d0c5; stroke-width:0px;"/></g><path d="m1176.6386,103.6513c0,1.1984.8921,2.1809,1.976,2.1809h7.1649c1.0864,0,1.9771-.9825,1.9771-2.1809v-15.3117c0-1.1984-.8906-2.1809-1.9771-2.1809h-7.1649c-1.0839,0-1.976.9825-1.976,2.1809v15.3117Z" style="fill:#0a0d17; stroke-width:0px;"/><rect x="1197.3166" y="87.6463" width="2.3284" height="53.4828" style="fill:#a1a1a1; stroke-width:0px;"/><rect x="1164.7479" y="87.6463" width="2.3273" height="53.4828" style="fill:#a1a1a1; stroke-width:0px;"/><g style="mix-blend-mode:multiply;"><path d="m1718.5671,140.1702h-20.3605c-2.9306,0-5.3093-2.6307-5.3093-5.8632v-52.9583c0-3.2327,2.3787-5.8632,5.3093-5.8632h20.3605c2.9257,0,5.3056,2.6305,5.3056,5.8632v52.9583c0,3.2325-2.3799,5.8632-5.3056,5.8632Zm-20.3605-63.8656c-2.5204,0-4.5718,2.2625-4.5718,5.0441v52.9583c0,2.7843,2.0514,5.0412,4.5718,5.0412h20.3605c2.5193,0,4.5692-2.2569,4.5692-5.0412v-52.9583c0-2.7816-2.0499-5.0441-4.5692-5.0441h-20.3605Z" style="fill:#c7d0c5; stroke-width:0px;"/></g><path d="m1713.9404,103.6513c0,1.1984-.8871,2.1809-1.9685,2.1809h-7.1675c-1.0839,0-1.9771-.9825-1.9771-2.1809v-15.3117c0-1.1984.8932-2.1809,1.9771-2.1809h7.1675c1.0814,0,1.9685.9825,1.9685,2.1809v15.3117Z" style="fill:#0a0d17; stroke-width:0px;"/><rect x="1690.9415" y="87.6463" width="2.3247" height="53.4828" style="fill:#a1a1a1; stroke-width:0px;"/><rect x="1723.5064" y="87.6463" width="2.3273" height="53.4828" style="fill:#a1a1a1; stroke-width:0px;"/><path d="m1629.2252,158.6923c0,9.2135-6.7697,16.682-15.1226,16.682s-15.1187-7.4685-15.1187-16.682,6.7695-16.6819,15.1187-16.6819,15.1226,7.4672,15.1226,16.6819Z" style="fill:#444034; stroke-width:0px;"/><path d="m1625.2268,158.6923c0,6.7808-4.9744,12.276-11.1243,12.276-6.1436,0-11.1244-5.4952-11.1244-12.276s4.9808-12.2743,11.1244-12.2743c6.1498,0,11.1243,5.495,11.1243,12.2743Z" style="fill:#655d43; stroke-width:0px;"/><path d="m1620.2048,158.6923c0,3.7183-2.7299,6.7283-6.1022,6.7283-3.3661,0-6.0985-3.01-6.0985-6.7283s2.7325-6.7293,6.0985-6.7293c3.3723,0,6.1022,3.0097,6.1022,6.7293Z" style="fill:#a1a1a1; stroke-width:0px;"/><path d="m1616.7484,158.6923c0,1.6067-1.1867,2.9171-2.6458,2.9171-1.4629,0-2.6396-1.3105-2.6396-2.9171,0-1.608,1.1767-2.9156,2.6396-2.9156,1.4592,0,2.6458,1.3076,2.6458,2.9156Z" style="stroke-width:0px;"/><path d="m1687.8866,158.6897c0,9.2148-6.7685,16.6819-15.115,16.6819-8.3568,0-15.1277-7.467-15.1277-16.6819s6.7708-16.6792,15.1277-16.6792c8.3466,0,15.115,7.4672,15.115,16.6792Z" style="fill:#444034; stroke-width:0px;"/><path d="m1683.8933,158.6897c0,6.7835-4.9807,12.2786-11.1217,12.2786-6.1512,0-11.132-5.4952-11.132-12.2786,0-6.7766,4.9808-12.2716,11.132-12.2716,6.1411,0,11.1217,5.495,11.1217,12.2716Z" style="fill:#655d43; stroke-width:0px;"/><path d="m1678.8674,158.6897c0,3.7141-2.7274,6.731-6.0958,6.731-3.3736,0-6.1022-3.0169-6.1022-6.731,0-3.7169,2.7286-6.7266,6.1022-6.7266,3.3684,0,6.0958,3.0097,6.0958,6.7266Z" style="fill:#a1a1a1; stroke-width:0px;"/><path d="m1675.4098,158.6897c0,1.6094-1.1843,2.9198-2.6383,2.9198-1.4629,0-2.6435-1.3105-2.6435-2.9198,0-1.6053,1.1806-2.9129,2.6435-2.9129,1.4539,0,2.6383,1.3076,2.6383,2.9129Z" style="stroke-width:0px;"/><path d="m1688.9781,155.5498h-25.7601l-7.7358,7.5348h-24.0187l-8.0118-7.5348h-32.3116c.2071-6.9966,5.4651-13.3247,11.8457-13.3247h74.1453c6.3971,0,11.6375,6.3281,11.847,13.3247Z" style="fill:#0b0b0f; stroke-width:0px;"/><path d="m1261.3538,158.6923c0,9.2135,6.7685,16.682,15.1226,16.682s15.124-7.4685,15.124-16.682-6.771-16.6819-15.124-16.6819-15.1226,7.4672-15.1226,16.6819Z" style="fill:#444034; stroke-width:0px;"/><path d="m1265.3483,158.6923c0,6.7808,4.982,12.276,11.1281,12.276s11.1307-5.4952,11.1307-12.276-4.9832-12.2743-11.1307-12.2743-11.1281,5.495-11.1281,12.2743Z" style="fill:#655d43; stroke-width:0px;"/><path d="m1270.3768,158.6923c0,3.7183,2.7324,6.7283,6.0997,6.7283s6.1009-3.01,6.1009-6.7283-2.7323-6.7293-6.1009-6.7293-6.0997,3.0097-6.0997,6.7293Z" style="fill:#a1a1a1; stroke-width:0px;"/><path d="m1273.8343,158.6923c0,1.6067,1.1832,2.9171,2.6421,2.9171,1.4603,0,2.6433-1.3105,2.6433-2.9171,0-1.608-1.183-2.9156-2.6433-2.9156-1.459,0-2.6421,1.3076-2.6421,2.9156Z" style="stroke-width:0px;"/><path d="m1202.6949,158.6897c0,9.2148,6.766,16.6819,15.1177,16.6819s15.1238-7.467,15.1238-16.6819-6.7684-16.6792-15.1238-16.6792-15.1177,7.4672-15.1177,16.6792Z" style="fill:#444034; stroke-width:0px;"/><path d="m1206.6908,158.6897c0,6.7835,4.9807,12.2786,11.1219,12.2786s11.1305-5.4952,11.1305-12.2786c0-6.7766-4.9869-12.2716-11.1305-12.2716s-11.1219,5.495-11.1219,12.2716Z" style="fill:#655d43; stroke-width:0px;"/><path d="m1211.7165,158.6897c0,3.7141,2.7313,6.731,6.0962,6.731,3.371,0,6.1009-3.0169,6.1009-6.731,0-3.7169-2.7299-6.7266-6.1009-6.7266-3.3649,0-6.0962,3.0097-6.0962,6.7266Z" style="fill:#a1a1a1; stroke-width:0px;"/><path d="m1215.1717,158.6897c0,1.6094,1.1843,2.9198,2.641,2.9198,1.4603,0,2.6458-1.3105,2.6458-2.9198,0-1.6053-1.1855-2.9129-2.6458-2.9129-1.4566,0-2.641,1.3076-2.641,2.9129Z" style="stroke-width:0px;"/><path d="m1201.6046,155.5498h25.7589l7.7358,7.5348h24.02l8.0105-7.5348h32.3116c-.2071-6.9966-5.4625-13.3247-11.8457-13.3247h-74.1455c-6.3932,0-11.6386,6.3281-11.8457,13.3247Z" style="fill:#0b0b0f; stroke-width:0px;"/><path d="m1460.4058,94.0713v15.1181c0,.8482-.4415,1.59-1.0952,1.9402-.2648.1521-.5647.2392-.8757.2392h-26.2834c-.3186,0-.616-.0871-.8821-.2392-.6523-.3502-1.0963-1.092-1.0963-1.9402v-15.1181c0-.2602.0375-.5107.1216-.7362.2748-.8429,1.005-1.4405,1.8568-1.4405h26.2834c.843,0,1.5771.5976,1.8566,1.4405.0754.2256.1142.476.1142.7362Z" style="fill:#0f1321; stroke-width:0px;"/><path d="m1378.4007,94.074v15.1196c0,1.1969.8869,2.1767,1.9784,2.1767h26.2784c1.0926,0,1.9786-.9798,1.9786-2.1767v-15.1196c0-1.1984-.8859-2.1767-1.9786-2.1767h-26.2784c-1.0915,0-1.9784.9783-1.9784,2.1767Z" style="fill:#0f1321; stroke-width:0px;"/><path d="m1383.9635,91.8973v19.473h-3.5844c-1.0915,0-1.9784-.9798-1.9784-2.1767v-15.1196c0-1.1984.8869-2.1767,1.9784-2.1767h3.5844Z" style="fill:#0a0d17; mix-blend-mode:multiply; stroke-width:0px;"/><path d="m1435.736,91.8973v19.4759h-3.5844c-1.0903,0-1.9784-.9826-1.9784-2.1796v-15.1182c0-1.1969.8881-2.1781,1.9784-2.1781h3.5844Z" style="fill:#0a0d17; mix-blend-mode:multiply; stroke-width:0px;"/><path d="m1326.6268,94.074v15.1196c0,1.1969.8858,2.1767,1.971,2.1767h26.2846c1.0864,0,1.9722-.9798,1.9722-2.1767v-15.1196c0-1.1984-.8858-2.1767-1.9722-2.1767h-26.2846c-1.0852,0-1.971.9783-1.971,2.1767Z" style="fill:#0f1321; stroke-width:0px;"/><path d="m1332.1883,91.8973v19.473h-3.5905c-1.0852,0-1.971-.9798-1.971-2.1767v-15.1196c0-1.1984.8858-2.1767,1.971-2.1767h3.5905Z" style="fill:#0a0d17; mix-blend-mode:multiply; stroke-width:0px;"/><path d="m1274.8479,94.074v15.1196c0,1.1969.8871,2.1767,1.9761,2.1767h26.2796c1.0878,0,1.9784-.9798,1.9784-2.1767v-15.1196c0-1.1984-.8907-2.1767-1.9784-2.1767h-26.2796c-1.089,0-1.9761.9783-1.9761,2.1767Z" style="fill:#0f1321; stroke-width:0px;"/><path d="m1280.4109,91.8973v19.473h-3.5869c-1.089,0-1.9761-.9798-1.9761-2.1767v-15.1196c0-1.1984.8871-2.1767,1.9761-2.1767h3.5869Z" style="fill:#0a0d17; mix-blend-mode:multiply; stroke-width:0px;"/><path d="m1223.0705,94.074v15.1196c0,1.1969.8858,2.1767,1.9773,2.1767h26.2807c1.0878,0,1.9747-.9798,1.9747-2.1767v-15.1196c0-1.1984-.8869-2.1767-1.9747-2.1767h-26.2807c-1.0915,0-1.9773.9783-1.9773,2.1767Z" style="fill:#0f1321; stroke-width:0px;"/><path d="m1228.6333,91.8973v19.473h-3.5855c-1.0915,0-1.9773-.9798-1.9773-2.1767v-15.1196c0-1.1984.8858-2.1767,1.9773-2.1767h3.5855Z" style="fill:#0a0d17; mix-blend-mode:multiply; stroke-width:0px;"/><path d="m1512.1847,94.074v15.1196c0,1.1969-.8945,2.1767-1.9823,2.1767h-26.2809c-1.0851,0-1.9759-.9798-1.9759-2.1767v-15.1196c0-1.1984.8908-2.1767,1.9759-2.1767h26.2809c1.0878,0,1.9823.9783,1.9823,2.1767Z" style="fill:#0f1321; stroke-width:0px;"/><path d="m1487.5085,91.8973v19.473h-3.5869c-1.0851,0-1.9759-.9798-1.9759-2.1767v-15.1196c0-1.1984.8908-2.1767,1.9759-2.1767h3.5869Z" style="fill:#0a0d17; mix-blend-mode:multiply; stroke-width:0px;"/><path d="m1563.9598,94.074v15.1196c0,1.1969-.8933,2.1767-1.9786,2.1767h-26.2857c-1.0815,0-1.9735-.9798-1.9735-2.1767v-15.1196c0-1.1984.892-2.1767,1.9735-2.1767h26.2857c1.0852,0,1.9786.9783,1.9786,2.1767Z" style="fill:#0f1321; stroke-width:0px;"/><path d="m1539.2873,91.8973v19.473h-3.5918c-1.0815,0-1.9735-.9798-1.9735-2.1767v-15.1196c0-1.1984.892-2.1767,1.9735-2.1767h3.5918Z" style="fill:#0a0d17; mix-blend-mode:multiply; stroke-width:0px;"/><path d="m1615.7323,94.074v15.1196c0,1.1969-.8846,2.1767-1.9772,2.1767h-26.2797c-1.0826,0-1.9759-.9798-1.9759-2.1767v-15.1196c0-1.1984.8933-2.1767,1.9759-2.1767h26.2797c1.0926,0,1.9772.9783,1.9772,2.1767Z" style="fill:#0a0d17; stroke-width:0px;"/><path d="m1591.0648,91.8973v19.473h-3.5894c-1.0826,0-1.9759-.9798-1.9759-2.1767v-15.1196c0-1.1984.8933-2.1767,1.9759-2.1767h3.5894Z" style="fill:#0a0d17; mix-blend-mode:multiply; stroke-width:0px;"/><path d="m1667.5122,94.074v15.1196c0,1.1969-.8842,2.1767-1.9759,2.1767h-26.2795c-1.0891,0-1.9772-.9798-1.9772-2.1767v-15.1196c0-1.1984.8881-2.1767,1.9772-2.1767h26.2795c1.0916,0,1.9759.9783,1.9759,2.1767Z" style="fill:#0a0d17; stroke-width:0px;"/><path d="m1642.841,91.8973v19.473h-3.5842c-1.0891,0-1.9772-.9798-1.9772-2.1767v-15.1196c0-1.1984.8881-2.1767,1.9772-2.1767h3.5842Z" style="fill:#0a0d17; mix-blend-mode:multiply; stroke-width:0px;"/><polygon points="1248.5309 50.0856 1289.1727 28.9714 1290.0146 29.5899 1255.5954 50.0856 1248.5309 50.0856" style="fill:#f0f0f0; stroke-width:0px;"/><polygon points="1266.1953 50.0856 1289.1727 28.9714 1290.0146 29.5899 1271.6965 50.0856 1266.1953 50.0856" style="fill:#f0f0f0; stroke-width:0px;"/><polygon points="1290.0146 29.5899 1287.8391 31.1702 1253.0122 3.6048 1254.4173 3.6048 1290.0146 29.5899" style="fill:#f0f0f0; stroke-width:0px;"/><rect x="1246.5686" width="11.9084" height="8.3706" style="fill:#f0f0f0; stroke-width:0px;"/><path d="m1726.2151,50.0896v14.0096h-561.8562v-7.424c0-3.2409,2.316-6.5856,6.6366-6.5856h555.2196Z" style="fill:#fbfaff; stroke-width:0px;"/><rect x="1159.5815" y="65.4306" width="4.7825" height="64.4717" style="fill:#0b0b0f; stroke-width:0px;"/></g></g></g></svg>