<?xml version="1.0" encoding="UTF-8"?><svg id="b" xmlns="http://www.w3.org/2000/svg" width="49.77" height="32.31" viewBox="0 0 49.77 32.31"><g id="c"><g id="d"><rect x="13.85" y="3.81" width="22.06" height="2.71" style="fill:#92a2ab; stroke-width:0px;"/><path d="M14.64,7.6h20.48c.12-.17.26-.34.38-.51.14-.19.27-.36.41-.57H13.85c.14.21.27.38.41.57.12.17.26.34.38.51h0Z" style="fill:#6b777e; fill-rule:evenodd; stroke-width:0px;"/><rect x="14.64" y="7.6" width="20.41" height="13.32" style="fill:#92a2ab; stroke-width:0px;"/><rect x="4.09" y="15.43" width="41.6" height="1.37" style="fill:#40484c; stroke-width:0px;"/><rect y="23.18" width="49.77" height="1.37" style="fill:#40484c; stroke-width:0px;"/><path d="M4.67,17.87h40.43c.03-.09.09-.17.14-.26s.1-.17.14-.27c.05-.09.1-.17.15-.26.05-.1.1-.19.15-.27H4.09c.05.09.09.17.14.27.05.09.1.17.15.26.05.1.1.19.14.27.05.09.1.17.15.26h0Z" style="fill:#6b777e; fill-rule:evenodd; stroke-width:0px;"/><path d="M.69,25.61h48.39c.05-.09.1-.17.17-.26.05-.09.1-.17.15-.27.07-.09.12-.17.19-.26.05-.1.12-.19.17-.27H0c.05.09.1.17.15.27.07.09.12.17.19.26.05.1.1.19.15.27.05.09.12.17.19.26h0Z" style="fill:#6b777e; fill-rule:evenodd; stroke-width:0px;"/><rect x="4.63" y="17.87" width="40.5" height="5.3" style="fill:#92a2ab; stroke-width:0px;"/><rect x=".65" y="25.61" width="48.46" height="6.69" style="fill:#92a2ab; stroke-width:0px;"/><polygon points="24.12 0 25.6 0 28.27 2.7 28.27 21.41 21.44 21.41 21.44 2.7 24.12 0" style="fill:#40484c; fill-rule:evenodd; stroke-width:0px;"/><path d="M24.86,1.3c1.13,0,2.06.93,2.06,2.06s-.93,2.06-2.06,2.06-2.06-.93-2.06-2.06.91-2.06,2.06-2.06h0Z" style="fill:#63afb7; fill-rule:evenodd; stroke-width:0px;"/><path d="M24.86,1.73c.89,0,1.63.74,1.63,1.63s-.74,1.65-1.63,1.65-1.65-.74-1.65-1.65.74-1.63,1.65-1.63h0Z" style="fill:#fefefe; fill-rule:evenodd; stroke-width:0px;"/><path d="M8.79,18.45h1.73v4.22h-1.73v-4.22h0ZM11.95,18.45h1.73v4.22h-1.73s0-4.22,0-4.22ZM5.61,18.45h1.75v4.22h-1.75v-4.22Z" style="fill:#aedbf0; fill-rule:evenodd; stroke-width:0px;"/><path d="M39.14,18.45h1.75v4.22h-1.75v-4.22h0ZM42.3,18.45h1.75v4.22h-1.75v-4.22ZM35.98,18.45h1.73v4.22h-1.73v-4.22Z" style="fill:#aedbf0; fill-rule:evenodd; stroke-width:0px;"/><path d="M4.14,26.08h1.75v2.56h-1.75v-2.56h0ZM6.99,26.08h1.73v2.56h-1.73v-2.56h0ZM9.82,26.08h1.73v2.56h-1.73v-2.56h0ZM12.65,26.08h1.75v2.56h-1.75v-2.56h0ZM15.48,26.08h1.75v2.56h-1.75v-2.56h0ZM18.32,26.08h1.75v2.56h-1.75v-2.56h0ZM29.66,26.08h1.75v2.56h-1.75v-2.56h0ZM32.5,26.08h1.75v2.56h-1.75v-2.56h0ZM35.35,26.08h1.73v2.56h-1.73v-2.56h0ZM38.18,26.08h1.73v2.56h-1.73v-2.56h0ZM41.01,26.08h1.75v2.56h-1.75v-2.56h0ZM43.84,26.08h1.75v2.56h-1.75v-2.56h0ZM46.68,26.08h1.75v2.56h-1.75v-2.56ZM1.3,26.08h1.75v2.56h-1.75v-2.56Z" style="fill:#aedbf0; fill-rule:evenodd; stroke-width:0px;"/><rect x="21.2" y="26.13" width="7.38" height="6.18" style="fill:#40484c; stroke-width:0px;"/><path d="M21.97,26.9h2.57v4.64h-2.57v-4.64ZM25.22,26.9h2.57v4.64h-2.57v-4.64Z" style="fill:#aedbf0; fill-rule:evenodd; stroke-width:0px;"/><path d="M24.86,2.11c.07,0,.12.05.12.14,0,.07-.05.12-.12.12s-.14-.05-.14-.12c0-.09.07-.14.14-.14h0ZM24.86,4.36c.07,0,.12.07.12.14s-.05.12-.12.12-.14-.05-.14-.12.07-.14.14-.14h0ZM24.22,2.28c.07-.03.14-.02.17.05.03.05.02.14-.03.17-.07.03-.14.02-.17-.05-.05-.05-.02-.14.03-.17h0ZM25.36,4.24s.14-.02.17.03c.03.07.02.14-.05.17-.05.03-.14.02-.17-.03-.03-.07-.02-.14.05-.17h0ZM23.76,2.75c.05-.07.12-.09.19-.05.05.03.07.12.03.17-.03.07-.1.09-.17.05-.05-.03-.09-.12-.05-.17h0ZM25.72,3.86s.12-.07.17-.03c.07.03.09.1.05.17-.03.05-.12.07-.17.03-.07-.03-.09-.1-.05-.17h0ZM23.6,3.36c0-.07.05-.12.12-.12s.12.05.12.12-.05.14-.12.14-.12-.07-.12-.14h0ZM25.85,3.36c0-.07.05-.12.12-.12s.14.05.14.12-.07.14-.14.14-.12-.07-.12-.14h0ZM23.76,4c-.03-.07,0-.14.05-.17.07-.03.14-.02.17.03.03.07.02.14-.03.17-.07.03-.14.02-.19-.03h0ZM25.72,2.87s-.02-.14.05-.17c.05-.03.14-.02.17.05.03.05.02.14-.05.17-.05.03-.14.02-.17-.05h0ZM24.22,4.45s-.09-.1-.03-.17c.03-.05.1-.07.17-.03.05.03.07.1.03.17-.03.05-.1.07-.17.03h0ZM25.36,2.51c-.07-.03-.09-.12-.05-.17.03-.07.12-.09.17-.05.07.03.09.12.05.17-.03.07-.12.09-.17.05h0Z" style="fill:#63afb7; fill-rule:evenodd; stroke-width:0px;"/><polygon points="24.86 2.47 24.86 2.47 24.89 2.52 24.89 3.33 24.86 3.36 24.86 3.36 24.81 3.33 24.81 2.52 24.86 2.47" style="fill:#131414; fill-rule:evenodd; stroke-width:0px;"/><polygon points="24.24 3.71 24.24 3.71 24.27 3.6 24.77 3.33 24.86 3.35 24.86 3.35 24.84 3.45 24.34 3.73 24.24 3.71" style="fill:#131414; fill-rule:evenodd; stroke-width:0px;"/><path d="M24.86,3.23c.07,0,.12.05.12.14,0,.07-.05.12-.12.12-.09,0-.14-.05-.14-.12,0-.09.05-.14.14-.14h0Z" style="fill:#40484c; fill-rule:evenodd; stroke-width:0px;"/><path d="M24.86,3.28s.07.03.07.09c0,.03-.03.07-.07.07-.05,0-.09-.03-.09-.07,0-.05.03-.09.09-.09h0Z" style="fill:#6b777e; fill-rule:evenodd; stroke-width:0px;"/><path d="M28.72,8.27h5.54v12.43h-5.54s0-12.43,0-12.43ZM15.45,8.27h5.54v12.43h-5.54v-12.43ZM22.08,8.27h5.54v12.43h-5.54v-12.43h0Z" style="fill:#6b777e; fill-rule:evenodd; stroke-width:0px;"/><path d="M29.13,8.7v11.59h4.7v-11.59s-4.7,0-4.7,0ZM15.86,8.7v11.59h4.7v-11.59s-4.7,0-4.7,0ZM22.51,8.7v11.59h4.7v-11.59s-4.7,0-4.7,0Z" style="fill:#aedbf0; fill-rule:evenodd; stroke-width:0px;"/></g></g></svg>