<?xml version="1.0" encoding="UTF-8"?><svg id="b" xmlns="http://www.w3.org/2000/svg" viewBox="0 0 1000 1330.18"><g id="c"><path d="M235.12,377.43s-9.85-3.48-23.57-8.6l2.88,17.04c-.11-2.39-58.59-30.55-114.41-59.07v88.04c51.3,25.13,102.96,50.29,102.96,50.29l32.15-87.7h0Z" style="fill:#db7d79; stroke-width:0px;"/><path d="M100.02,256.82v70.08c55.82,28.52,114.3,56.59,114.41,58.98l-2.88-17.04-14.77-87.27s-11.81-6.43-29.24-15.82l7.14,14.5-73.52-23.06-1.14-.37Z" style="fill:#e58a83; stroke-width:0px;"/><polygon points="100.03 256.89 174.68 280.24 167.54 265.74 111.05 151.07 100.02 154.47 100.03 256.89" style="fill:#f7978d; stroke-width:0px;"/><polygon points="149.78 351.95 132.72 343.39 132.37 266.97 115.5 261.68 115.22 199.51 100.02 188.36 100.02 380.89 107.77 418.56 153.62 441.01 149.78 351.95" style="fill:#351c1c; isolation:isolate; opacity:.13; stroke-width:0px;"/><path d="M122.66,204.92c62.15,55.77,48.81,145.51,69.66,149.44,9.86,1.86,26.99-15.53,58.9-97.14,0,0-11.62-68.95-42.65-90.78-31.03-21.83-108.57-84.51-108.57-84.51v106.44" style="fill:#ffa799; stroke-width:0px;"/><path d="M362.17,874.24l181.46-172.56s35.71-31.51,35.16,10.69c-.56,42.2-209.66,207.12-209.66,207.12,0,0-41.02-12.86-6.95-45.25h0Z" style="fill:#1a1a3d; stroke-width:0px;"/><path d="M0,376.78c.07,17.69.56,43.64,2.62,74.98,4.69,71.45,7.08,107.83,24,147.97,8.95,21.24,26.02,53.14,60.29,86.05C57.93,582.78,28.97,479.78,0,376.78Z" style="fill:#351c1c; isolation:isolate; opacity:.15; stroke-width:0px;"/><polygon points="332.16 844.93 683.71 1313.51 935.78 1056.54 509.18 676.48 332.16 844.93" style="fill:#ffa799; stroke-width:0px;"/><path d="M370.93,896.61s173.09-131.47,177.42-185.24l29.72,26.48-191.54,181.57-15.6-22.81h0Z" style="fill:#351c1c; isolation:isolate; opacity:.09; stroke-width:0px;"/><path d="M455.75,451.17c-18.89-89.48-6.65-127.25-55.15-132.4-48.5-5.15-114.57-28.4-124.44-39.99-9.87-11.59-59.04-139.83-82-166.44-15.7-18.19-62.48-74.5-94.14-112.35,0,0-.01,126.92,0,126.96,5.85,21.53,22.42,41.77,28.79,64.17,12.95,45.5,17.94,92.73,26,139.2,5.57,32.11,11.04,64.37,14.32,96.81,2.36,23.39,1.82,63.01-4.63,85.76-8.4,29.65-36.8-2.55-42.13-15.4-7.98-19.23-8.7-40.84-11.66-61.19-3.48-23.88-27.4-163.3-65.13-154.72-28.04,6.37-37.95,32.15-41.93,59.89-11.48,80.16,6.08,161.17,33.08,237.19,14.61,41.15,34.25,111.04,75.18,133.52,48.07,26.39,209.95,134.48,220.25,132.76,10.3-1.72,115.23-47,177.03-168.45,0,0-34.55-135.83-53.44-225.31h0Z" style="fill:#ffa799; stroke-width:0px;"/><polyline points="100.02 0 100.02 188.4 111.51 196.79 110.68 12.77 100.02 0" style="fill:#351c1c; isolation:isolate; opacity:.13; stroke-width:0px;"/><path d="M20.46,296.68c-.99,1.39-3.16,38.46-.49,62.81,0,0,47.01,17.24,65.61-7.2,0,0-4.67-27.1-12.56-50.4-7.89-23.3-32.19-33.98-52.57-5.21h0Z" style="fill:#ffd0ca; stroke-width:0px;"/><path d="M357.65,878.91s-15.17,16.79-.61,28.72c14.56,11.93,112.56-71.04,148.46-108.33s82.38-110.57,62.42-106.53c-19.16,3.88-27.27,11.74-27.27,11.74,0,0,27.84-31.57,41.53-13.77,13.68,17.81,417.82,351.74,417.82,351.74l-313.07,287.69-336.59-418.44s-13.37-19.5,7.31-32.82Z" style="fill:#3f3d82; stroke-width:0px;"/><path d="M421.34,952.42c2.97,2.9,7.27-.77,4.89-4.16-2.57-3.66-5.89-6.89-8.87-10.22-2.77-3.11-5.51-6.41-8.73-9.05-1.8-1.48-4.63.96-3.47,2.97,2.09,3.6,4.9,6.84,7.52,10.07,2.81,3.47,5.47,7.27,8.66,10.4h0Z" style="fill:#6262af; stroke-width:0px;"/><path d="M441.23,963.68c2.27,5.27,4.12,11.02,7.71,15.58,2.07,2.63,5.54-.22,4.57-2.97-1.9-5.4-5.85-10.04-9.04-14.72-1.29-1.9-4.08.17-3.24,2.11Z" style="fill:#6262af; stroke-width:0px;"/><path d="M483.43,1015.02c-1.71-6.2-5.58-12.77-11.09-16.35-1.97-1.28-4.07,1.15-2.7,2.98,3.46,4.64,6.18,8.89,7.74,14.54,1.04,3.8,7.1,2.66,6.05-1.18h0Z" style="fill:#6262af; stroke-width:0px;"/><path d="M518.23,1054.41c-3.48-4.14-7.34-7.8-11.35-11.43-1.93-1.75-4.28,1.35-2.9,3.21,3.09,4.19,6.24,8.21,9.88,11.95,2.56,2.63,6.78-.87,4.38-3.73h0Z" style="fill:#6262af; stroke-width:0px;"/><path d="M547.87,1092.3c-3.33-4.55-7.2-8.67-10.56-13.19-1.61-2.16-4.72.54-3.17,2.7,3.31,4.6,6.08,9.58,9.43,14.16,2.15,2.94,6.44-.74,4.3-3.66h0Z" style="fill:#6262af; stroke-width:0px;"/><path d="M462.03,944.99c-3.49-6.2-7.7-12.32-12.07-17.93-1.97-2.53-6.03.2-4.65,3.03,3.12,6.42,6.76,12.87,10.79,18.77,2.28,3.33,7.91-.34,5.93-3.86h0Z" style="fill:#6262af; stroke-width:0px;"/><path d="M480.59,971.16c6.03,4.5,10.63,10.38,16,15.58,1.91,1.85,5.93-.1,4.27-2.78-4.38-7.07-10.91-11.87-17.64-16.61-2.44-1.72-5.01,2.03-2.63,3.8h0Z" style="fill:#6262af; stroke-width:0px;"/><path d="M548.14,1038.55c-5.61-11.42-14.02-20.95-23.68-29.13-2.09-1.77-5.26,1.69-3.25,3.59,8.69,8.22,15.59,17.83,21.75,28.04,1.88,3.11,6.84.89,5.18-2.49Z" style="fill:#6262af; stroke-width:0px;"/><path d="M563.67,1069.65c7.51,5.03,12.68,11.67,17.83,18.97,1.87,2.65,5.86-.22,4.61-3-3.91-8.66-11.42-15.43-19.48-20.23-2.84-1.69-5.75,2.39-2.95,4.26h0Z" style="fill:#6262af; stroke-width:0px;"/><path d="M577.05,1130.94c5.31,7.26,10.43,14.64,15.71,21.91,1.98,2.73,5.98-.69,3.99-3.39-5.32-7.23-10.8-14.34-16.11-21.58-1.8-2.46-5.38.62-3.6,3.06h0Z" style="fill:#6262af; stroke-width:0px;"/><path d="M626.88,1180.72c-2.46-3.6-5.26-6.94-7.97-10.35-2-2.51-5.44.63-3.72,3.16,2.46,3.62,4.83,7.29,7.54,10.72,2.22,2.8,6.08-.7,4.15-3.53h0Z" style="fill:#6262af; stroke-width:0px;"/><path d="M603.2,1112.45c5.34,4.06,8.94,9.96,12.13,15.75,1.81,3.29,6.6.95,5.23-2.52-2.91-7.36-8.45-12.5-14.7-17.07-2.44-1.78-5.05,2.03-2.66,3.84Z" style="fill:#6262af; stroke-width:0px;"/><path d="M644.79,1159.43c4.69,5.78,9.18,11.83,14.59,16.97,2.61,2.47,6.37-.66,4.26-3.63-4.32-6.08-9.68-11.38-14.75-16.83-2.36-2.54-6.3.79-4.11,3.49h0Z" style="fill:#6262af; stroke-width:0px;"/><path d="M652.84,1219.05c.57,1.18,1.14,2.36,1.7,3.54.58,1.21,2.2,1.85,3.43,1.2,1.23-.66,1.82-2.13,1.2-3.43-.57-1.18-1.13-2.36-1.7-3.54-.58-1.21-2.2-1.85-3.43-1.2-1.23.66-1.82,2.13-1.2,3.43Z" style="fill:#6262af; stroke-width:0px;"/><path d="M678.67,1201.84c5.49,7.77,10.29,16.53,16.61,23.64,1.85,2.09,5.68-.15,4.23-2.75-4.75-8.5-11.54-16.06-17.2-23.98-1.79-2.51-5.4.61-3.64,3.09Z" style="fill:#6262af; stroke-width:0px;"/><path d="M679.83,1243.89c3.44,4.16,6.81,8.37,10.15,12.61,2.47,3.14,7.38-1.01,4.73-4.03-3.56-4.06-7.08-8.14-10.54-12.28-2.36-2.82-6.68.87-4.34,3.69h0Z" style="fill:#6262af; stroke-width:0px;"/><path d="M477.92,915.53c-3.9-6.77-9.4-13.04-14.86-18.61-1.77-1.81-5.44.11-3.97,2.58,3.94,6.67,8.51,13.68,14,19.17,2.17,2.17,6.58-.09,4.82-3.14Z" style="fill:#6262af; stroke-width:0px;"/><path d="M507.15,944.1c-3.14-3.65-6.99-6.61-10.67-9.7-2.46-2.06-6.05,1.89-3.79,4.19,3.37,3.43,6.63,7.01,10.53,9.85,2.71,1.98,6.11-1.81,3.93-4.34Z" style="fill:#6262af; stroke-width:0px;"/><path d="M553.57,991.6c-5.7-7.66-12.91-14.03-19.24-21.14-2.18-2.45-6.03.82-3.87,3.29,6.26,7.18,11.66,15.12,18.54,21.74,2.77,2.66,6.91-.75,4.58-3.89h0Z" style="fill:#6262af; stroke-width:0px;"/><path d="M589.87,1035.08c-5.52-6.46-11.36-12.64-17.15-18.85-2.27-2.44-6.09.78-3.95,3.36,5.43,6.53,10.82,13.09,16.52,19.39,2.59,2.86,7.1-.95,4.58-3.89Z" style="fill:#6262af; stroke-width:0px;"/><path d="M622.85,1080.98c-3.73-6.52-8.92-12.21-13.6-18.07-2.11-2.65-5.85.68-3.95,3.36,4.2,5.92,8.08,12.35,13.15,17.57,1.97,2.03,5.97-.1,4.4-2.86h0Z" style="fill:#6262af; stroke-width:0px;"/><path d="M637.88,1104.18c4.1,6.44,9.47,12.06,15.3,16.94,2.4,2,5.37-1.65,3.55-3.93-4.57-5.73-10.06-11.22-16.18-15.31-1.39-.93-3.71.67-2.68,2.29h0Z" style="fill:#6262af; stroke-width:0px;"/><path d="M677.37,1156.45c4.2,2.37,7.51,5.88,9.64,10.22,1.69,3.45,6.91.92,5.37-2.58-2.54-5.78-6.83-9.88-12.44-12.67-2.85-1.42-5.36,3.46-2.56,5.03Z" style="fill:#6262af; stroke-width:0px;"/><path d="M721.93,1204.49c-1.12.96-1.41,2.93-.33,4.05,1.44,1.48,2.88,2.97,4.32,4.45,1.08,1.11,2.82,1.38,4.05.33,1.13-.96,1.41-2.93.33-4.05-1.44-1.48-2.88-2.97-4.32-4.45-1.08-1.11-2.82-1.38-4.05-.33h0Z" style="fill:#6262af; stroke-width:0px;"/><path d="M491.38,884.2c-2.82-3.82-5.85-7.38-9.23-10.71-1.05-1.03-2.11-2.52-3.67-2.71-.42-.05-1.94,0-2.16.54-1.32,3.29,1.02,5.38,2.98,7.97,2.35,3.1,4.86,5.96,7.58,8.74,2.67,2.72,6.76-.76,4.5-3.83Z" style="fill:#6262af; stroke-width:0px;"/><path d="M521.61,914.45c-4.42-4.99-9.17-9.48-14.04-14.02-2.49-2.31-6.59,1.01-4.11,3.49,4.87,4.88,9.69,9.61,15.01,13.99,2.08,1.72,4.89-1.5,3.14-3.47h0Z" style="fill:#6262af; stroke-width:0px;"/><path d="M533.52,935.32c9.17,8.92,18.04,18.56,28.19,26.38,2.45,1.89,5.65-1.71,3.62-4-8.48-9.58-18.74-17.77-28.26-26.3-2.23-2-5.72,1.82-3.55,3.93h0Z" style="fill:#6262af; stroke-width:0px;"/><path d="M581.9,973.59c-2.28-2.22-6.03.81-3.83,3.26,6.9,7.71,13.75,15.42,21.01,22.8,2.8,2.85,7.54-1.1,4.77-4.06-7.08-7.58-14.52-14.76-21.95-22h0Z" style="fill:#6262af; stroke-width:0px;"/><path d="M638.4,1035.58c-6.01-6.58-12.21-12.96-18.39-19.38-2.3-2.39-6.15.82-3.95,3.36,5.82,6.72,11.61,13.48,17.61,20.05,2.7,2.95,7.43-1.07,4.73-4.03h0Z" style="fill:#6262af; stroke-width:0px;"/><path d="M673.43,1082.81c-3.51-9.73-10.89-17.23-19.75-22.38-2.88-1.67-5.84,2.46-2.98,4.31,7.85,5.06,13.64,12.2,18.34,20.19,1.61,2.73,5.46.83,4.4-2.12h0Z" style="fill:#6262af; stroke-width:0px;"/><path d="M695.67,1123.93c1.74,2.06,3.49,4.12,5.23,6.17,1.84,2.17,5.16-.66,3.36-2.86l-5.11-6.27c-1.86-2.28-5.38.72-3.48,2.96h0Z" style="fill:#6262af; stroke-width:0px;"/><path d="M734.65,1176.03c2.32,3.23,4.65,6.45,6.97,9.68,1.81,2.52,5.35-.6,3.64-3.09-2.26-3.28-4.52-6.56-6.78-9.84-1.83-2.65-5.73.63-3.83,3.26Z" style="fill:#6262af; stroke-width:0px;"/><path d="M530.28,865.52c-6.74-6.32-13.65-12.29-20.87-18.06-2.44-1.95-5.89,1.83-3.69,4.08,6.47,6.6,13.11,12.87,20.08,18.93,2.85,2.48,7.26-2.34,4.48-4.94Z" style="fill:#6262af; stroke-width:0px;"/><path d="M565.82,901.88c-5.55-5.35-11.76-9.94-17.6-14.95-2.37-2.04-5.03,1.94-2.75,3.97,5.6,4.98,10.81,10.38,16.7,15.02,2.41,1.9,5.91-1.87,3.66-4.04Z" style="fill:#6262af; stroke-width:0px;"/><path d="M582.26,926.95c4.43,4.68,8.33,9.86,13.24,14.05,2.41,2.06,5.38-1.66,3.59-3.96-3.82-4.9-8.72-8.86-13.03-13.31-2.22-2.29-6.01.89-3.79,3.23Z" style="fill:#6262af; stroke-width:0px;"/><path d="M634.13,971.34c-5.89-6.64-12.9-12.24-19.53-18.12-1.61-1.43-3.97,1.23-2.53,2.79,6.04,6.53,11.81,13.37,18.6,19.14,2.26,1.92,5.37-1.65,3.45-3.81h0Z" style="fill:#6262af; stroke-width:0px;"/><path d="M643.25,987.99c6.89,6.66,12.41,14.43,19.05,21.3,1.68,1.74,5.12-.1,3.76-2.44-4.9-8.39-12.26-15.23-19.25-21.89-2.15-2.06-5.73.93-3.56,3.03Z" style="fill:#6262af; stroke-width:0px;"/><path d="M702.4,1049.35c-6.02-9.66-14.23-17.79-21.8-26.24-2.27-2.54-6.2.8-4.03,3.43,7.22,8.76,14.01,18.11,22.66,25.52,1.6,1.37,4.29-.91,3.17-2.71h0Z" style="fill:#6262af; stroke-width:0px;"/><path d="M711.07,1071.84c6.01,8.34,11.69,17.46,18.86,24.85,1.92,1.98,5.91-.13,4.31-2.81-5.42-9.04-12.84-17.03-19.49-25.17-1.99-2.44-5.47.64-3.68,3.13Z" style="fill:#6262af; stroke-width:0px;"/><path d="M758.7,1133.22c-3.97-6.14-8.88-11.45-13.71-16.92-1.98-2.25-5.29.63-3.52,3,4.25,5.67,8.3,11.46,13.34,16.46,1.73,1.71,5.43-.14,3.88-2.53Z" style="fill:#6262af; stroke-width:0px;"/><path d="M769.48,1151.73c5.52,5.14,10.12,11.02,13.91,17.55,1.77,3.05,6.7.77,5-2.4-3.93-7.34-9.09-13.61-15.25-19.18-2.29-2.07-5.93,1.92-3.66,4.04h0Z" style="fill:#6262af; stroke-width:0px;"/><path d="M554.65,843.46c-4.52-4.06-8.97-7.93-12.51-12.91-1.89-2.66-5.64.63-3.83,3.26,3.67,5.34,7.9,10.4,13.53,13.7,2.8,1.64,5.13-1.96,2.81-4.05h0Z" style="fill:#6262af; stroke-width:0px;"/><path d="M585.04,877.57c2.57,2.4,5.11,4.82,7.61,7.29,2.44,2.42,5.83-1.26,3.18-3.51-2.68-2.28-5.31-4.6-7.92-6.95-1.8-1.62-4.66,1.5-2.87,3.17Z" style="fill:#6262af; stroke-width:0px;"/><path d="M619.57,914.85c4.59,3.62,8.91,7.65,13.72,10.98,2.42,1.67,4.67-1.84,2.54-3.67-4.42-3.82-9.39-6.98-14.04-10.51-2.01-1.53-4.18,1.66-2.22,3.21h0Z" style="fill:#6262af; stroke-width:0px;"/><path d="M672.89,961.43c-4.62-4.76-9.49-9.26-14.31-13.83-2.26-2.14-5.98.86-3.75,3.19,4.57,4.79,9.07,9.63,13.84,14.23,2.53,2.44,6.74-1.01,4.22-3.59h0Z" style="fill:#6262af; stroke-width:0px;"/><path d="M706.7,1002.04c-3.36-3.09-6.71-6.18-10.07-9.27-1.5-1.38-3.98.64-2.46,2.1,3.28,3.16,6.56,6.31,9.84,9.47,1.64,1.58,4.36-.77,2.7-2.3Z" style="fill:#6262af; stroke-width:0px;"/><path d="M747.97,1049.45c-4.63-6.96-9.93-13.39-15.19-19.89-2.1-2.59-5.87.7-3.91,3.33,5,6.69,9.93,13.4,15.54,19.59,2.07,2.29,5.19-.58,3.56-3.03h0Z" style="fill:#6262af; stroke-width:0px;"/><path d="M766.86,1084.26c4.97,5.06,9.01,10.87,13.58,16.27,1.65,1.95,4.77-.12,3.71-2.42-3.2-6.96-8.46-12.32-14.15-17.33-2-1.76-5.01,1.57-3.14,3.47Z" style="fill:#6262af; stroke-width:0px;"/><path d="M796.4,1124.89c5.07,9.03,9.7,18.59,15.59,27.11,1.96,2.84,6.62-.27,5.04-3.28-4.82-9.14-11.19-17.65-16.83-26.3-1.41-2.17-5.06.22-3.8,2.47Z" style="fill:#6262af; stroke-width:0px;"/><path d="M581.55,819.15c-4.18-3.84-8.66-7.21-13.16-10.65-2.68-2.05-5.35,2.1-2.92,4.22,4.08,3.58,8.1,7.2,12.5,10.39,2.41,1.75,5.88-1.86,3.59-3.96Z" style="fill:#6262af; stroke-width:0px;"/><path d="M608.79,859c4.68,2.14,8.43,5.49,12.25,8.85,2.68,2.35,5.63-1.8,3.9-4.3-3.39-4.89-8.77-7.89-14.36-9.63-3.36-1.05-4.9,3.66-1.78,5.09Z" style="fill:#6262af; stroke-width:0px;"/><path d="M656.76,898.39c-3.44-4.03-7.37-7.34-11.38-10.79-2.48-2.14-6.14,1.92-3.86,4.27,3.69,3.79,7.25,7.48,11.48,10.68,2.58,1.95,5.82-1.74,3.76-4.15h0Z" style="fill:#6262af; stroke-width:0px;"/><path d="M682.92,925.75c-3.65-6.49-8.9-11.46-14.92-15.76-2.29-1.64-4.75,1.93-2.49,3.59,5.45,4,9.59,9.25,13.35,14.81,1.55,2.29,5.41-.24,4.06-2.64h0Z" style="fill:#6262af; stroke-width:0px;"/><path d="M709.28,950.33c-4.13-3.88-8.59-7.39-12.95-10.99-2.86-2.36-5.95,2.31-3.25,4.69,4.07,3.57,8.05,7.27,12.34,10.57,2.56,1.97,6.28-1.99,3.86-4.27Z" style="fill:#6262af; stroke-width:0px;"/><path d="M733.18,977.26c-3-4.54-7.79-8.24-11.67-12.02-2.15-2.09-5.71.83-3.6,3.06,3.86,4.08,7.62,9.07,12.3,12.24,2.24,1.52,4.3-1.28,2.97-3.28h0Z" style="fill:#6262af; stroke-width:0px;"/><path d="M753.6,1002.35c1.07-1,1.18-2.51.29-3.66-1.02-1.32-2.03-2.64-3.05-3.96-.84-1.09-2.57-1.15-3.58-.29-1.11.94-1.11,2.48-.29,3.58.99,1.34,1.98,2.69,2.97,4.03.81,1.09,2.68,1.2,3.66.29Z" style="fill:#6262af; stroke-width:0px;"/><path d="M779.05,1033.43c-1.05.9-1.32,2.75-.31,3.8,1.44,1.48,2.88,2.97,4.32,4.45,1.01,1.04,2.64,1.29,3.8.31,1.05-.9,1.32-2.75.31-3.8-1.44-1.48-2.88-2.97-4.32-4.45-1.01-1.04-2.64-1.29-3.8-.31h0Z" style="fill:#6262af; stroke-width:0px;"/><path d="M797.7,1055.2c5.17,6.33,9.7,13.79,15.87,19.19,1.8,1.58,4.74-1.02,3.55-3.03-4.18-7.05-10.7-12.85-15.98-19.08-1.88-2.23-5.28.68-3.44,2.93Z" style="fill:#6262af; stroke-width:0px;"/><path d="M826.21,1091.54c3.72,3.8,7.18,8.1,11.29,11.47,2.05,1.67,4.55-1.39,3.01-3.32-3.18-4-7.33-7.38-10.94-11.01-1.99-2-5.36.83-3.36,2.86Z" style="fill:#6262af; stroke-width:0px;"/><path d="M852.6,1120.23c-.96,1.39-.43,2.91.71,3.93,2,1.8,3.82,4.09,6.38,5.03,2.05.74,4.19-1.55,3.16-3.54-1.36-2.61-4.11-4.25-6.33-6.13-1.16-.99-3.13-.45-3.93.71Z" style="fill:#6262af; stroke-width:0px;"/><path d="M612.83,800.89c-6.19-8.9-14.95-15.8-23.63-22.17-2.89-2.12-5.8,2.29-3.13,4.52,8.12,6.79,15.26,14.61,23.35,21.42,2.38,2.01,4.95-1.57,3.42-3.77Z" style="fill:#6262af; stroke-width:0px;"/><path d="M641.6,830.95c1-.83,1.36-2.79.3-3.76-2.77-2.54-5.64-4.93-8.42-7.44-2.05-1.85-5.32,1.72-3.28,3.62,2.58,2.4,5.04,4.9,7.63,7.28,1.07.98,2.56,1.31,3.76.3h0Z" style="fill:#6262af; stroke-width:0px;"/><path d="M678.25,861.96c-5.05-6.11-10.96-11.29-16.28-17.11-1.71-1.88-4.66.61-3.01,2.56,5.08,6.02,9.44,12.55,14.83,18.35,2.56,2.75,6.87-.88,4.46-3.79h0Z" style="fill:#6262af; stroke-width:0px;"/><path d="M718.44,906.84c-5.07-6.53-11.43-12-17.25-17.85-2.43-2.44-6.51.95-4.11,3.49,5.84,6.17,11.27,12.82,17.83,18.24,2.4,1.98,5.28-1.62,3.52-3.89Z" style="fill:#6262af; stroke-width:0px;"/><path d="M736.87,926.57c5.82,6.62,11.34,13.9,17.86,19.82,2.39,2.17,5.99-.64,3.91-3.33-5.41-6.97-12.25-13.04-18.41-19.35-1.97-2.02-5.26.71-3.36,2.86h0Z" style="fill:#6262af; stroke-width:0px;"/><path d="M783.95,980.31c2.23,3.05,6.88-.84,4.5-3.83-5.08-6.36-10.77-12.1-17.03-17.29-2.46-2.04-5.04,1.96-2.78,4.01,5.7,5.16,10.78,10.9,15.31,17.11Z" style="fill:#6262af; stroke-width:0px;"/><path d="M809.49,1000.11c-5.39-5.45-11.06-10.6-16.58-15.92-2.48-2.38-6.59,1.06-4.11,3.49,5.47,5.36,10.79,10.86,16.39,16.08,2.6,2.43,6.89-1.04,4.3-3.66Z" style="fill:#6262af; stroke-width:0px;"/><path d="M821.84,1020.28c.66-.61,1.05-1.75.55-2.58-.34-.56-.65-1.19-1.12-1.66-.4-.39-.8-.77-1.21-1.15-.88-.84-2.3-1.18-3.29-.27-.91.84-1.13,2.32-.27,3.29.37.41.73.83,1.11,1.24.48.52,1.02.87,1.6,1.25.77.5,1.92.53,2.63-.13h0Z" style="fill:#6262af; stroke-width:0px;"/><path d="M856.48,1048.57c-6.75-5.68-12.68-11.77-16.79-19.65-1.73-3.31-6.78-.89-5.23,2.52,4.05,8.86,10.1,17.1,18.45,22.28,3.47,2.16,6.62-2.58,3.57-5.15h0Z" style="fill:#6262af; stroke-width:0px;"/><path d="M870.09,1073.96c3.52,3.3,6.29,7.12,8.66,11.31,1.89,3.34,7.03.95,5.41-2.61-2.21-4.86-5.5-9.05-9.42-12.66-2.85-2.63-7.53,1.27-4.65,3.96Z" style="fill:#6262af; stroke-width:0px;"/><path d="M602.42,751.73c3.3,3.14,6.6,6.28,9.9,9.42,2.31,2.2,6.13-1.06,3.79-3.23-3.34-3.11-6.68-6.21-10.01-9.32-2.24-2.09-5.93.98-3.68,3.13Z" style="fill:#6262af; stroke-width:0px;"/><path d="M647.17,792.68c3.66,6.24,7.68,12.31,13.98,16.08,1.65.99,4.03-1.19,2.43-2.68-4.96-4.6-10.28-8.82-13.95-14.58-.92-1.44-3.35-.35-2.45,1.18Z" style="fill:#6262af; stroke-width:0px;"/><path d="M635.61,777c-1.32-1.98-2.56-4-3.97-5.92-1.41-1.93-2.68-3.74-5.28-3.51-.75.07-1.51.79-1.72,1.49-.74,2.43.96,4.14,2.51,5.83,1.6,1.75,3.33,3.36,5.01,5.04,2.1,2.09,5.03-.53,3.44-2.93h0Z" style="fill:#6262af; stroke-width:0px;"/><path d="M679.2,823.46c5.54,7.29,10.66,14.83,16.5,21.89,2.53,3.07,7.19-.92,4.69-3.99-5.77-7.1-12.13-13.61-18.18-20.46-1.7-1.92-4.54.55-3.01,2.56Z" style="fill:#6262af; stroke-width:0px;"/><path d="M705.18,852.64c6.28,6.87,12.57,13.71,19.11,20.33,2.7,2.73,7.26-1.09,4.58-3.89-6.45-6.74-13.12-13.24-19.81-19.73-2.31-2.24-6.11.84-3.87,3.29Z" style="fill:#6262af; stroke-width:0px;"/><path d="M766.33,912.21c-7.18-9.72-14.81-19.02-22.3-28.49-1.9-2.4-5.43.66-3.6,3.06,7.33,9.6,14.46,19.3,22.1,28.66,2.05,2.51,5.68-.68,3.79-3.23Z" style="fill:#6262af; stroke-width:0px;"/><path d="M773.16,923.33c7.42,10.32,14.94,20.58,23.45,30.04,2.09,2.32,5.25-.59,3.6-3.06-7.07-10.57-15.16-20.4-23.33-30.14-2.05-2.44-5.52.65-3.72,3.16h0Z" style="fill:#6262af; stroke-width:0px;"/><path d="M811.97,967.84c5.21,6.98,10.11,14.35,16.48,20.34,1.88,1.77,5.67-.03,4.14-2.69-4.48-7.78-10.61-14.41-16.36-21.27-2.34-2.79-6.4.77-4.26,3.63h0Z" style="fill:#6262af; stroke-width:0px;"/><path d="M853.4,1013.19c4.3,4.17,8.71,9.59,14,12.49,2.77,1.52,5.56-1.44,3.69-4.08-3.49-4.93-9.36-8.68-14-12.49-2.41-1.97-5.95,1.89-3.69,4.08Z" style="fill:#6262af; stroke-width:0px;"/><path d="M886.47,1044.25c6.14,6.72,10.94,14.38,15.55,22.2,1.58,2.67,5.22.81,4.26-2.05-3.09-9.18-8.75-16.97-15.47-23.84-2.54-2.6-6.83.96-4.34,3.69h0Z" style="fill:#6262af; stroke-width:0px;"/><path d="M611.47,737.72c5.18,5.91,10.41,11.78,15.67,17.62,2.82,3.12,7.84-1.18,4.97-4.23-5.4-5.73-10.83-11.43-16.3-17.08-2.53-2.62-6.78.91-4.34,3.69Z" style="fill:#6262af; stroke-width:0px;"/><path d="M664.37,780.7c4.72,6.71,9.63,13.08,16.35,17.9,2.28,1.64,5.51-1.72,3.38-3.74-5.72-5.42-11.66-10.67-16.29-17.09-1.71-2.37-5.1.58-3.44,2.93Z" style="fill:#6262af; stroke-width:0px;"/><path d="M709.31,821.88c7.02,7.97,13.21,16.47,19.83,24.74,1.9,2.38,6.29-.32,4.57-2.97-5.93-9.16-13.78-17.29-21.87-24.57-1.62-1.45-3.92,1.21-2.53,2.79Z" style="fill:#6262af; stroke-width:0px;"/><path d="M749.16,863.58c7.72,6.81,13.64,14.88,20.67,22.29,2.76,2.91,6.82-.75,4.65-3.96-5.78-8.55-14.72-15.69-22.72-22.09-2.33-1.87-4.76,1.86-2.6,3.76h0Z" style="fill:#6262af; stroke-width:0px;"/><path d="M782.84,895.78c5.56,7.56,11.04,15.14,17.03,22.37,2.22,2.68,6.06-.72,4.07-3.46-5.51-7.59-11.48-14.78-17.42-22.04-1.99-2.43-5.49.65-3.68,3.13h0Z" style="fill:#6262af; stroke-width:0px;"/><path d="M810.26,928.74c5,4.09,9.5,8.73,13.72,13.62,1.88,2.19,5.2-.66,3.4-2.9-4.31-5.37-9.31-9.93-14.84-14.02-2.09-1.55-4.25,1.68-2.28,3.29Z" style="fill:#6262af; stroke-width:0px;"/><path d="M831.65,951.33c3.46,2.72,6.69,5.71,10.19,8.37,2.86,2.17,5.94-2.37,3.16-4.56-3.45-2.72-7.14-5.08-10.63-7.74-2.45-1.87-5.12,2.04-2.72,3.93h0Z" style="fill:#6262af; stroke-width:0px;"/><path d="M858.87,974.26c1.59,1.07,3.13,2.17,4.66,3.32,2.72,2.06,5.89-2.65,2.98-4.31-1.66-.95-3.29-1.94-4.89-2.98-2.6-1.68-5.33,2.23-2.75,3.97h0Z" style="fill:#6262af; stroke-width:0px;"/><path d="M876.9,989.65c2.83,3.3,5.53,6.6,8.83,9.44,1.82,1.57,4.25-1.31,2.77-3.06-2.79-3.29-6.13-6-9.38-8.83-1.45-1.26-3.42,1.05-2.22,2.45Z" style="fill:#6262af; stroke-width:0px;"/><path d="M901.79,1018.18c5.27,6.19,10.51,12.28,16.54,17.74,2.23,2.02,5.14-1.59,3.42-3.77-4.89-6.21-10.52-11.68-16.16-17.19-2.26-2.21-5.91.75-3.79,3.23h0Z" style="fill:#6262af; stroke-width:0px;"/><path d="M946.49,1058.22c-1.12,3.21,3.86,4.96,4.99,1.75,1.12-3.21-3.86-4.96-4.99-1.75Z" style="fill:#6262af; stroke-width:0px;"/><path d="M414.55,962.36c-5.78-10.87-14.34-20.23-22.99-28.9-2.49-2.5-6.64.91-4.22,3.59,8.12,9.02,14.79,19.03,22.31,28.5,2.07,2.61,6.49-.22,4.91-3.19h0Z" style="fill:#6262af; stroke-width:0px;"/><path d="M426.47,980.87c-2.29-3.26-5.03-6.12-7.7-9.07-1.43-1.58-4.36.1-3.24,2.11,2.04,3.67,4,7.36,6.49,10.75,2.25,3.06,6.59-.75,4.46-3.79Z" style="fill:#6262af; stroke-width:0px;"/><path d="M456.04,1015.34c-2.89-6.42-7.84-12.15-11.99-17.79-1.61-2.18-5.43.25-4.01,2.61,3.6,6,6.97,12.79,11.78,17.93,1.96,2.09,5.43-.06,4.23-2.75Z" style="fill:#6262af; stroke-width:0px;"/><path d="M473.88,1039.4c-3.12-4.85-7.01-8.55-11.04-12.59-1.45-1.45-3.48.37-2.39,2.03,3.04,4.6,5.73,9.07,9.72,12.98,1.66,1.62,5.19-.12,3.71-2.42Z" style="fill:#6262af; stroke-width:0px;"/><path d="M500.68,1071.2c-2.84-6.16-6.79-11.67-10.49-17.34-1.36-2.08-4.94.23-3.67,2.39,3.43,5.84,6.62,11.81,10.88,17.09,1.43,1.77,4.21-.12,3.29-2.14h0Z" style="fill:#6262af; stroke-width:0px;"/><path d="M533.12,1113.31c-4.18-9.31-11.42-17.13-18.54-24.3-1.75-1.76-4.6.58-2.97,2.53,6.43,7.72,11.55,16.37,17.84,24.16,1.61,1.99,4.68-.14,3.67-2.39h0Z" style="fill:#6262af; stroke-width:0px;"/><path d="M540.66,1130.85c3.85,5.11,7.56,10.46,12.02,15.08,2.15,2.22,5.29-.58,3.6-3.06-3.62-5.29-8.1-10.01-12.33-14.81-1.85-2.1-4.95.59-3.29,2.8Z" style="fill:#6262af; stroke-width:0px;"/><path d="M579.94,1176.12c-3.55-4.92-8.06-8.93-11.84-13.64-.99-1.23-2.72.32-1.84,1.56,3.51,4.98,6.14,10.45,9.92,15.27,1.98,2.52,5.59-.65,3.75-3.19h0Z" style="fill:#6262af; stroke-width:0px;"/><path d="M592.69,1200.6c2.37,3.44,4.74,6.89,7.11,10.33,2.31,3.36,4.41,7.29,7.44,10.04,1.91,1.73,5.16.07,3.97-2.58-1.67-3.71-4.66-6.88-7.12-10.09-2.69-3.51-5.38-7.02-8.08-10.53-1.74-2.27-4.88.56-3.32,2.83Z" style="fill:#6262af; stroke-width:0px;"/><path d="M629.18,1242.96c2.74,3.09,5.49,6.17,8.23,9.26,2.15,2.41,6.02-1.06,3.75-3.19-3.02-2.85-6.04-5.71-9.05-8.56-1.76-1.66-4.62.6-2.93,2.5h0Z" style="fill:#6262af; stroke-width:0px;"/><path d="M660.13,1272.62c-.94,2.68,3.23,4.15,4.17,1.46.94-2.68-3.23-4.15-4.17-1.46Z" style="fill:#6262af; stroke-width:0px;"/></g></svg>