<?xml version="1.0" encoding="UTF-8"?><svg id="b" xmlns="http://www.w3.org/2000/svg" viewBox="0 0 20.59 30.43"><g id="c"><g style="isolation:isolate;"><g id="d"><g id="e"><path d="M14.98,7.77c0,2.31-2.09,4.17-4.67,4.17-2.57,0-4.65-1.89-4.65-4.19,0-2.3,2.09-4.17,4.67-4.17,2.57,0,4.65,1.89,4.65,4.19Z" style="fill:#332d2d; stroke-width:0px;"/><path d="M13.36,4.33c0,1.29-1.36,2.34-3.04,2.33-1.68,0-3.03-1.06-3.03-2.35,0-1.29,1.36-2.34,3.04-2.33,1.68,0,3.03,1.06,3.03,2.35Z" style="fill:#332d2d; stroke-width:0px;"/><path d="M18.12,14.66c-.01,6.11-3.53,14.26-7.85,14.24-4.32,0-7.79-8.17-7.78-14.28.01-6.11,3.52-7.49,7.84-7.49,4.32,0,7.81,1.42,7.8,7.52Z" style="fill:#332d2d; stroke-width:0px;"/><path d="M10.39,28.69c-4.32,0-7.79-8.17-7.78-14.28,0-1.85.33-3.26.9-4.34-.64,1.1-1.01,2.57-1.02,4.54-.01,6.11,3.47,14.27,7.78,14.28,2.05,0,3.92-1.82,5.32-4.4-1.38,2.46-3.2,4.19-5.2,4.19Z" style="fill:#ffe1e1; isolation:isolate; opacity:.4; stroke-width:0px;"/><path d="M10.71,27.67c-4.32,0-7.79-8.17-7.78-14.28,0-1.09.12-2.03.33-2.84-.49,1.05-.77,2.36-.77,4.07-.01,6.11,3.47,14.27,7.78,14.28,2.85,0,5.37-3.55,6.74-7.73-1.43,3.62-3.72,6.5-6.29,6.5h0Z" style="fill:#000; isolation:isolate; opacity:.3; stroke-width:0px;"/><path d="M13.9,8.69c-.52-.19-1.04-.32-1.51-.38h0c-.87-.12-1.59-.04-2.06.22h0c-.84-.48-2.62-.36-4.46.49-.69.32-1.38.75-2.05,1.29-.25.21-.5.43-.74.68-.38.97-.58,2.16-.59,3.64-.01,5.11,2.42,11.65,5.74,13.66.78-1.62,1.52-3.69,2.06-6.17.52,2.49,1.25,4.56,2.03,6.18,3.32-2,5.79-8.52,5.81-13.63,0-1.47-.2-2.67-.57-3.64-1.13-1.14-2.43-1.9-3.66-2.34h0Z" style="fill:#000; isolation:isolate; opacity:.4; stroke-width:0px;"/><path d="M11.09,13.42c0,.37-.03.73-.04,1.08h0c-.11,2.11-.38,4.03-.76,5.77h0c-.7,3.24-1.74,5.77-2.77,7.51-.95,1.63-1.9,2.52-2.53,2.61-.41.06-.9-.23-1.41-.75-.56-.59-1.12-1.47-1.65-2.58h0C.96,24.99.18,22.18.02,19.08c-.06-1.4,0-2.86.24-4.34,0-.05.01-.09.03-.15.5-2.8,1.89-4.79,3.52-6.12.66-.54,1.36-.97,2.05-1.29,1.83-.86,3.61-.99,4.45-.5h0c.21.12.35.27.44.46.04.07.05.15.06.24.24,2.14.33,4.15.27,6.04h.02Z" style="fill:#cf1800; stroke-width:0px;"/><path d="M8.38,23.63c-.41.06-.9-.23-1.41-.75-.56-.59-1.12-1.47-1.65-2.58h0c-.97-2.06-1.76-4.87-1.91-7.98-.06-1.16,0-2.38.14-3.61-1.52,1.33-2.79,3.26-3.26,5.89,0,.05-.02.1-.03.15-.24,1.47-.3,2.94-.24,4.34.14,3.11.94,5.91,1.91,7.97h0c.53,1.12,1.09,2.01,1.65,2.58.51.53,1,.81,1.41.75.63-.08,1.57-.99,2.53-2.61.75-1.27,1.5-2.96,2.13-5.04-.48.52-.93.83-1.27.88h0Z" style="fill:#730d00; isolation:isolate; mix-blend-mode:multiply; opacity:.1; stroke-width:0px;"/><path d="M20.53,19.45c-.14,2.1-.57,4.06-1.14,5.72-.5,1.46-1.1,2.68-1.72,3.58-.76,1.13-1.55,1.75-2.14,1.66-.62-.09-1.56-.99-2.51-2.63-1.02-1.74-2.05-4.29-2.72-7.52h0c-.76-3.55-1.07-7.91-.48-12.9,0-.08.03-.17.06-.24.08-.18.23-.34.44-.45h0c.47-.26,1.19-.34,2.06-.22h0c.47.07.98.2,1.52.39,2.64.93,5.72,3.43,6.44,7.95.02.15.05.31.07.46.19,1.43.23,2.84.13,4.2h-.01Z" style="fill:#cf1800; stroke-width:0px;"/><path d="M13.9,6.85c-.52-.19-1.04-.32-1.51-.38h0c-.27-.03-.52-.05-.76-.04.07.31.11.62.18.92h0c.67,3.23,1.71,5.78,2.72,7.52.94,1.64,1.88,2.54,2.51,2.63.59.09,1.38-.54,2.14-1.66.34-.5.68-1.11,1.01-1.8-.93-4.04-3.79-6.3-6.28-7.17h0Z" style="fill:#ff1e00; isolation:isolate; opacity:.4; stroke-width:0px;"/><path d="M19.99,20.44c-.76,1.13-1.55,1.75-2.14,1.66-.62-.09-1.56-.99-2.51-2.63-1.02-1.74-2.05-4.29-2.72-7.52h0c-.36-1.67-.61-3.53-.72-5.54-.65-.03-1.21.05-1.57.26h0c-.21.12-.35.27-.44.45-.04.07-.06.16-.06.24-.59,4.98-.27,9.34.48,12.89h0c.67,3.23,1.71,5.78,2.72,7.52.94,1.64,1.88,2.54,2.51,2.63.59.09,1.38-.54,2.14-1.66.62-.9,1.22-2.12,1.72-3.58.56-1.62.98-3.53,1.13-5.58-.17.3-.34.6-.52.85h0Z" style="fill:#cf1800; isolation:isolate; mix-blend-mode:multiply; opacity:.2; stroke-width:0px;"/><path d="M18.97,23.87c-.76,1.13-1.55,1.75-2.14,1.66-.62-.09-1.56-.99-2.51-2.63-1.02-1.74-2.05-4.29-2.72-7.52h0c-.55-2.56-.85-5.54-.77-8.89-.19.04-.36.1-.49.18h0c-.21.12-.35.27-.44.45-.04.07-.06.16-.06.24-.59,4.98-.27,9.34.48,12.89h0c.67,3.23,1.71,5.78,2.72,7.52.94,1.64,1.88,2.54,2.51,2.63.59.09,1.38-.54,2.14-1.66.62-.9,1.22-2.12,1.72-3.58.4-1.18.74-2.52.94-3.95-.42,1.04-.88,1.94-1.37,2.63v.02Z" style="fill:#cf1800; isolation:isolate; mix-blend-mode:multiply; opacity:.2; stroke-width:0px;"/><path d="M2.48,16.89c0,1.29-.83,2.33-1.86,2.32-.2,0-.41-.05-.6-.13-.06-1.4,0-2.86.24-4.34,0-.05.01-.09.03-.15.12-.03.22-.05.34-.04,1.02,0,1.85,1.05,1.85,2.33Z" style="fill:#332d2d; stroke-width:0px;"/><path d="M6.58,22.09c0,.8-.46,1.44-1.02,1.44-.56,0-1.02-.65-1.01-1.44s.46-1.44,1.02-1.44,1.02.65,1.01,1.44Z" style="fill:#332d2d; stroke-width:0px;"/><path d="M4.06,28.36c0,.52-.18.98-.46,1.29-.56-.59-1.12-1.47-1.65-2.58h0c.22-.24.51-.4.83-.39.71,0,1.29.77,1.28,1.7h0Z" style="fill:#332d2d; stroke-width:0px;"/><path d="M8.68,15.56c0,1.13-.83,2.04-1.85,2.03s-1.83-.92-1.84-2.04c0-1.13.83-2.04,1.85-2.03,1.01,0,1.83.92,1.84,2.04Z" style="fill:#332d2d; stroke-width:0px;"/><path d="M5.86,7.19c0,.35-.12.67-.33.91q-.14.16,0,0c-.19.22-.44.4-.73.47h0c-.12.03-.23.05-.36.05-.23,0-.44-.05-.63-.15.66-.54,1.36-.97,2.05-1.29h0Z" style="fill:#332d2d; stroke-width:0px;"/><path d="M16.54,9.77c0,1.02-.77,1.86-1.71,1.86s-1.7-.84-1.7-1.87c0-1.02.77-1.86,1.71-1.86s1.7.84,1.7,1.87Z" style="fill:#332d2d; stroke-width:0px;"/><path d="M20.53,19.45c-1-.19-1.75-1.07-1.74-2.12,0-1,.69-1.85,1.62-2.09.19,1.43.23,2.84.13,4.2h0Z" style="fill:#332d2d; stroke-width:0px;"/><path d="M15.62,21.09c0,1.01-.64,1.83-1.43,1.84-.79,0-1.42-.83-1.42-1.84,0-1.01.64-1.83,1.43-1.84.79,0,1.42.83,1.42,1.84Z" style="fill:#332d2d; stroke-width:0px;"/><path d="M19.39,25.18c-.5,1.46-1.1,2.68-1.72,3.58-.4-.38-.64-.95-.64-1.56,0-1.15.85-2.07,1.91-2.08.15,0,.3.03.44.06h0Z" style="fill:#332d2d; stroke-width:0px;"/><path d="M13.73,14.04c0,.85-.62,1.52-1.38,1.52s-1.37-.69-1.37-1.54c0-.85.62-1.52,1.38-1.52s1.37.69,1.37,1.54Z" style="fill:#332d2d; stroke-width:0px;"/><path d="M13.9,6.85c-.15.21-.4.34-.67.34-.43,0-.78-.31-.83-.72.47.07.98.2,1.51.38h0Z" style="fill:#332d2d; stroke-width:0px;"/><path d="M6.96,26.34c-.41.06-.9-.23-1.41-.75-.56-.59-1.12-1.47-1.65-2.58h0c-.97-2.06-1.76-4.87-1.91-7.98-.06-1.4,0-2.86.24-4.34,0-.05.01-.09.03-.15.04-.22.1-.44.15-.66-.99,1.21-1.77,2.76-2.11,4.7,0,.05-.02.1-.03.15-.24,1.47-.3,2.94-.24,4.34.14,3.11.94,5.91,1.91,7.97h0c.53,1.12,1.09,2.01,1.65,2.58.51.53,1,.81,1.41.75.63-.08,1.57-.99,2.53-2.61.56-.94,1.11-2.11,1.62-3.49-.83,1.27-1.63,1.98-2.18,2.05h0Z" style="fill:#cf1800; isolation:isolate; mix-blend-mode:multiply; opacity:.3; stroke-width:0px;"/><path d="M7.71,27.4c-.95,1.63-1.9,2.52-2.53,2.61-.41.06-.9-.23-1.41-.75-.56-.59-1.12-1.47-1.65-2.58h0c-.97-2.06-1.76-4.87-1.91-7.98-.06-1.4,0-2.85.24-4.34,0-.05.01-.09.03-.15.17-.97.46-1.83.81-2.61-.45.87-.8,1.87-.99,2.99,0,.05-.02.1-.03.15-.24,1.47-.3,2.94-.24,4.34.14,3.11.94,5.91,1.91,7.97h0c.53,1.12,1.09,2.01,1.65,2.58.51.53,1,.81,1.41.75.63-.08,1.57-.99,2.53-2.61.29-.48.57-1.01.84-1.61-.22.45-.44.86-.66,1.22h0Z" style="fill:#ff1e00; isolation:isolate; opacity:.4; stroke-width:0px;"/><path d="M18.48,12.76c-.69.78-2.38.42-3.77-.81-1.4-1.22-1.97-2.86-1.28-3.64s2.38-.42,3.77.81,1.97,2.86,1.28,3.64Z" style="fill:#ffa194; isolation:isolate; opacity:.3; stroke-width:0px;"/><path d="M17.21,10.56c-.29.33-1.01.17-1.6-.34s-.83-1.21-.54-1.54,1.01-.17,1.6.34.83,1.21.54,1.54Z" style="fill:#ffa194; isolation:isolate; opacity:.3; stroke-width:0px;"/><path d="M5.82,7.84c-5.97,2.3-2.17,6.91-.22,5.85s2.38-4.17,3.19-5.27c.81-1.1.26-1.81-2.97-.57Z" style="fill:#ff1e00; isolation:isolate; opacity:.4; stroke-width:0px;"/><path d="M6.23,7.69C-.72,11.65,1.62,19.92,1.75,20.15s-.16-4.38,2.06-7.66c2.22-3.28,5.14-6.35,2.42-4.79Z" style="fill:#ff7966; isolation:isolate; opacity:.3; stroke-width:0px;"/><path d="M20.02,18.9c-1.33,9.31-3.56,9.94-3.82,10.01-.26.09,2.05-2.13,2.55-5.85.5-3.73,1.27-4.16,1.27-4.16Z" style="fill:#ff7966; isolation:isolate; opacity:.2; stroke-width:0px;"/><path d="M8.25,3.63c-3.31-.32-2.8-2.63-1.97-3.36s2.11.19.59.86-.16,2.48,1.77,2.13,2.91.7-.4.37Z" style="fill:#332d2d; stroke-width:0px;"/><path d="M12.04,3.64c3.31-.31,2.81-2.62,1.99-3.35-.82-.74-2.11.19-.6.87s.15,2.47-1.79,2.12-2.91.68.4.38h0Z" style="fill:#332d2d; stroke-width:0px;"/></g></g></g></g></svg>