<svg id="Capa_1" enable-background="new 0 0 512 512" height="512" viewBox="0 0 512 512" width="512" xmlns="http://www.w3.org/2000/svg"><g><path d="m286 331h105v30h-105z" fill="#474f54"/><path d="m121 331h105v30h-105z" fill="#575f64"/><path d="m121 451c-33.091 0-60-26.909-60-60s26.909-60 60-60 60 26.909 60 60-26.909 60-60 60z" fill="#474f54"/><circle cx="121" cy="391" fill="#e64545" r="30"/><path d="m391 451c-33.091 0-60-26.909-60-60s26.909-60 60-60 60 26.909 60 60-26.909 60-60 60z" fill="#32393f"/><circle cx="391" cy="391" fill="#cc2929" r="30"/><path d="m256 0h-45v512h45 45v-512z" fill="#474f54"/><path d="m256 0h45v512h-45z" fill="#32393f"/><path d="m346 151 80.771-46.626 16.465-61.479-61.465-16.48-125.771 72.627-125.771-72.627-61.465 16.48 16.465 61.479 80.771 46.626-80.771 46.626-16.465 61.479 61.465 16.48 125.771-72.627 125.771 72.627 61.465-16.48-16.465-61.479z" fill="#e64545"/><path d="m443.236 259.105-16.465-61.479-80.771-46.626 80.771-46.626 16.465-61.479-61.465-16.48-125.771 72.627v103.916l125.771 72.627z" fill="#cc2929"/><path d="m286 151 115.02-66.401 5.478-20.494-20.478-5.493-130.02 75.059-130.02-75.059-20.478 5.493 5.478 20.494 115.02 66.401-115.02 66.401-5.478 20.494 20.478 5.493 130.02-75.059 130.02 75.059 20.478-5.493-5.478-20.494z" fill="#f2f2fc"/><path d="m406.498 237.895-5.478-20.494-115.02-66.401 115.02-66.401 5.478-20.494-20.478-5.493-130.02 75.059v34.658l130.02 75.059z" fill="#e2d9fb"/></g></svg>