<?xml version="1.0" encoding="UTF-8"?><svg id="Calque_2" xmlns="http://www.w3.org/2000/svg" viewBox="0 0 1071.8051 1180.2312"><g id="Artwork"><path d="m415.7844,619.0787l147.3364,166.9043s26.8159,32.768-10.6587,30.8836c-37.4747-1.8845-177.1146-193.0999-177.1146-193.0999,0,0,12.7729-36.0261,40.4369-4.688Z" style="fill:#1a1a3d; stroke-width:0px;"/><polygon points="446.8363 596.2636 45.5236 891.1249 264.7299 1123.9187 577.1177 770.1311 446.8363 596.2636" style="fill:#ffa799; stroke-width:0px;"/><path d="m403.5431,628.0729s56.1094,116.0422,152.3058,166.1456l-19.1299,21.6652-155.8027-171.1859,22.6268-16.6249Z" style="fill:#351c1c; opacity:.09; stroke-width:0px;"/><path d="m446.8363,596.2636s50.3831-113.9712,80.176-189.6251c29.7929-75.6539,24.6572-110.5732,67.935-107.9136,43.2779,2.6596,104.6396-7.9501,115.0075-16.6485,10.368-8.6984,72.4414-113.8563,96.5071-133.7868,24.0658-19.9306,118.5132-101.5068,130.3568-110.9236,11.8436-9.4167,41.1321-37.366,41.1321-37.366,0,0,33.7447,1.8248,23.8236,37.6859-9.9213,35.8611-129.2305,143.2314-140.8895,169.8991s-92.4076,235.7378-85.6799,258.9299c6.7278,23.1921,8.0387,72.751,33.3473,74.1195,25.3084,1.3687,94.4899-35.4561,116.2051-66.3611,13.2685-18.8829,33.0919-33.9817,51.7333-47.1786,17.7287-12.5509,44.0273-35.9883,67.3593-27.2589,19.6242,7.3422,36.288,18.5876,22.6598,40.7663-16.8041,27.3473-75.1578,96.8272-90.7485,113.5444-15.5908,16.7171-118.4839,133.4361-164.5284,149.4642-46.0444,16.0281-225.3392,69.5492-234.1152,66.5204s-94.0701-58.2466-130.2814-173.8675Z" style="fill:#ffa799; stroke-width:0px;"/><path d="m940.5059,34.3225c.7055-.6009,12.4014,24.4698,54.0402-28.2288,0,0-4.1238-5.4725-16.5953-6.0937l-37.4449,34.3225Z" style="fill:#ffd0ca; stroke-width:0px;"/><path d="m1005.2037,436.8929s22.8666-26.4813,41.0557-31.0871c18.1891-4.6059,39.224,12.2418,13.7388,46.2978l-22.7243,23.8398s-27.0484,6.8704-32.0702-39.0505Z" style="fill:#ffd0ca; stroke-width:0px;"/><path d="m415.7844,619.0787s-18.4196-18.2002-29.5011-5.6558c-11.0815,12.5442,59.4116,102.3482,91.3573,135.4713,31.9458,33.1232,92.8923,77.0736,92.5945,58.9651-.2979-18.1085-7.1143-21.8763-7.1143-21.8763,0,0,24.7179,23.0411,8.4476,34.6131-16.2704,11.5719-326.2732,359.6351-326.2732,359.6351L0,892.6009l382.8613-285.2698s21.7624-7.0649,32.9231,11.7476Z" style="fill:#3f3d82; stroke-width:0px;"/><path d="m345.4606,663.8064c-2.5684,2.6485.7141,6.4614,3.718,4.3299,3.2396-2.2988,6.1022-5.2679,9.0551-7.9236,2.7506-2.4737,5.6733-4.9216,8.009-7.7974,1.3064-1.6085-.8721-4.1166-2.6511-3.0765-3.195,1.8686-6.0605,4.3867-8.9204,6.7253-3.0764,2.5153-6.4445,4.89-9.2106,7.7423Z" style="fill:#6262af; stroke-width:0px;"/><path d="m335.5308,681.5365c-4.6785,2.0377-9.7774,3.705-13.8218,6.919-2.3304,1.8519.2195,4.9212,2.6604,4.049,4.7964-1.7138,8.9027-5.2389,13.051-8.0922,1.6848-1.1587-.1643-3.6274-1.8896-2.8758Z" style="fill:#6262af; stroke-width:0px;"/><path d="m290.0542,719.2523c5.5094-1.5427,11.3319-5.0134,14.4897-9.9218,1.1304-1.7571-1.0404-3.6102-2.6621-2.3886-4.1115,3.0971-7.8754,5.5308-12.898,6.9371-3.3723.9443-2.3359,6.3271,1.0704,5.3733Z" style="fill:#6262af; stroke-width:0px;"/><path d="m255.1703,750.3549c3.6711-3.1125,6.9052-6.5594,10.1155-10.1388,1.5461-1.7238-1.2137-3.7983-2.8642-2.57-3.7161,2.7654-7.2769,5.5801-10.5826,8.829-2.329,2.2892.7969,6.0284,3.3313,3.8798Z" style="fill:#6262af; stroke-width:0px;"/><path d="m221.6064,776.8595c4.0344-2.9772,7.6805-6.4387,11.6874-9.4452,1.916-1.4376-.5018-4.1901-2.4093-2.8057-4.08,2.9609-8.4904,5.4449-12.5499,8.4406-2.6066,1.9235.6852,5.719,3.2718,3.8103Z" style="fill:#6262af; stroke-width:0px;"/><path d="m352.2287,699.953c5.502-3.1273,10.9187-6.8977,15.8962-10.8035,2.2437-1.7607-.1978-5.3578-2.71-4.1249-5.6987,2.7968-11.4198,6.0595-16.6422,9.6685-2.9539,2.0411.3379,7.0321,3.456,5.2599Z" style="fill:#6262af; stroke-width:0px;"/><path d="m329.039,716.5517c-3.9792,5.3818-9.1885,9.4928-13.7904,14.2868-1.6414,1.7098.1138,5.2675,2.4863,3.784,6.2688-3.9196,10.5126-9.7498,14.6928-15.746,1.5185-2.1781-1.8214-4.4445-3.3887-2.3248Z" style="fill:#6262af; stroke-width:0px;"/><path d="m269.3903,776.8823c10.1326-5.0317,18.5662-12.5459,25.8078-21.1739,1.5649-1.8644-1.5201-4.6653-3.2013-2.8723-7.2727,7.7569-15.7882,13.9345-24.8446,19.4492-2.7609,1.6813-.7645,6.088,2.2381,4.597Z" style="fill:#6262af; stroke-width:0px;"/><path d="m241.8077,790.8144c-4.4414,6.6965-10.3224,11.3209-16.7904,15.9253-2.3452,1.6696.223,5.2121,2.6852,4.087,7.6875-3.5129,13.6696-10.2165,17.9079-17.4033,1.4937-2.5325-2.1475-5.1047-3.8027-2.609Z" style="fill:#6262af; stroke-width:0px;"/><path d="m187.3695,802.9541c-6.4301,4.7485-12.9756,9.3318-19.421,14.059-2.4181,1.7736.6375,5.315,3.0338,3.5333,6.4055-4.7629,12.7025-9.6637,19.1237-14.4055,2.1795-1.6096-.5736-4.784-2.7365-3.1868Z" style="fill:#6262af; stroke-width:0px;"/><path d="m143.3081,847.4596c3.1874-2.2053,6.1518-4.7004,9.1709-7.1292,2.2224-1.7878-.5788-4.8319-2.8256-3.2907-3.2049,2.1983-6.4591,4.3239-9.4982,6.7481-2.4828,1.9806.648,5.4048,3.1529,3.6718Z" style="fill:#6262af; stroke-width:0px;"/><path d="m203.9133,826.1331c-3.584,4.767-8.8176,7.9851-13.954,10.8489-2.9178,1.6267-.8198,5.8708,2.2581,4.6379,6.5289-2.6155,11.0764-7.5585,15.1222-13.136,1.5766-2.1736-1.8261-4.4792-3.4263-2.3508Z" style="fill:#6262af; stroke-width:0px;"/><path d="m162.3074,863.2929c-5.1224,4.1897-10.4837,8.2101-15.0263,13.0397-2.1888,2.3272.6131,5.6623,3.2421,3.7757,5.387-3.8659,10.0788-8.6527,14.9073-13.1783,2.2492-2.1082-.7268-5.5973-3.1231-3.6371Z" style="fill:#6262af; stroke-width:0px;"/><path d="m109.3298,870.6875c-1.0459.5093-2.0919,1.0185-3.1379,1.5278-1.075.5233-1.6397,1.9666-1.0531,3.0513.5885,1.0878,1.9042,1.6115,3.0514,1.0531,1.0459-.5093,2.0919-1.0186,3.1378-1.5278,1.075-.5233,1.6398-1.9666,1.0531-3.0513-.5884-1.0879-1.9041-1.6115-3.0513-1.0531Z" style="fill:#6262af; stroke-width:0px;"/><path d="m124.7413,893.5848c-6.8865,4.9138-14.6552,9.2176-20.9498,14.8655-1.8472,1.6573.1542,5.0482,2.4615,3.7462,7.5424-4.2562,14.2334-10.3234,21.2545-15.3902,2.2235-1.6046-.5613-4.7946-2.7662-3.2215Z" style="fill:#6262af; stroke-width:0px;"/><path d="m87.3531,894.785c-3.6887,3.0736-7.4124,6.0895-11.1725,9.0754-2.7857,2.2121.9312,6.555,3.5991,4.1914,3.5925-3.1828,7.2083-6.3245,10.875-9.4218,2.498-2.1101-.7969-5.9318-3.3016-3.845Z" style="fill:#6262af; stroke-width:0px;"/><path d="m378.4836,713.9627c6.004-3.4984,11.5586-8.4094,16.4901-13.2819,1.6044-1.5852-.1151-4.8323-2.3122-3.5194-5.9122,3.5336-12.1328,7.6229-16.9874,12.5252-1.921,1.94.1079,5.8503,2.8095,4.2761Z" style="fill:#6262af; stroke-width:0px;"/><path d="m353.2034,740.0593c3.2356-2.8071,5.8532-6.238,8.5834-9.5226,1.8258-2.1964-1.7083-5.3743-3.7404-3.3562-3.0343,3.0135-6.2046,5.9259-8.7181,9.4017-1.7506,2.4206,1.634,5.4215,3.8751,3.4771Z" style="fill:#6262af; stroke-width:0px;"/><path d="m311.1577,781.5201c6.7909-5.1023,12.4196-11.5328,18.7219-17.1912,2.1653-1.9443-.7574-5.3542-2.9446-3.4294-6.3554,5.5926-13.3956,10.4265-19.2574,16.5679-2.3571,2.4696.696,6.1445,3.4801,4.0527Z" style="fill:#6262af; stroke-width:0px;"/><path d="m272.6434,813.9678c5.7205-4.9379,11.1918-10.146,16.6941-15.3235,2.1561-2.0288-.7199-5.4146-3.0042-3.4985-5.7852,4.8528-11.5969,9.6715-17.1699,14.7692-2.5347,2.3185.8704,6.3053,3.48,4.0528Z" style="fill:#6262af; stroke-width:0px;"/><path d="m231.9701,843.4723c5.786-3.3387,10.8171-7.9804,16.0093-12.1603,2.3463-1.889-.6295-5.1978-3.004-3.4985-5.2462,3.7538-10.9513,7.237-15.5662,11.7611-1.7958,1.7607.1145,5.3094,2.5609,3.8977Z" style="fill:#6262af; stroke-width:0px;"/><path d="m211.4048,856.9269c-5.7065,3.6692-10.6833,8.4644-15.0022,13.6728-1.7729,2.1382,1.487,4.7684,3.5046,3.1445,5.0788-4.0875,9.9365-8.9874,13.5437-14.4432.8222-1.2436-.6095-3.2977-2.0461-2.3741Z" style="fill:#6262af; stroke-width:0px;"/><path d="m165.0898,892.2473c-2.092,3.7452-5.2005,6.7011-9.0467,8.6099-3.064,1.5206-.7921,6.1468,2.318,4.7612,5.1262-2.2839,8.7567-6.1096,11.2133-11.1108,1.2494-2.5436-3.0944-4.749-4.4846-2.2603Z" style="fill:#6262af; stroke-width:0px;"/><path d="m122.5499,932.0563c-.855-.9963-2.6151-1.2439-3.6055-.2742l-3.9429,3.8604c-.9861.9655-1.214,2.5102-.2742,3.6054.855.9964,2.615,1.2439,3.6055.2743,1.3143-1.287,2.6287-2.5737,3.9429-3.8605.9861-.9655,1.2141-2.5102.2742-3.6054Z" style="fill:#6262af; stroke-width:0px;"/><path d="m406.3977,725.8005c3.3836-2.5204,6.5345-5.2284,9.4841-8.2511.9148-.9374,2.2327-1.8855,2.3927-3.276.0432-.3752-.0136-1.7281-.4892-1.9172-2.9274-1.164-4.78.929-7.0706,2.6842-2.7427,2.1014-5.281,4.3487-7.7376,6.7766-2.4102,2.3821.7049,6.0065,3.4206,3.9835Z" style="fill:#6262af; stroke-width:0px;"/><path d="m379.6172,752.799c4.4186-3.9472,8.3924-8.1869,12.405-12.5418,2.0481-2.2228-.9208-5.8548-3.1231-3.637-4.3161,4.3461-8.5054,8.651-12.382,13.397-1.5191,1.8598,1.3508,4.3444,3.1001,2.7818Z" style="fill:#6262af; stroke-width:0px;"/><path d="m361.1115,763.4709c-7.8899,8.188-16.4307,16.116-23.3376,25.1686-1.6705,2.1894,1.5403,5.0202,3.5719,3.205,8.4844-7.5809,15.7226-16.7349,23.2702-25.2291,1.7725-1.9948-1.6414-5.0781-3.5045-3.1445Z" style="fill:#6262af; stroke-width:0px;"/><path d="m327.2808,806.6387c1.9666-2.0368-.7437-5.3559-2.9149-3.3946-6.8254,6.1653-13.6563,12.2886-20.1861,18.7684-2.5244,2.5052,1.0037,6.7019,3.6288,4.2259,6.7077-6.3264,13.0689-12.9674,19.4722-19.5997Z" style="fill:#6262af; stroke-width:0px;"/><path d="m272.3932,857.1145c5.8255-5.3656,11.4759-10.9106,17.16-16.4252,2.1159-2.0528-.7519-5.4672-3.004-3.4986-5.955,5.2051-11.9372,10.374-17.755,15.7325-2.6147,2.4081.9805,6.603,3.599,4.1913Z" style="fill:#6262af; stroke-width:0px;"/><path d="m230.5464,888.4551c8.6392-3.1627,15.2741-9.7526,19.8199-17.6504,1.4774-2.5668-2.2106-5.1867-3.8404-2.635-4.468,6.9957-10.7909,12.178-17.8778,16.3862-2.4242,1.4395-.7167,4.8565,1.8983,3.8992Z" style="fill:#6262af; stroke-width:0px;"/><path d="m194.069,908.3877c-1.8224,1.5588-3.6448,3.1175-5.4673,4.6762-1.9262,1.6475.6086,4.5831,2.558,2.979,1.8522-1.5241,3.7043-3.0482,5.5565-4.5723,2.0226-1.6643-.6584-4.7839-2.6472-3.0829Z" style="fill:#6262af; stroke-width:0px;"/><path d="m147.9097,943.2547c-2.8584,2.0794-5.7169,4.159-8.5754,6.2385-2.2287,1.6215.5556,4.7583,2.7662,3.2214,2.9081-2.0218,5.8161-4.0436,8.7242-6.0653,2.3514-1.6348-.5874-5.0879-2.915-3.3946Z" style="fill:#6262af; stroke-width:0px;"/><path d="m423.157,760.3083c5.5939-6.0157,10.8753-12.1809,15.9717-18.625,1.7197-2.1745-1.6505-5.2324-3.6393-3.2654-5.8407,5.7767-11.3864,11.7055-16.7468,17.9294-2.1911,2.5442,2.1083,6.441,4.4144,3.961Z" style="fill:#6262af; stroke-width:0px;"/><path d="m390.9766,792.0535c4.7374-4.9514,8.7881-10.4947,13.2241-15.7115,1.8012-2.1182-1.7462-4.4635-3.5392-2.4283-4.4009,4.9956-9.1877,9.6552-13.2906,14.9045-1.6821,2.1523,1.6819,5.2458,3.6057,3.2353Z" style="fill:#6262af; stroke-width:0px;"/><path d="m368.7496,806.7728c-4.1424,3.9552-8.7313,7.4412-12.4385,11.8273-1.8207,2.1541,1.4994,4.7803,3.5383,3.1747,4.3415-3.4189,7.8438-7.7873,11.7853-11.642,2.0277-1.9831-.8161-5.3356-2.8851-3.36Z" style="fill:#6262af; stroke-width:0px;"/><path d="m329.4898,853.0662c5.8817-5.2658,10.8306-11.5174,16.0329-17.4332,1.2671-1.441-1.1111-3.5291-2.4937-2.2375-5.778,5.3977-11.8367,10.5568-16.9427,16.6169-1.6993,2.0171,1.4889,4.768,3.4035,3.0538Z" style="fill:#6262af; stroke-width:0px;"/><path d="m314.7234,861.2427c-5.8972,6.1565-12.7809,11.0951-18.8651,17.0214-1.5379,1.4979.1112,4.5551,2.1879,3.33,7.4408-4.3895,13.4895-10.9637,19.3839-17.1994,1.8186-1.9239-.8534-5.0869-2.7067-3.152Z" style="fill:#6262af; stroke-width:0px;"/><path d="m260.4054,914.0723c8.5677-5.3896,15.7578-12.7265,23.2434-19.4873,2.2482-2.0305-.7337-5.5056-3.0636-3.5678-7.7564,6.451-16.0487,12.528-22.6004,20.2463-1.2142,1.4304.8274,3.811,2.4206,2.8088Z" style="fill:#6262af; stroke-width:0px;"/><path d="m240.4482,921.8734c-7.3894,5.3808-15.4735,10.4591-22.0171,16.8638-1.7531,1.7158.1388,5.2581,2.5112,3.8219,8.0133-4.8509,15.0883-11.4825,22.3018-17.4296,2.1603-1.781-.5937-4.8597-2.7959-3.2561Z" style="fill:#6262af; stroke-width:0px;"/><path d="m186.0692,964.4624c5.4405-3.5584,10.1413-7.9435,14.9914-12.254,1.9948-1.773-.5821-4.7018-2.677-3.1175-5.0226,3.7983-10.1591,7.422-14.577,11.928-1.5162,1.5462.1469,4.8272,2.2626,3.4435Z" style="fill:#6262af; stroke-width:0px;"/><path d="m169.6479,974.1201c-4.5513,4.9317-9.7608,9.0431-15.5458,12.4413-2.7058,1.5893-.6613,5.9576,2.1582,4.4327,6.5109-3.5215,12.062-8.1358,16.9932-13.6387,1.8296-2.0418-1.7299-5.2678-3.6056-3.2353Z" style="fill:#6262af; stroke-width:0px;"/><path d="m442.8686,781.8934c3.5923-4.0359,7.0103-8.0079,11.431-11.1733,2.3563-1.6872-.5806-5.0145-2.9149-3.3947-4.735,3.2858-9.2145,7.0634-12.1307,12.0882-1.4467,2.4928,1.7673,4.5553,3.6146,2.4798Z" style="fill:#6262af; stroke-width:0px;"/><path d="m412.6639,809.0455c-2.1234,2.2964-4.2641,4.5653-6.453,6.7993-2.1376,2.1819,1.1423,5.1771,3.1339,2.8119,2.0141-2.3916,4.0675-4.7388,6.1497-7.0714,1.4334-1.6057-1.3566-4.1338-2.8306-2.5398Z" style="fill:#6262af; stroke-width:0px;"/><path d="m379.6536,839.8921c-3.2037,4.0982-6.7662,7.9527-9.7032,12.2443-1.4763,2.1571,1.6514,4.1459,3.2757,2.2474,3.3758-3.9459,6.1679-8.377,9.289-12.5285,1.3495-1.795-1.4959-3.7101-2.8615-1.9632Z" style="fill:#6262af; stroke-width:0px;"/><path d="m338.4555,887.4853c4.2153-4.1259,8.1976-8.4764,12.2362-12.7746,1.8935-2.0152-.7916-5.312-2.8554-3.3254-4.2382,4.0797-8.5292,8.1048-12.5931,12.3589-2.1594,2.2605.9205,5.9841,3.2123,3.7411Z" style="fill:#6262af; stroke-width:0px;"/><path d="m302.4874,917.7088c2.7331-2.997,5.4662-5.9942,8.1992-8.9912,1.225-1.3433-.586-3.5325-1.8738-2.1823-2.7925,2.9278-5.5851,5.8556-8.3777,8.7834-1.3996,1.4673.6999,3.8731,2.0523,2.3901Z" style="fill:#6262af; stroke-width:0px;"/><path d="m260.4981,954.5871c6.173-4.1479,11.8689-8.8819,17.6245-13.5834,2.2955-1.8752-.6493-5.2198-2.9744-3.464-5.9257,4.4749-11.872,8.8817-17.3568,13.8953-2.0263,1.8522.539,4.6088,2.7067,3.1521Z" style="fill:#6262af; stroke-width:0px;"/><path d="m229.63,971.5221c-4.4811,4.442-9.6261,8.0546-14.4146,12.1378-1.73,1.4753.1221,4.2415,2.163,3.2924,6.1716-2.8701,10.916-7.571,15.3518-12.6486,1.5587-1.7841-1.4181-4.449-3.1002-2.7816Z" style="fill:#6262af; stroke-width:0px;"/><path d="m193.6202,997.9493c-8.0045,4.5481-16.4861,8.7024-24.0402,13.9727-2.5178,1.7565.2633,5.8878,2.9338,4.4652,8.1083-4.3188,15.6486-10.0232,23.3192-15.07,1.9195-1.263-.2178-4.5014-2.2128-3.3679Z" style="fill:#6262af; stroke-width:0px;"/><path d="m464.5918,805.708c3.393-3.7297,6.3786-7.7254,9.4146-11.7472,1.8076-2.3944-1.8875-4.7441-3.7652-2.5831-3.1681,3.646-6.3649,7.2314-9.1876,11.1554-1.5452,2.148,1.6801,5.2173,3.5382,3.1749Z" style="fill:#6262af; stroke-width:0px;"/><path d="m429.2697,830.092c-1.8805,4.1657-4.8504,7.5133-7.8182,10.926-2.0767,2.3881,1.6226,4.9988,3.8415,3.4469,4.3384-3.0342,6.9809-7.8272,8.5077-12.8092.9165-2.9907-3.2765-4.3428-4.531-1.5637Z" style="fill:#6262af; stroke-width:0px;"/><path d="m394.4362,872.8923c3.5665-3.0769,6.4976-6.5807,9.5486-10.1579,1.8903-2.2163-1.7316-5.4533-3.8078-3.4166-3.3589,3.295-6.6243,6.4737-9.4476,10.2486-1.7202,2.3,1.5724,5.1672,3.7068,3.3259Z" style="fill:#6262af; stroke-width:0px;"/><path d="m370.2169,896.2618c5.7563-3.2681,10.1576-7.9572,13.9528-13.3245,1.4461-2.0451-1.7348-4.2119-3.2004-2.1957-3.5309,4.8574-8.1862,8.5615-13.1143,11.9252-2.0273,1.3836.2313,4.8047,2.3619,3.595Z" style="fill:#6262af; stroke-width:0px;"/><path d="m348.4717,919.7959c3.4338-3.6835,6.5336-7.6628,9.7192-11.5609,2.0875-2.5546-2.081-5.2782-4.1794-2.8674-3.1585,3.6289-6.4324,7.1832-9.3476,11.0116-1.7406,2.2858,1.7974,5.5733,3.8078,3.4167Z" style="fill:#6262af; stroke-width:0px;"/><path d="m324.6271,941.1508c4.0231-2.6827,7.2935-6.9577,10.6391-10.4245,1.8497-1.9166-.7587-5.0758-2.7364-3.1867-3.613,3.4508-8.0343,6.8143-10.8344,10.9806-1.3405,1.9946,1.1516,3.8175,2.9317,2.6306Z" style="fill:#6262af; stroke-width:0px;"/><path d="m302.396,959.4068c.8889.9495,2.2331,1.0387,3.2514.2473,1.1702-.9096,2.3404-1.8191,3.5107-2.7287.9637-.7492,1.0094-2.2932.2423-3.187-.8426-.9816-2.2056-.9733-3.187-.2423-1.1901.8865-2.3801,1.773-3.5701,2.6594-.9697.7223-1.0578,2.3855-.2473,3.2513Z" style="fill:#6262af; stroke-width:0px;"/><path d="m274.8639,982.1588c-.8015-.934-2.4516-1.1661-3.3801-.257-1.3143,1.2868-2.6286,2.5736-3.9429,3.8604-.9245.905-1.1382,2.3534-.2571,3.3801.8016.9339,2.4517,1.1661,3.3802.257,1.3143-1.2868,2.6286-2.5736,3.9429-3.8605.9245-.9051,1.1382-2.3532.257-3.38Z" style="fill:#6262af; stroke-width:0px;"/><path d="m255.5833,998.8293c-5.6112,4.6256-12.2182,8.677-16.9942,14.1858-1.3942,1.6082.9241,4.2119,2.7088,3.1431,6.2475-3.7409,11.3816-9.5633,16.9027-14.2806,1.9719-1.6846-.6239-4.6916-2.6173-3.0483Z" style="fill:#6262af; stroke-width:0px;"/><path d="m223.3961,1024.3225c-3.3672,3.3261-7.1734,6.4131-10.1519,10.0877-1.4796,1.8253,1.2536,4.0361,2.9654,2.6607,3.5423-2.8461,6.5335-6.5449,9.7444-9.7694,1.7721-1.7794-.7549-4.7599-2.5579-2.979Z" style="fill:#6262af; stroke-width:0px;"/><path d="m197.9933,1047.8976c-1.2381-.8478-2.5852-.3664-3.4916.65-1.5936,1.7871-3.6247,3.4101-4.4426,5.6941-.6536,1.8252,1.3989,3.7233,3.1567,2.7967,2.3165-1.2209,3.7582-3.6732,5.4276-5.6492.8753-1.0361.3886-2.7802-.6501-3.4916Z" style="fill:#6262af; stroke-width:0px;"/><path d="m480.9531,833.4474c7.8878-5.5419,13.9859-13.3586,19.6122-21.102,1.8764-2.5823-2.058-5.1445-4.0287-2.764-6.0028,7.2507-12.9264,13.628-18.9531,20.8425-1.7774,2.1276,1.4143,4.3974,3.3696,3.0235Z" style="fill:#6262af; stroke-width:0px;"/><path d="m454.3393,859.143c.7456.8876,2.4871,1.2021,3.3479.2545,2.2428-2.4689,4.3565-5.0325,6.5793-7.5168,1.6402-1.833-1.5527-4.7266-3.235-2.9025-2.1218,2.3005-4.3324,4.4994-6.4378,6.8169-.8682.9558-1.1507,2.2812-.2544,3.3479Z" style="fill:#6262af; stroke-width:0px;"/><path d="m426.9192,891.8516c5.412-4.5178,9.9925-9.7888,15.1513-14.541,1.6623-1.5312-.5614-4.1377-2.2903-2.6671-5.3364,4.539-11.1164,8.4403-16.2517,13.2592-2.4379,2.2878.8083,6.1048,3.3907,3.9489Z" style="fill:#6262af; stroke-width:0px;"/><path d="m387.1752,927.7684c5.7874-4.5323,10.6253-10.2064,15.8019-15.4068,2.1567-2.1666-.8749-5.782-3.1231-3.637-5.4656,5.2144-11.3556,10.0713-16.1497,15.9296-1.7537,2.1429,1.463,4.6867,3.4709,3.1142Z" style="fill:#6262af; stroke-width:0px;"/><path d="m369.7069,944.2294c-5.8615,5.2015-12.3093,10.1338-17.5508,15.9613-1.9182,2.1326.5933,5.3271,2.9744,3.4639,6.1785-4.8349,11.5407-10.9451,17.1344-16.4462,1.7864-1.7569-.6506-4.6717-2.558-2.979Z" style="fill:#6262af; stroke-width:0px;"/><path d="m322.1169,986.2992c-2.706,1.994.7754,6.1155,3.4205,3.9835,5.6301-4.5377,10.7152-9.6231,15.3038-15.209,1.8012-2.1928-1.7637-4.4767-3.5769-2.4541-4.5637,5.0907-9.6465,9.6263-15.1474,13.6796Z" style="fill:#6262af; stroke-width:0px;"/><path d="m304.6126,1009.0898c4.8227-4.8179,9.3815-9.8731,14.085-14.8066,2.1081-2.2111-.9681-5.8575-3.1232-3.6371-4.7419,4.886-9.6112,9.6333-14.2336,14.6334-2.1494,2.3251.954,6.1259,3.2718,3.8103Z" style="fill:#6262af; stroke-width:0px;"/><path d="m286.7307,1020.152c.5447.5819,1.5556.926,2.2941.4747.4991-.3049,1.0593-.5791,1.4689-.998.3456-.3533.6803-.7177,1.0202-1.0762.7458-.7868,1.0427-2.0537.2228-2.9295-.7542-.8057-2.0675-.9998-2.9295-.2227-.3652.3292-.736.6529-1.096.9878-.4587.4267-.7724.9104-1.1071,1.4299-.4445.6899-.4608,1.7068.1266,2.334Z" style="fill:#6262af; stroke-width:0px;"/><path d="m261.714,1051.06c5.0194-6.0204,10.4128-11.322,17.4018-15.0062,2.9365-1.548.7649-6.0357-2.258-4.638-7.8643,3.6364-15.1602,9.0438-19.7373,16.4928-1.9029,3.0968,2.3215,5.8768,4.5935,3.1514Z" style="fill:#6262af; stroke-width:0px;"/><path d="m239.1956,1063.2651c-2.9182,3.1394-6.307,5.6196-10.0204,7.742-2.9647,1.6947-.8159,6.2532,2.3378,4.8023,4.3136-1.9845,8.0226-4.9279,11.2221-8.4223,2.3307-2.5455-1.1549-6.6875-3.5395-4.122Z" style="fill:#6262af; stroke-width:0px;"/><path d="m524.6172,823.9989c-2.7778,2.9452-5.5554,5.8902-8.3331,8.8353-1.9471,2.0644.9636,5.4436,2.8851,3.36,2.748-2.9798,5.4959-5.9595,8.2438-8.9393,1.8473-2.0031-.8942-5.2723-2.7958-3.256Z" style="fill:#6262af; stroke-width:0px;"/><path d="m488.3858,863.9439c-5.5298,3.2762-10.9122,6.8765-14.2401,12.4931-.8726,1.4727,1.0748,3.5788,2.3925,2.1468,4.0732-4.4266,7.7962-9.1748,12.9066-12.4646,1.281-.8246.3001-2.9804-1.059-2.1753Z" style="fill:#6262af; stroke-width:0px;"/><path d="m502.2836,853.6014c1.7571-1.1785,3.5462-2.2917,5.2497-3.5517,1.7097-1.2645,3.3175-2.4002,3.0989-4.7044-.0636-.6699-.7055-1.3368-1.3299-1.5233-2.1632-.646-3.6733.8723-5.1772,2.2584-1.5522,1.4308-2.9766,2.9737-4.4589,4.4727-1.8506,1.8714.4912,4.4743,2.6174,3.0483Z" style="fill:#6262af; stroke-width:0px;"/><path d="m461.1447,892.5474c-6.4606,4.9506-13.1393,9.5394-19.3983,14.7536-2.7173,2.2638.845,6.3889,3.5692,4.1567,6.2914-5.1548,12.0489-10.8408,18.1194-16.2432,1.7031-1.5156-.5039-4.0361-2.2903-2.6671Z" style="fill:#6262af; stroke-width:0px;"/><path d="m435.3076,915.7643c-6.0796,5.6121-12.1348,11.2337-17.9996,17.0719-2.42,2.4089.9952,6.4517,3.48,4.0528,5.9662-5.7602,11.7194-11.7161,17.4642-17.6955,1.9807-2.0615-.774-5.4329-2.9446-3.4292Z" style="fill:#6262af; stroke-width:0px;"/><path d="m382.5914,970.3637c8.6119-6.4198,16.8529-13.2461,25.2451-19.9406,2.1246-1.6949-.6066-4.8285-2.7365-3.1867-8.5054,6.5556-17.1032,12.9324-25.3938,19.7673-2.2225,1.8324.6235,5.0459,2.8852,3.36Z" style="fill:#6262af; stroke-width:0px;"/><path d="m372.7344,976.4819c-9.1428,6.6405-18.2372,13.3656-26.6124,20.9646-2.0541,1.8638.5477,4.6652,2.7364,3.1869,9.3735-6.3312,18.0745-13.5586,26.7017-20.8608,2.1621-1.83-.5988-4.9082-2.8257-3.2907Z" style="fill:#6262af; stroke-width:0px;"/><path d="m333.3145,1011.1641c-6.1862,4.6607-12.718,9.0486-18.0166,14.7313-1.5661,1.6796.0479,5.0443,2.4117,3.6706,6.9006-4.0103,12.7716-9.4917,18.847-14.6262,2.4707-2.0881-.7069-5.6858-3.2421-3.7757Z" style="fill:#6262af; stroke-width:0px;"/><path d="m293.1595,1048.181c-3.69,3.844-8.489,7.7859-11.0475,12.4964-1.3389,2.4652,1.303,4.9363,3.6394,3.2654,4.3669-3.1228,7.6839-8.356,11.0475-12.4965,1.7439-2.1467-1.7016-5.2841-3.6394-3.2653Z" style="fill:#6262af; stroke-width:0px;"/><path d="m265.6771,1077.7093c-5.954,5.4862-12.7454,9.7798-19.6715,13.9175-2.364,1.4122-.6951,4.6408,1.8384,3.7759,8.1507-2.7822,15.049-7.8486,21.1347-13.8485,2.3039-2.2715-.8847-6.072-3.3016-3.8449Z" style="fill:#6262af; stroke-width:0px;"/><path d="m537.1089,831.9864c-5.234,4.6331-10.4305,9.3012-15.6002,14.006-2.7671,2.5181,1.0764,6.9646,3.7774,4.3991,5.0753-4.8206,10.1159-9.6705,15.1243-14.5602,2.3164-2.2613-.8389-6.0248-3.3015-3.8449Z" style="fill:#6262af; stroke-width:0px;"/><path d="m499.1099,879.1867c-5.9484,4.2251-11.5865,8.6135-15.8509,14.6043-1.4459,2.0314,1.5502,4.8954,3.3361,2.9933,4.7964-5.1084,9.4425-10.4099,15.1323-14.5493,2.1019-1.5293-.5317-4.5298-2.6175-3.0483Z" style="fill:#6262af; stroke-width:0px;"/><path d="m462.6758,919.3073c-7.0603,6.2714-14.5887,11.8083-21.9198,17.7315-2.1068,1.7022.3053,5.588,2.6603,4.0491,8.1226-5.308,15.3162-12.3218,21.7531-19.5431,1.2868-1.4437-1.0911-3.4834-2.4936-2.2375Z" style="fill:#6262af; stroke-width:0px;"/><path d="m425.7597,954.9072c-6.021,6.8921-13.1786,12.1857-19.7393,18.462-2.579,2.4672.6952,6.0616,3.5395,4.1221,7.5815-5.1702,13.8875-13.152,19.5508-20.2852,1.6528-2.0817-1.6714-4.2217-3.351-2.2989Z" style="fill:#6262af; stroke-width:0px;"/><path d="m397.2659,984.9814c-6.7035,4.9694-13.4157,9.877-19.8223,15.2274-2.3764,1.9846.6602,5.3864,3.0934,3.6025,6.726-4.9313,13.0969-10.2632,19.5248-15.5738,2.1536-1.7792-.6016-4.8827-2.7959-3.2561Z" style="fill:#6262af; stroke-width:0px;"/><path d="m368.067,1009.4873c-3.6174,4.4624-7.7255,8.4812-12.0568,12.2483-1.9359,1.6838.6052,4.6215,2.5876,3.0137,4.753-3.8551,8.7874-8.319,12.406-13.2471,1.3723-1.8688-1.5127-3.7717-2.9368-2.0149Z" style="fill:#6262af; stroke-width:0px;"/><path d="m348.0698,1028.5959c-2.4025,3.0906-5.0497,5.9701-7.4045,9.096-1.9194,2.5481,2.1275,5.275,4.0664,2.7899,2.4001-3.0763,4.486-6.3705,6.8397-9.4836,1.6555-2.1897-1.8347-4.5467-3.5016-2.4023Z" style="fill:#6262af; stroke-width:0px;"/><path d="m327.79,1052.8863c-.9424,1.4163-1.9125,2.7947-2.9318,4.1567-1.8173,2.4284,2.3769,5.2244,3.8404,2.635.8385-1.4835,1.7118-2.9285,2.6306-4.3635,1.4873-2.3225-2.0056-4.7328-3.5392-2.4282Z" style="fill:#6262af; stroke-width:0px;"/><path d="m314.1844,1068.9803c-2.919,2.5255-5.8468,4.9466-8.3562,7.8882-1.3854,1.6239,1.1779,3.7751,2.7294,2.449,2.9164-2.4923,5.3143-5.4736,7.8171-8.3718,1.1167-1.2932-.9494-3.0388-2.1903-1.9654Z" style="fill:#6262af; stroke-width:0px;"/><path d="m288.9138,1091.2235c-5.4789,4.7083-10.8751,9.3935-15.7055,14.774-1.788,1.9917,1.4369,4.5599,3.3698,3.0235,5.5007-4.3723,10.3382-9.3963,15.2209-14.4375,1.9515-2.0149-.6866-5.2493-2.8852-3.36Z" style="fill:#6262af; stroke-width:0px;"/><path d="m253.4999,1131.1256c-2.86-.987-4.3986,3.456-1.534,4.4447,2.8599.987,4.3987-3.456,1.534-4.4447Z" style="fill:#6262af; stroke-width:0px;"/><path d="m336.5991,657.8062c9.644-5.1804,17.9284-12.8338,25.6057-20.558,2.2111-2.2248-.837-5.8989-3.2123-3.7411-7.986,7.2543-16.8573,13.2242-25.2527,19.9474-2.3109,1.8504.2202,5.7693,2.8593,4.3517Z" style="fill:#6262af; stroke-width:0px;"/><path d="m320.1911,668.4773c2.8925-2.0476,5.4214-4.4941,8.0317-6.8833,1.3994-1.2808-.1088-3.8778-1.8896-2.8759-3.2571,1.8324-6.5247,3.5825-9.5328,5.8104-2.7143,2.0102.6923,5.8591,3.3907,3.9488Z" style="fill:#6262af; stroke-width:0px;"/><path d="m289.6572,694.9051c5.699-2.5928,10.7676-7.0154,15.7668-10.7328,1.9332-1.4378-.2452-4.8251-2.3371-3.5573-5.3213,3.2248-11.3451,6.248-15.8911,10.5437-1.8512,1.7493.0764,4.8313,2.4614,3.7464Z" style="fill:#6262af; stroke-width:0px;"/><path d="m268.3411,710.8633c4.2958-2.7955,7.5763-6.2673,11.1513-9.8686,1.2875-1.297-.3404-3.0953-1.8144-2.1129-4.081,2.7199-8.0426,5.1293-11.5001,8.6893-1.438,1.4806.1312,4.6145,2.1632,3.2922Z" style="fill:#6262af; stroke-width:0px;"/><path d="m240.1729,734.8165c5.4685-2.5453,10.3474-6.0834,15.3715-9.3996,1.847-1.2193-.2255-4.3897-2.1383-3.2544-5.1764,3.0723-10.4706,5.9308-15.1477,9.7403-1.5702,1.279.1252,3.7466,1.9145,2.9137Z" style="fill:#6262af; stroke-width:0px;"/><path d="m202.8617,763.8307c8.2585-3.7543,15.1873-10.2208,21.5333-16.5774,1.5619-1.5644-.5309-4.0876-2.2605-2.6326-6.8338,5.7487-14.5058,10.332-21.411,15.9555-1.7618,1.435.1395,4.1631,2.1382,3.2545Z" style="fill:#6262af; stroke-width:0px;"/><path d="m187.3007,770.6043c-4.5309,3.4453-9.2737,6.7637-13.3567,10.7454-1.9679,1.919.5352,4.7049,2.7364,3.1869,4.6932-3.2366,8.8643-7.2443,13.1187-11.0226,1.8614-1.653-.5459-4.3944-2.4984-2.9097Z" style="fill:#6262af; stroke-width:0px;"/><path d="m147.212,805.7093c4.3625-3.1767,7.9032-7.2002,12.0794-10.5774,1.0908-.8821-.2923-2.4162-1.3979-1.6281-4.4118,3.145-9.2686,5.4995-13.5369,8.8801-2.2364,1.7713.604,4.9648,2.8554,3.3254Z" style="fill:#6262af; stroke-width:0px;"/><path d="m125.4936,817.1416c-3.0514,2.12-6.1027,4.24-9.1539,6.3598-2.9788,2.0695-6.4629,3.9544-8.8968,6.6592-1.5312,1.7016-.0442,4.5896,2.3123,3.5192,3.2954-1.4969,6.0949-4.1679,8.9401-6.3713,3.1088-2.4075,6.2177-4.815,9.3264-7.2225,2.0073-1.5544-.518-4.3409-2.5281-2.9444Z" style="fill:#6262af; stroke-width:0px;"/><path d="m87.981,849.7545c-2.7327,2.4524-5.4654,4.9048-8.1982,7.3572-2.1375,1.9182.9624,5.3461,2.8554,3.3254,2.5246-2.695,5.0491-5.3898,7.5736-8.0847,1.4722-1.5715-.5548-4.102-2.2308-2.5979Z" style="fill:#6262af; stroke-width:0px;"/><path d="m61.7336,877.3874c-2.388-.8241-3.6727,2.8856-1.2808,3.7111,2.3878.8241,3.6726-2.8856,1.2808-3.7111Z" style="fill:#6262af; stroke-width:0px;"/></g></svg>